<svg viewBox="0 0 595.28 595.28"><path fill="currentColor" d="M123.184 433.39c0-.558-.403-1.105-1.168-1.062-1.594.09-2.461.246-4.051.371-.945.074-2.824-.039-2.836-2.68-.012-1.957.004-6.816 0-8.84-.008-2.722 1.894-3.452 2.844-3.527a2218 2218 0 0 1 174.14-6.773 2224 2224 0 0 1 179.473 7.336c.922.074 2.773.976 2.762 3.012-.012 2.039.062 7.39 0 9.43-.055 1.878-1.977 2.66-2.961 2.562-3.547-.352-4.434-.106-4.508 1.699-.113 2.59.043 7.96-.067 10.469-.023.488.868 1.324 1.356 1.367.898.074 1.988.976 1.977 3.012-.012 2.035.062 7.39 0 9.43-.055 1.878-1.93 2.64-2.895 2.562a2095 2095 0 0 0-134.25-6.95 2136 2136 0 0 0-42.215-.41 2109 2109 0 0 0-168.683 6.84c-.922.075-2.758-.039-2.77-2.68-.008-1.956.004-6.816 0-8.84-.004-2.722 1.852-3.452 2.777-3.527 0 0 1.121-.507 1.118-1.175-.024-2.032-.043-9.657-.043-11.625"/><path fill="currentColor" d="M465.578 470.676c-.055 1.937-1.879 2.719-2.82 2.637a1933 1933 0 0 0-130.754-7.149c-13.703-.285-27.332-.668-41.117-.668-54.7.027-109.559 2.613-164.285 7.285-.903.074-2.688-.043-2.7-2.758-.011-2.011 0 2.114 0 .028-.007-2.797 1.801-3.551 2.703-3.625a1950 1950 0 0 1 165.637-6.969 1955 1955 0 0 1 170.707 7.547c.88.074 2.637 1.004 2.63 3.098-.013 2.097.058-1.52 0 .574"/><path fill="currentColor" fill-rule="evenodd" d="M293.348 226.797s-52.114-25.188-79.645-34.742c-24.617-8.547-72.41-10.559-102.598 16.504-22.109 19.82-35.117 47.593-28.449 82.332 6.883 35.863 27.664 63.617 35.262 80.566 11.566 25.805 13.742 53.219 13.742 53.219l26.211-.988s-12.394-68.11-34.902-109.118c-17.965-32.722-2.875-102.144 62.41-93.882 41.684 5.273 109.672 34.125 109.672 34.125z"/><path fill="currentColor" fill-rule="evenodd" d="M293.527 251.797s8.63-26.54-20.214-30.688c-91.864-13.207-117.625 34.114-114.875 67.79 2.882 35.253 23.05 49.984 32.464 84.726 7.883 29.082 8.036 53 8.036 53l22.8-.457s3.774-30.445-13.554-82.305c-7.95-23.793-36.461-64.832-3.54-86.32 12.364-8.066 35.786-16.594 62.032-9.422 22.492 6.149 28.554 27.793 28.554 27.793zM124.363 388.086s2.75 7.687-1.984 11.777c-2.59 2.235-2.176 7.203-1.07 9.047 4.574 7.613 5.37 7.297 3.148 8.777-4.168 2.778 16.863 16.043 24.047 17.489 7.187 1.445 8.855-8.692 8.855-8.692s2.352-11.601.86-11.523c-6.133.312 4.863-10.129.031-17.652-2.066-3.223-7.719-4.305-9.164-11.118-1.649-7.773-12.902 3.414-12.902 3.414z"/><path fill="currentColor" fill-rule="evenodd" d="M192.516 379.793s1.98 6.2-4.52 15.094c-2.238 3.062-2.406 8.183-.695 9.863 1.715 1.684 5.773 8.469 3.836 9.086-4.782 1.527 15.66 15.77 24.129 18.223 8.472 2.457 16.496-20.454 16.496-20.454.004.711-2.758-1.164-3.254-3.43-.668-3.05 4.781-5.413 3.152-13.35-.504-2.462-4.265-3.845-8.687-6.509-4.086-2.46-5.157-7.824-5.157-7.824zm104.089-153.102s52.114-25.191 79.645-34.746c24.617-8.547 72.41-10.558 102.598 16.504 22.109 19.82 35.113 47.594 28.449 82.332-6.883 35.867-27.664 63.617-35.266 80.567-11.562 25.808-13.738 53.218-13.738 53.218l-26.211-.988s12.39-68.105 34.902-109.117c17.965-32.723 2.875-102.145-62.41-93.883-41.683 5.274-109.672 34.125-109.672 34.125z"/><path fill="currentColor" fill-rule="evenodd" d="M296.426 251.688s-8.63-26.54 20.215-30.688c91.863-13.207 117.625 34.113 114.87 67.79-2.878 35.253-23.046 49.983-32.46 84.726-7.883 29.082-8.04 53-8.04 53l-22.796-.454s-3.774-30.449 13.555-82.308c7.949-23.793 36.46-64.832 3.535-86.317-12.36-8.07-35.782-16.597-62.028-9.421-22.496 6.144-28.554 27.789-28.554 27.789zM465.59 388.695s-2.75 7.688 1.984 11.778c2.59 2.234 2.176 7.207 1.067 9.047-4.57 7.613-5.368 7.296-3.145 8.78 4.164 2.774-16.863 16.04-24.047 17.485-7.187 1.445-8.855-8.691-8.855-8.691s-2.352-11.602-.86-11.524c6.133.313-4.863-10.125-.03-17.652 2.066-3.223 7.714-4.3 9.163-11.117 1.649-7.774 12.903 3.414 12.903 3.414z"/><path fill="currentColor" fill-rule="evenodd" d="M397.438 379.684s-1.985 6.203 4.515 15.093c2.242 3.063 2.41 8.184.695 9.868-1.71 1.68-5.77 8.464-3.832 9.082 4.782 1.527-15.66 15.77-24.128 18.226-8.473 2.453-16.497-20.457-16.497-20.457-.003.715 2.758-1.164 3.254-3.43.668-3.05-4.785-5.414-3.152-13.351.504-2.461 4.266-3.844 8.687-6.508 4.086-2.457 5.157-7.82 5.157-7.82zm-102.898-2.782 17.538-.152s.844 5.605 3.34 8.465c3.102 3.555 3.566 4.855 3.36 6.98-.47 4.739-4.145 8.325-6.579 13.98-2.347 5.454-.215 5.15 1.54 5.798 1.491.55-6.38 8.144-6.38 8.144h-25.64s-7.965-7.828-6.281-8.129c3.03-.543 1.449-5.195 1.343-5.41-2.66-5.55-5.426-8.59-5.66-15.164-.082-2.309 2.887-5.05 4.27-8.215 1.293-2.965 1.953-6.984 1.953-6.984zm.487-105.3 7.723 1.918s3.316-7.125 5.762-8.504c2.226-1.254 2.718-7.016 2.71-7.926-.015-2.516-2.074-9.613-3.913-15.164-.07-.215-.145-.438-.215-.66-.192-1.793-.922-8.352-2.633-10.18-.356-1.629-.566-2.703-.566-2.703H286.16s-.21 1.074-.566 2.703c-1.711 1.828-2.442 8.387-2.633 10.18-.07.222-.14.445-.215.66-1.84 5.55-3.898 12.648-3.914 15.164-.008.91.484 6.672 2.711 7.926 2.445 1.379 5.762 8.504 5.762 8.504z"/><path fill="currentColor" fill-rule="evenodd" d="M314.875 243.867a6.8 6.8 0 0 0-.371 1.528c-1.277 13.511-4.363 46.382-4.363 54.52v5.937h5.218c8.856 0 42.88-4.5 50.211-5.457.864-.114 2.235 1.23 2.114 2.015-.559 3.57-2.102 13.113-2.102 19.797 0 6.293 1.371 14.512 1.996 18.367.184 1.14-1.105 2.715-1.926 2.61-7.18-.93-41.707-5.47-50.601-5.47h-4.91v5.509c0 7.367 2.941 37.984 4.343 50.57.036.305.204.547.438.738h-40.344c.23-.191.402-.433.434-.738 1.406-12.586 4.347-43.203 4.347-50.57v-5.508h-4.91c-8.937 0-43.754 4.582-50.699 5.48-.758.098-2.035-1.351-1.879-2.293.594-3.64 2.043-12.214 2.043-18.695 0-6.648-1.523-16.117-2.09-19.738-.125-.82 1.18-2.196 1.946-2.094 6.964.91 41.449 5.477 50.37 5.477h5.22v-5.938c0-8.137-3.087-41.008-4.364-54.52a6.8 6.8 0 0 0-.371-1.527z"/><path fill="none" stroke="currentColor" stroke-linejoin="round" stroke-miterlimit="10" stroke-width=".799" d="M314.875 243.867a6.8 6.8 0 0 0-.371 1.528c-1.277 13.511-4.363 46.382-4.363 54.519v5.938h5.218c8.856 0 42.88-4.5 50.211-5.457.864-.114 2.235 1.23 2.114 2.015-.559 3.57-2.102 13.113-2.102 19.797 0 6.293 1.371 14.512 1.996 18.367.184 1.14-1.105 2.715-1.926 2.61-7.18-.93-41.707-5.47-50.601-5.47h-4.91v5.509c0 7.367 2.941 37.984 4.343 50.57.036.305.204.547.438.738h-40.344c.23-.191.402-.433.434-.738 1.406-12.586 4.347-43.203 4.347-50.57v-5.508h-4.91c-8.937 0-43.754 4.582-50.699 5.48-.758.098-2.035-1.351-1.879-2.293.594-3.64 2.043-12.215 2.043-18.695 0-6.648-1.523-16.117-2.09-19.738-.125-.82 1.18-2.196 1.946-2.094 6.964.91 41.449 5.477 50.37 5.477h5.22v-5.938c0-8.137-3.087-41.008-4.364-54.52a6.8 6.8 0 0 0-.371-1.527Zm0 0"/><path fill="currentColor" fill-rule="evenodd" d="M304.125 102.918c.48.352.898.781 1.02 1.348.168.765-.055 1.777-.13 2.73-.574 7.414-1.245 14.738-1.456 22.27l-.004.011c7.757-.187 15.476-.964 23.203-1.578l.656-.054.23-.02.61.047c.586.234 1.121.57 1.375 1.125.16.355.16.793.16.793l-.02.605c-.03.164-.058.332-.09.496-.445 2.493-.929 5.012-.991 7.536 0 0 .097 1.793.316 3.406a99 99 0 0 0 .758 4.672l.02.672.007.183-.16.59c-.348.527-.781.988-1.375 1.125-.73.168-1.649-.04-2.527-.11-7.368-.581-14.72-1.292-22.145-1.495h-.027c.144 5.492.597 10.96 1.015 16.421.032.426 1.063 1.88 1.38 1.98 12.55 3.966 22.5 14.704 25.37 27.583 2.746 12.324-1.207 25.945-10.32 34.902-8.828 8.672-22.078 12.535-34.25 9.883-13.504-2.945-24.984-13.898-28.371-27.59-2.465-9.941-.64-20.89 5.004-29.508 4.683-7.152 11.844-12.609 20.027-15.226.457-.145 1.48-1.516 1.524-2.063.421-5.511.859-10.992 1.007-16.375v-.007c-7.742.187-15.453.96-23.187 1.578l-.664.05-.238.02-.61-.043c-.582-.234-1.12-.57-1.37-1.125-.161-.36-.161-.793-.161-.793l.02-.61q.043-.245.09-.492c.445-2.492.929-5.011.991-7.535 0 0-.101-1.843-.34-3.55a99 99 0 0 0-.734-4.532l-.023-.672-.008-.18.164-.59c.344-.526.781-.987 1.371-1.124.738-.172 1.664.039 2.547.11 7.371.581 14.715 1.292 22.129 1.491l.023.004c-.21-8.164-.98-16.3-1.628-24.433l.039-.578c.277-.739.816-1.395 1.57-1.54.64-.128 1.297.04 1.969.098 4.89.434 9.761.387 15.046-.12l.641.023c.184.062.363.128.547.191"/><path fill="currentColor" fill-rule="evenodd" d="m282.297 225.145.043-.055h25.64s6.286 7.832 4.602 8.133c-3.031.543 8.781 15.125 7.762 15.59-1.762.8-.778 2.078-.715 4.71.055 2.313-3.29 5.696-5.32 8.489-1.38 1.898-1.395 4.761-1.395 4.761l-.715.059a23 23 0 0 0-.34 1.684l-17.543-.153-.476-.043-16.223.14s-.094-.628-.312-1.57l-.739-.066s-.015-2.863-1.398-4.758c-2.031-2.793-5.371-6.18-5.316-8.488.058-2.633 1.043-3.91-.72-4.715-1.015-.46 10.798-15.047 7.763-15.59-1.68-.3 4.585-8.105 4.601-8.128z"/><path fill-rule="evenodd" d="M143.969 430.566a7.55 7.55 0 0 1 7.547 7.547 7.55 7.55 0 0 1-7.547 7.547 7.55 7.55 0 0 1-7.547-7.547 7.55 7.55 0 0 1 7.547-7.547m25.129-1.679a7.55 7.55 0 0 1 0 15.098 7.55 7.55 0 0 1-7.547-7.548c0-4.167 3.383-7.55 7.547-7.55m25.129-1.199a7.554 7.554 0 0 1 7.55 7.55 7.55 7.55 0 0 1-7.55 7.547 7.55 7.55 0 0 1-7.547-7.547 7.55 7.55 0 0 1 7.547-7.55m251.304 3.355c4.164 0 7.547 3.383 7.547 7.55a7.55 7.55 0 0 1-7.547 7.548 7.55 7.55 0 0 1-7.55-7.547 7.554 7.554 0 0 1 7.55-7.551m-150.781-6.23a7.55 7.55 0 0 1 7.547 7.546c0 4.168-3.383 7.551-7.547 7.551a7.55 7.55 0 0 1 0-15.098m125.652 4.555a7.55 7.55 0 0 1 7.547 7.547 7.55 7.55 0 0 1-7.547 7.55 7.554 7.554 0 0 1-7.55-7.55 7.55 7.55 0 0 1 7.55-7.547m-25.132-1.437c4.168 0 7.55 3.382 7.55 7.547s-3.382 7.546-7.55 7.546a7.55 7.55 0 0 1-7.547-7.546 7.55 7.55 0 0 1 7.547-7.547m-25.13-1.442c4.165 0 7.548 3.387 7.548 7.551a7.55 7.55 0 0 1-7.547 7.547 7.55 7.55 0 0 1 0-15.098m-25.133-.718a7.554 7.554 0 0 1 7.55 7.55 7.55 7.55 0 0 1-7.55 7.547 7.55 7.55 0 0 1-7.547-7.547 7.55 7.55 0 0 1 7.547-7.55m-125.648.48c4.163 0 7.546 3.383 7.546 7.55a7.55 7.55 0 0 1-7.547 7.548 7.55 7.55 0 0 1 0-15.098m25.129-.48a7.554 7.554 0 0 1 7.551 7.55c0 4.164-3.383 7.547-7.55 7.547a7.55 7.55 0 0 1-7.548-7.547 7.55 7.55 0 0 1 7.547-7.55m25.129-.477c4.168 0 7.551 3.383 7.551 7.547s-3.383 7.547-7.55 7.547a7.55 7.55 0 0 1-7.548-7.547 7.55 7.55 0 0 1 7.547-7.547m50.262-.243a7.554 7.554 0 0 1 7.55 7.552c0 4.164-3.382 7.546-7.55 7.546a7.55 7.55 0 0 1-7.547-7.546c0-4.168 3.383-7.551 7.547-7.551" style="fill:var(--knockout,#fff)"/><path fill="currentColor" fill-rule="evenodd" d="M123.426 460.984s2.43-.476 3.008 2.641c.586 3.145-.793 3.246-.793 3.246l8.101-.879s-1.125-.242-1.46-1.57c-.43-1.68-.985-3.668-.15-3.871 1.958-.477 2.368-.352 2.368-.352zm342.707.476s-2.426-.472-3.008 2.645c-.586 3.145.793 3.243.793 3.243l-8.098-.88s1.121-.238 1.461-1.566c.426-1.683.98-3.672.145-3.875-1.957-.476-2.367-.347-2.367-.347z"/></svg>