<?xml version="1.0" standalone="no"?>
<!DOCTYPE svg PUBLIC "-//W3C//DTD SVG 20010904//EN"
 "http://www.w3.org/TR/2001/REC-SVG-20010904/DTD/svg10.dtd">
<svg version="1.0" xmlns="http://www.w3.org/2000/svg" viewBox="0 0 500.000000 940.000000"
 preserveAspectRatio="xMidYMid meet">

<g transform="translate(0.000000,940.000000) scale(0.100000,-0.100000)"
fill="currentColor" stroke="none">
<path d="M1772 9384 c-200 -12 -227 -16 -276 -39 -29 -14 -58 -25 -64 -25 -5
0 -33 -18 -60 -39 -27 -22 -80 -53 -118 -69 -64 -27 -164 -88 -294 -181 -71
-50 -228 -213 -305 -316 -33 -44 -87 -125 -119 -180 -32 -55 -74 -125 -91
-155 -66 -112 -107 -239 -141 -440 -14 -81 -18 -159 -17 -345 0 -260 12 -349
67 -518 14 -43 26 -83 26 -89 0 -20 130 -297 167 -355 41 -66 88 -125 184
-233 36 -41 78 -92 91 -112 34 -50 126 -129 227 -194 86 -57 277 -157 321
-168 53 -14 120 -50 125 -67 4 -11 24 -22 57 -29 27 -7 76 -22 107 -34 49 -19
59 -27 80 -70 23 -46 23 -50 10 -95 -11 -33 -12 -60 -6 -96 6 -34 5 -65 -3
-93 -20 -76 -14 -75 -327 -81 -153 -3 -379 -3 -503 -1 -124 2 -353 4 -510 4
l-285 1 -3 -52 c-2 -40 -8 -56 -26 -70 -33 -26 -48 -59 -56 -122 -4 -31 -13
-78 -21 -104 -17 -61 -7 -69 76 -63 338 23 520 28 650 17 77 -6 264 -13 415
-15 265 -4 358 -13 482 -47 92 -24 106 -88 120 -569 9 -286 9 -469 0 -770 -7
-217 -13 -489 -13 -605 0 -115 -4 -271 -9 -345 -12 -173 -34 -696 -33 -777 8
-454 5 -522 -26 -749 -9 -66 -44 -154 -61 -154 -15 0 -85 112 -106 171 -10 28
-34 68 -52 90 -29 34 -37 38 -65 32 -52 -10 -59 -20 -42 -60 8 -19 46 -88 85
-153 38 -65 70 -121 70 -125 0 -4 16 -34 36 -68 20 -34 44 -82 54 -107 10 -25
36 -83 58 -130 22 -47 45 -103 52 -125 7 -22 33 -80 58 -130 25 -49 66 -143
92 -208 26 -65 51 -119 56 -120 4 -1 25 38 47 88 102 232 321 654 436 840 81
131 121 201 121 216 0 21 -73 99 -92 99 -25 0 -45 -31 -71 -113 -20 -61 -34
-85 -68 -117 -23 -21 -46 -37 -51 -34 -4 3 -8 22 -8 43 0 21 -7 52 -15 67 -19
37 -19 173 0 359 18 173 19 339 3 467 -9 76 -9 147 1 335 8 131 17 324 21 428
5 105 13 217 19 250 6 33 11 139 11 235 0 96 5 249 10 340 6 91 15 381 20 645
18 842 28 1128 40 1177 10 40 10 54 -5 91 -13 35 -14 49 -6 66 27 49 39 51
347 54 620 4 1236 -14 1276 -39 12 -8 9 -40 -5 -52 -16 -14 -114 -53 -157 -63
-19 -4 -55 -13 -80 -19 -25 -7 -70 -18 -100 -26 -30 -7 -73 -18 -95 -24 -22
-6 -50 -18 -62 -28 -20 -15 -21 -23 -16 -79 l6 -63 53 0 c49 0 186 31 223 50
9 5 43 17 76 28 127 43 313 111 370 136 33 14 74 26 92 26 17 0 44 5 60 11 15
6 62 14 103 19 124 14 262 38 450 77 83 17 140 38 140 52 0 23 -91 89 -160
115 -276 107 -340 139 -560 275 -36 22 -84 44 -106 49 -36 8 -105 50 -175 107
-35 28 -203 115 -222 115 -21 0 -69 -88 -61 -112 6 -19 31 -33 115 -62 50 -18
119 -75 119 -99 0 -9 -12 -25 -27 -38 -27 -21 -32 -21 -193 -13 -193 9 -253
10 -375 4 -49 -3 -124 1 -165 7 -41 7 -116 18 -167 25 -55 7 -100 18 -115 29
l-23 18 25 26 c26 28 123 89 264 167 250 138 403 283 530 503 55 97 128 275
150 370 27 118 63 512 67 731 3 206 -30 304 -190 572 -14 24 -40 68 -57 96
-54 91 -244 377 -314 471 -59 80 -81 101 -197 182 -72 50 -150 101 -174 113
-86 44 -215 84 -355 110 -67 12 -122 29 -165 51 l-64 33 -205 2 c-113 1 -305
-4 -428 -12z m593 -515 c109 -11 270 -41 380 -69 113 -29 152 -56 215 -148 30
-45 82 -110 115 -144 34 -35 79 -86 102 -114 55 -67 171 -255 179 -291 4 -15
10 -32 14 -38 24 -33 51 -139 61 -241 13 -136 -2 -464 -26 -554 -8 -30 -15
-67 -15 -82 0 -51 -60 -252 -95 -321 -49 -95 -102 -162 -197 -248 -129 -117
-227 -179 -503 -318 -146 -74 -182 -83 -211 -54 -35 36 -43 75 -37 185 6 99 4
108 -21 161 -14 31 -26 58 -26 62 0 3 -20 36 -44 73 -123 188 -254 419 -270
475 -7 23 -48 22 -70 -2 -53 -59 -108 -407 -86 -544 5 -34 10 -124 10 -199 0
-201 -7 -205 -230 -131 -98 32 -238 100 -304 146 -25 18 -98 107 -275 333 -29
37 -75 112 -102 166 -68 136 -82 205 -116 568 -28 315 -23 443 24 578 33 93
294 382 409 451 56 35 205 100 244 108 14 3 50 17 80 31 43 20 80 27 170 34
63 4 153 15 200 24 47 9 127 20 178 24 69 5 97 11 110 24 16 17 13 17 -75 11
-63 -4 -94 -2 -98 5 -10 16 5 29 51 46 40 15 57 14 259 -7z m-1575 -1715 c16
-54 27 -100 25 -102 -8 -8 -34 58 -49 122 -30 129 -16 117 24 -20z m359 -600
c3 -6 -7 5 -24 25 -16 19 -57 67 -91 105 -69 81 -134 175 -134 194 0 10 226
-283 249 -324z"/>
</g>
</svg>
