<?xml version="1.0" standalone="no"?>
<!DOCTYPE svg PUBLIC "-//W3C//DTD SVG 20010904//EN"
 "http://www.w3.org/TR/2001/REC-SVG-20010904/DTD/svg10.dtd">
<svg version="1.0" xmlns="http://www.w3.org/2000/svg" viewBox="0 0 1000.000000 574.000000"
 preserveAspectRatio="xMidYMid meet">

<g transform="translate(0.000000,574.000000) scale(0.100000,-0.100000)"
fill="currentColor" stroke="none">
<path d="M1781 5711 c-33 -36 -61 -117 -61 -180 0 -25 -5 -62 -10 -82 -9 -31
-16 -37 -64 -52 -59 -19 -111 -67 -122 -114 -5 -17 1 -51 14 -93 35 -105 35
-113 8 -218 -31 -120 -82 -423 -97 -581 -14 -135 -7 -350 16 -501 8 -58 38
-229 65 -380 123 -677 189 -1048 195 -1091 l7 -46 -54 4 c-544 35 -827 44
-1260 41 -268 -2 -401 -7 -408 -14 -33 -33 36 -70 125 -67 33 1 199 4 370 7
314 5 321 3 140 -29 -49 -9 -104 -25 -121 -36 -42 -25 -67 -86 -68 -162 -2
-106 64 -189 172 -217 42 -11 124 -3 197 21 108 33 181 41 520 50 193 5 366
12 386 15 l36 6 12 -64 c12 -67 28 -293 40 -578 9 -201 20 -240 74 -266 119
-57 148 75 94 431 -25 168 -50 471 -40 488 6 10 57 9 90 -4 22 -8 30 -7 38 5
15 20 205 42 234 27 34 -19 50 -63 76 -213 14 -79 31 -172 39 -208 9 -36 20
-146 26 -245 12 -210 27 -327 46 -352 13 -17 13 -17 14 0 0 11 -9 97 -21 193
-11 96 -19 186 -17 201 l3 28 17 -30 c41 -76 98 -528 98 -782 0 -57 2 -103 5
-103 13 0 62 30 75 45 7 9 21 39 30 67 l16 51 26 -44 c14 -24 47 -92 72 -152
25 -59 53 -119 62 -132 19 -29 40 -34 29 -7 -72 166 -127 364 -150 544 -9 68
-28 163 -42 212 -25 89 -25 89 -8 155 21 79 22 79 39 56 31 -43 56 6 56 111 0
30 2 54 4 54 2 0 24 -11 47 -25 52 -29 99 -32 122 -7 24 27 39 181 35 377 -4
212 0 223 80 248 223 69 333 82 409 48 51 -24 70 -52 89 -131 8 -34 27 -103
44 -153 63 -197 111 -387 126 -497 21 -151 37 -206 83 -278 62 -95 108 -116
136 -62 8 16 15 49 15 74 0 25 12 82 26 126 16 53 29 123 34 198 28 354 29
364 55 408 31 53 31 66 3 62 -21 -3 -23 1 -20 32 2 19 6 37 9 40 5 5 29 -24
36 -44 3 -8 8 -8 17 0 11 11 16 29 40 147 18 89 70 103 91 23 12 -43 8 -112
-16 -301 -7 -60 -19 -159 -25 -220 -18 -176 -68 -468 -97 -563 -51 -171 -63
-217 -63 -236 0 -19 0 -19 21 0 90 80 268 667 339 1120 12 76 24 149 26 160 2
12 11 24 19 28 29 11 202 19 259 12 53 -7 59 -10 71 -41 17 -39 45 -170 45
-205 l0 -25 -20 25 -20 25 -2 -65 c-4 -112 1 -144 23 -162 13 -11 18 -24 15
-35 -3 -10 -10 -51 -16 -92 -17 -121 12 -181 86 -181 40 0 71 35 79 89 7 46
40 113 70 141 l24 22 11 -41 c6 -23 15 -41 20 -41 4 0 4 16 -2 36 -11 43 -3
103 24 164 17 39 19 59 13 140 -6 93 2 155 20 155 14 0 53 -165 72 -300 12
-86 17 -198 17 -393 1 -218 3 -264 12 -230 10 41 11 38 17 -67 33 -566 51
-698 108 -819 36 -78 154 -178 193 -163 28 11 18 24 -23 31 -28 4 -49 17 -79
50 -50 54 -69 113 -118 356 -30 151 -37 213 -49 450 -8 151 -19 340 -25 420
-15 233 -32 679 -26 695 6 17 58 20 87 5 10 -6 19 -21 19 -33 0 -12 13 -86 30
-164 17 -82 34 -206 40 -290 5 -82 17 -251 26 -378 8 -126 22 -295 29 -375 8
-80 14 -184 15 -232 0 -51 4 -88 10 -88 14 0 37 39 49 85 32 126 42 626 21
1088 -7 142 -10 260 -8 262 2 2 10 0 18 -5 12 -8 16 -52 22 -232 11 -369 57
-1040 72 -1055 8 -9 8 24 -4 190 -14 214 -28 449 -40 682 -6 116 -18 297 -26
404 -15 204 -13 221 27 221 16 0 19 -8 19 -52 0 -29 5 -132 10 -228 34 -609
41 -763 47 -1005 5 -204 9 -260 16 -231 7 26 6 130 -2 300 -13 292 -33 1207
-26 1214 11 11 126 -21 192 -53 123 -61 269 -216 345 -370 31 -63 72 -184 97
-295 73 -309 85 -723 35 -1140 -30 -245 -29 -236 -12 -222 41 33 93 215 138
477 77 454 78 647 4 1014 -16 78 -22 135 -18 155 6 27 8 28 14 11 4 -11 6 -23
4 -26 -2 -4 3 -12 11 -19 12 -10 16 -9 21 4 16 41 27 8 40 -122 3 -28 9 -52
13 -52 3 0 5 -18 3 -40 -3 -33 -1 -39 12 -34 23 9 29 62 21 185 -7 114 3 172
30 183 8 3 15 17 15 31 0 14 3 25 8 25 4 0 49 -86 100 -192 80 -164 102 -200
150 -248 82 -81 143 -104 287 -104 99 0 117 3 186 31 127 50 293 173 361 267
l28 40 -5 -75 c-10 -117 -25 -206 -57 -318 -16 -57 -27 -105 -26 -107 2 -1 72
-4 156 -6 l153 -4 22 -28 22 -28 36 54 c20 29 40 59 44 66 4 8 -9 34 -33 65
-70 93 -72 106 -71 496 0 234 4 358 12 385 12 38 12 38 107 62 131 33 148 32
165 -10 17 -39 35 -55 35 -31 0 19 25 47 34 38 3 -4 6 -1 6 5 0 5 -6 12 -12
15 -17 5 8 37 28 37 11 0 14 -35 14 -187 0 -104 4 -193 8 -199 4 -6 21 -19 38
-29 31 -18 54 -66 54 -113 0 -11 7 -23 16 -26 13 -5 15 -14 10 -44 -3 -20 -11
-64 -16 -97 -5 -33 -10 -114 -9 -180 0 -66 -2 -127 -4 -135 -3 -8 -8 -44 -12
-80 -13 -142 -49 -309 -90 -425 -62 -172 -78 -232 -79 -300 -1 -75 17 -119 59
-145 72 -45 124 -15 144 83 16 78 78 592 92 760 13 153 29 180 29 50 0 -67 9
-89 25 -63 5 8 11 7 21 -1 11 -9 14 -7 14 10 0 11 -4 21 -10 21 -5 0 -10 9
-10 21 0 14 5 19 14 16 11 -4 13 33 11 216 -1 122 -5 247 -10 279 -8 57 -1
108 14 108 4 0 18 -38 31 -85 12 -46 27 -82 31 -79 12 7 11 141 -1 149 -5 3
-10 11 -10 18 0 8 3 8 12 -1 18 -18 30 -14 23 7 -3 10 -3 26 1 35 11 28 24 6
24 -40 0 -28 4 -43 10 -39 6 4 10 50 9 108 0 97 -1 100 -13 62 l-13 -40 -11
40 c-7 22 -12 48 -12 57 0 9 -6 18 -12 21 -10 3 -10 9 0 26 16 27 15 40 -3 75
-9 16 -13 37 -10 48 7 20 21 24 27 6 7 -21 28 2 28 31 0 59 23 61 310 26 181
-21 263 -37 405 -75 144 -39 279 -46 332 -17 58 31 92 91 79 141 -21 83 -194
175 -416 221 -161 34 -456 38 -717 9 -70 -8 -75 -2 -48 53 12 23 13 37 5 58
-13 34 -13 145 0 145 6 0 10 -7 10 -15 0 -8 7 -33 16 -55 17 -41 34 -45 34 -8
0 29 -78 188 -91 188 -8 0 -9 -41 -4 -135 5 -97 4 -135 -4 -135 -6 0 -12 -19
-12 -42 -1 -28 -3 -34 -6 -18 -3 13 -11 29 -19 35 -11 8 -13 23 -8 69 4 32 12
60 19 62 17 7 6 116 -12 130 -19 13 -31 143 -15 153 8 5 8 16 0 43 -14 48 -6
67 26 61 l26 -5 0 74 c0 64 4 83 30 131 16 31 30 62 29 69 0 7 -4 4 -9 -7 -9
-22 -12 -17 -26 40 l-7 30 -7 -25 c-5 -15 -8 22 -9 92 -1 124 -9 156 -50 200
l-24 28 12 432 c7 238 15 485 18 549 3 90 1 125 -11 153 -18 43 -31 46 -40 9
-4 -16 -32 -80 -62 -144 -38 -80 -57 -134 -61 -173 -3 -30 -10 -53 -14 -50 -5
3 -9 14 -9 25 0 10 -4 19 -10 19 -13 0 -50 -37 -52 -52 -1 -7 -2 -146 -2 -308
-1 -304 -13 -512 -27 -488 -5 7 -9 26 -9 41 0 19 -4 26 -11 21 -12 -7 -6 -375
9 -579 6 -77 9 -87 19 -70 12 19 12 18 14 -10 l1 -30 8 30 7 30 7 -27 c5 -15
9 -50 9 -78 1 -27 5 -50 10 -50 4 0 7 -34 7 -76 0 -47 4 -73 10 -69 6 4 10
-10 10 -34 0 -21 3 -47 7 -57 4 -11 2 -15 -4 -11 -6 4 -14 26 -18 49 -8 40 -9
41 -13 13 -2 -16 -8 -34 -13 -40 -12 -12 -12 -122 0 -130 6 -3 13 -27 17 -53
8 -60 13 -67 28 -46 10 13 15 14 21 4 9 -15 -20 -40 -47 -40 -14 0 -18 8 -18
33 l0 32 -16 -30 c-28 -55 -64 -83 -64 -51 0 25 -29 26 -54 1 -13 -13 -41 -28
-62 -34 -41 -10 -225 -34 -229 -29 -2 2 -9 89 -16 193 -19 264 -21 1408 -3
1605 7 80 16 202 19 271 6 114 5 127 -13 149 -29 36 -80 33 -127 -9 -20 -18
-39 -30 -41 -28 -3 2 -9 39 -13 82 -5 42 -13 81 -19 87 -16 16 -32 -82 -32
-196 0 -57 -3 -164 -7 -240 l-6 -137 -28 27 c-16 15 -46 55 -68 88 -77 118
-74 116 -149 116 -37 1 -98 5 -137 10 -158 20 -387 -63 -509 -184 -86 -87
-285 -409 -308 -501 -7 -27 -13 -52 -15 -54 -9 -12 -54 48 -67 88 -24 73 -49
229 -42 261 3 17 3 37 0 45 -11 28 -24 15 -25 -22 l0 -38 -32 40 c-95 119
-156 144 -367 152 -127 5 -196 -1 -392 -33 l-37 -6 1 65 c0 81 -10 101 -53
101 l-34 1 -8 75 c-12 106 -40 241 -71 340 -22 71 -24 89 -15 118 13 39 33 39
61 1 20 -27 24 -49 52 -297 7 -69 19 -128 26 -135 19 -18 5 241 -19 353 -21
96 -32 122 -64 158 -29 32 -56 29 -63 -7 -4 -17 -14 -37 -24 -46 -15 -14 -21
-13 -64 10 -26 14 -50 25 -54 25 -15 0 -42 -59 -42 -92 l1 -33 20 38 c20 39
47 48 68 23 21 -25 24 -136 7 -231 -26 -136 -36 -164 -74 -194 -33 -28 -33
-29 -22 -70 6 -22 14 -41 18 -41 4 0 15 18 24 40 9 22 21 40 28 40 6 0 5 -11
-5 -31 -9 -17 -14 -38 -12 -47 8 -33 48 77 54 147 4 52 9 68 19 64 10 -4 12 4
7 34 -5 34 -4 37 10 23 20 -19 66 -157 74 -219 5 -45 4 -47 -61 -120 -48 -53
-66 -81 -66 -101 0 -26 -5 -30 -67 -49 -36 -12 -74 -21 -84 -21 -9 0 -54 -14
-98 -31 -44 -17 -88 -29 -98 -27 -11 2 -20 18 -26 43 -70 316 -140 525 -176
525 -5 0 -11 -18 -15 -40 -7 -44 -15 -49 -39 -22 -40 45 -24 107 22 82 28 -14
27 -3 -4 65 -25 53 -55 74 -55 38 1 -18 30 -64 30 -47 0 11 20 -17 20 -30 0
-4 -7 -5 -15 -2 -9 3 -18 -1 -21 -9 -11 -28 -25 -4 -18 31 8 44 -8 44 -25 -1
-11 -31 -53 -75 -70 -75 -4 0 -19 69 -34 153 -32 179 -45 230 -58 222 -16 -11
-10 -82 21 -220 41 -186 43 -177 -27 -153 -32 11 -83 22 -113 25 l-55 5 0
-1013 c0 -949 -1 -1021 -19 -1129 -10 -63 -20 -126 -21 -140 -2 -32 -46 -50
-71 -30 -14 12 -15 27 -10 100 4 47 10 121 13 165 9 122 -29 539 -68 740 l-22
117 23 18 c18 14 24 30 28 75 5 58 5 58 -20 52 -25 -7 -25 -6 -32 85 -5 67 -4
93 5 99 15 9 -32 145 -56 163 -21 15 -32 64 -51 231 -20 181 -36 237 -85 290
-70 75 -154 77 -199 3 -17 -28 -20 -50 -20 -139 0 -117 -4 -124 -64 -144 -27
-9 -31 -15 -34 -51 -2 -22 2 -53 9 -70 l12 -29 7 38 c8 45 18 57 30 37 15 -24
11 -108 -10 -210 -38 -181 -21 -346 36 -344 21 0 21 -1 27 -500 10 -696 9
-838 -3 -831 -5 3 -10 23 -11 43 -2 62 -23 165 -35 169 -8 3 -7 -15 3 -58 8
-34 12 -64 9 -66 -2 -3 -13 12 -24 34 -44 87 -72 186 -91 331 -12 87 -33 189
-50 243 -30 93 -53 150 -211 534 -108 262 -158 401 -181 503 -13 58 -27 95
-48 121 -18 23 -27 41 -21 47 5 5 1 27 -11 53 -21 47 -37 52 -19 6 16 -42 6
-40 -34 6 -51 60 -86 135 -86 185 0 37 4 45 27 56 15 7 38 32 51 56 21 37 22
46 12 77 -6 20 -23 49 -37 65 -22 27 -29 29 -71 24 -124 -13 -135 -16 -158
-39 -14 -14 -31 -22 -39 -18 -9 3 -45 45 -81 94 -37 49 -71 89 -76 89 -23 0
-79 -44 -94 -72 -12 -23 -15 -52 -12 -108 3 -69 7 -82 40 -132 137 -207 161
-347 135 -798 -9 -145 -13 -331 -10 -430 4 -169 4 -177 -19 -220 -19 -36 -31
-47 -66 -58 -53 -17 -71 -52 -47 -88 8 -13 22 -24 30 -24 8 0 19 -9 25 -19 11
-22 12 -199 1 -309 -4 -49 -3 -71 4 -69 17 6 23 55 24 214 1 88 6 164 12 180
l12 28 9 -40 c5 -22 8 -73 5 -112 -2 -40 0 -73 5 -73 4 0 8 -54 8 -120 l0
-120 -45 0 c-35 0 -52 6 -70 24 -26 26 -26 26 -51 311 -8 99 -26 250 -40 335
-13 85 -37 241 -54 345 -123 785 -219 1204 -361 1576 -134 351 -144 414 -113
662 8 61 1 88 -32 120 -34 35 -59 34 -93 -2z m14 -875 c10 -77 0 -162 -42
-366 l-37 -175 0 -365 c-1 -201 2 -448 7 -550 5 -128 4 -180 -3 -168 -6 9 -15
54 -21 100 -5 46 -16 135 -24 198 -35 283 -61 864 -46 1036 9 96 38 216 97
394 4 11 12 7 34 -17 21 -23 30 -46 35 -87z m3680 -243 c14 -34 23 -83 15 -83
-8 0 -40 72 -40 90 0 17 17 11 25 -7z m-2565 -108 c13 -16 5 -109 -9 -100 -5
2 -14 25 -21 50 -7 25 -17 45 -22 45 -5 0 -6 5 -3 10 9 15 41 12 55 -5z m1838
-37 c7 -7 12 -23 12 -37 l-1 -26 -19 24 c-31 36 -23 70 8 39z m-2899 -263 c2
-136 58 -425 136 -710 20 -71 63 -227 95 -345 33 -118 82 -289 110 -380 84
-274 88 -288 96 -346 l6 -55 -173 7 c-96 3 -177 9 -180 13 -3 3 -13 92 -23
196 -9 105 -25 273 -36 375 -10 102 -24 259 -30 350 -6 91 -15 233 -20 315
-11 178 -13 698 -2 709 11 12 19 -40 21 -129z m172 -15 c44 -170 117 -608 134
-805 3 -38 8 -80 11 -92 2 -13 0 -23 -4 -23 -5 0 -15 28 -21 63 -7 34 -26 125
-41 202 -100 482 -130 657 -130 749 0 65 19 29 51 -94z m5382 25 c76 -32 157
-149 172 -249 8 -53 76 -206 92 -206 16 0 46 44 96 142 l42 83 3 -39 c2 -22
-4 -102 -13 -178 -8 -77 -20 -244 -25 -371 -11 -261 -24 -444 -46 -657 -8 -80
-19 -194 -24 -254 -12 -129 -18 -156 -34 -156 -32 0 -41 53 -41 235 -1 263 -4
316 -17 285 -6 -16 -9 -118 -6 -275 l3 -250 -40 -11 c-22 -6 -80 -21 -128 -33
-172 -41 -243 -128 -146 -178 44 -23 334 -9 477 22 22 5 22 4 22 -92 1 -138
17 -288 35 -323 16 -31 7 -70 -15 -70 -6 0 -43 -31 -82 -69 -113 -107 -220
-151 -363 -151 -92 0 -175 23 -237 66 -96 67 -219 296 -279 524 -68 255 -93
462 -95 775 -1 143 -5 330 -9 416 -9 175 -5 206 51 414 77 284 231 513 399
591 59 28 153 32 208 9z m-1332 -237 c106 -49 179 -141 210 -268 19 -74 16
-271 -5 -387 -32 -176 -77 -291 -156 -394 -89 -114 -309 -306 -381 -332 -14
-5 -17 10 -23 116 -11 194 -21 275 -30 254 -8 -17 -7 -56 10 -273 8 -94 -5
-147 -42 -171 -14 -9 -27 -14 -29 -11 -3 2 -8 207 -11 456 -7 444 -7 451 12
446 24 -6 47 18 63 65 16 49 13 90 -10 140 -11 25 -17 51 -14 59 4 11 -2 12
-26 7 l-31 -7 7 153 c4 85 10 157 14 161 10 11 95 16 246 14 127 -2 145 -5
196 -28z m-716 -320 c10 -421 3 -668 -20 -788 -13 -65 -21 -88 -26 -75 -4 11
-30 85 -59 165 -29 80 -77 199 -106 265 -43 97 -55 140 -68 225 -12 86 -43
348 -49 424 -2 15 7 22 33 28 19 4 89 21 155 37 66 16 123 30 126 30 4 1 10
-140 14 -311z m-2618 200 c-2 -13 -4 -3 -4 22 0 25 2 35 4 23 2 -13 2 -33 0
-45z m20 -447 c3 -328 1 -380 -12 -385 -13 -5 -15 44 -15 391 0 318 3 395 13
385 9 -10 13 -105 14 -391z m1902 209 c18 -82 15 -100 -15 -100 -35 0 -29 -28
11 -50 33 -18 38 -33 80 -235 14 -66 37 -151 51 -190 14 -38 30 -88 35 -110
14 -58 24 -545 12 -545 -5 0 -18 19 -29 42 -21 46 -40 59 -47 31 -3 -14 -5
-13 -10 7 -107 454 -119 537 -111 777 4 118 3 177 -5 198 -10 23 -14 26 -21
15 -16 -25 -12 47 7 133 10 42 21 77 25 77 3 0 11 -23 17 -50z m1896 -146 c-3
-35 -11 -66 -16 -69 -11 -7 -12 71 -2 141 6 47 7 48 16 21 5 -16 6 -57 2 -93z
m-2539 40 c-15 -39 -15 -39 -15 -8 -1 16 4 35 11 42 18 18 19 9 4 -34z m29
-43 c3 -5 1 -12 -5 -16 -5 -3 -10 1 -10 9 0 18 6 21 15 7z m5 -149 c0 -27 -17
-62 -30 -62 -9 0 -7 25 6 89 4 20 7 22 15 10 5 -7 9 -24 9 -37z m-982 -39 c11
-27 36 -86 55 -133 79 -195 232 -552 277 -648 27 -57 52 -118 55 -135 l6 -32
-143 12 c-79 6 -175 12 -215 12 -96 1 -96 2 -83 173 5 73 10 283 10 466 0 182
4 332 8 332 5 0 18 -21 30 -47z m1542 -155 c11 -164 46 -372 99 -585 49 -199
61 -289 38 -280 -8 3 -70 9 -136 13 -67 4 -124 10 -126 14 -3 4 0 43 5 86 5
44 14 122 20 174 34 331 60 586 66 659 9 115 22 85 34 -81z m3234 -30 c9 -37
7 -200 -5 -285 -6 -43 -14 -161 -18 -262 -6 -176 -7 -184 -30 -202 -19 -16
-61 -27 -61 -16 0 2 11 68 24 148 36 212 54 360 62 508 7 126 15 157 28 109z
m-2687 -156 c6 -74 -12 -145 -27 -107 -4 11 -10 74 -13 140 l-7 120 21 -43
c11 -24 23 -73 26 -110z m1297 -53 c14 -48 31 -133 36 -189 6 -56 17 -136 24
-178 9 -53 10 -86 3 -105 -7 -20 -6 -32 2 -40 6 -6 11 -29 11 -51 0 -32 3 -38
11 -26 8 12 9 10 5 -10 -3 -14 -6 -34 -6 -44 0 -16 -3 -17 -12 -8 -20 20 -28
14 -28 -19 0 -22 4 -30 14 -26 11 4 11 -3 2 -41 -6 -27 -10 -106 -8 -182 4
-142 -5 -300 -16 -300 -4 0 -41 64 -82 143 -68 129 -84 150 -170 237 -117 117
-231 190 -351 225 -47 13 -102 31 -122 40 -39 16 -42 35 -6 35 27 0 104 40
166 87 181 136 337 298 405 423 33 59 48 74 48 45 0 -8 5 -15 10 -15 6 0 10
20 10 44 0 24 3 52 7 62 8 22 10 18 47 -107z m-3681 -111 c4 -83 7 -190 7
-237 0 -47 4 -102 10 -120 11 -41 -1 -61 -36 -61 -21 0 -24 5 -25 43 0 23 -3
36 -6 29 -15 -38 -19 21 -16 230 3 222 4 234 24 251 12 9 25 17 29 17 4 0 10
-68 13 -152z m1245 12 c-1 -78 -1 -81 -8 -35 -11 70 -11 166 0 140 5 -11 8
-58 8 -105z m1368 -67 c20 -209 8 -383 -25 -383 -14 0 -31 114 -38 240 -5 105
-4 119 16 157 11 23 21 49 21 58 0 8 4 15 9 15 5 0 13 -39 17 -87z m-367 -5
c16 -96 23 -196 13 -178 -14 22 -42 165 -42 212 0 57 16 38 29 -34z m121 62
c0 -5 -5 -10 -11 -10 -5 0 -7 5 -4 10 3 6 8 10 11 10 2 0 4 -4 4 -10z m440
-181 c0 -78 -4 -118 -10 -114 -6 4 -10 57 -10 126 0 78 4 118 10 114 6 -4 10
-57 10 -126z m-1540 16 c0 -29 -3 -36 -10 -25 -5 8 -10 33 -10 55 0 29 3 36
10 25 5 -8 10 -33 10 -55z m4505 -43 c-9 -10 -25 20 -25 49 0 14 6 31 13 38
10 10 13 3 15 -34 2 -26 0 -50 -3 -53z m-4495 -32 c0 -11 -4 -20 -10 -20 -5 0
-10 9 -10 20 0 11 5 20 10 20 6 0 10 -9 10 -20z m988 -54 c12 -31 12 -41 2
-61 -12 -23 -10 -88 6 -142 5 -19 2 -23 -14 -23 -32 0 -39 24 -45 163 -5 127
-5 128 15 115 11 -8 27 -31 36 -52z m2813 -127 c-7 -18 -10 1 -10 77 -1 55 2
104 7 108 11 12 14 -157 3 -185z m-2651 41 c10 -36 22 -83 25 -104 6 -36 5
-38 -9 -27 -19 16 -51 115 -60 186 -6 47 -6 49 9 30 9 -11 24 -49 35 -85z
m-1140 0 c0 -5 -5 -10 -11 -10 -5 0 -7 5 -4 10 3 6 8 10 11 10 2 0 4 -4 4 -10z
m-3077 -27 c-7 -2 -19 -2 -25 0 -7 3 -2 5 12 5 14 0 19 -2 13 -5z m267 -19
c36 -3 149 -9 251 -13 152 -5 191 -10 212 -24 30 -20 36 -41 10 -33 -10 3
-126 14 -258 26 -268 22 -346 30 -358 37 -18 11 8 23 41 18 20 -2 66 -7 102
-11z m980 -63 c29 -7 32 -10 17 -16 -21 -9 -295 0 -305 10 -4 3 0 11 8 16 17
11 222 4 280 -10z m3055 -11 c3 -5 1 -10 -4 -10 -6 0 -11 5 -11 10 0 6 2 10 4
10 3 0 8 -4 11 -10z m3310 -155 c8 -120 -8 -223 -34 -217 -6 1 -11 -3 -11 -8
0 -5 -5 -10 -11 -10 -8 0 -10 23 -7 70 3 52 0 70 -9 70 -7 0 -13 11 -13 23 0
13 -3 58 -6 100 -7 74 -6 75 17 80 70 13 66 18 74 -108z m-2018 48 c-3 -10 -5
-4 -5 12 0 17 2 24 5 18 2 -7 2 -21 0 -30z m-18 -120 c1 -76 -1 -135 -5 -131
-3 4 -12 33 -20 65 -10 45 -11 72 -2 130 6 40 15 73 18 73 4 0 8 -62 9 -137z
m-2584 77 c3 -5 1 -10 -4 -10 -6 0 -11 5 -11 10 0 6 2 10 4 10 3 0 8 -4 11
-10z m-1188 -157 c-11 -190 -47 -239 -47 -64 0 60 -3 123 -6 140 -6 30 -5 31
26 31 l33 0 -6 -107z m-217 49 c0 -40 -17 -34 -20 8 -3 36 -1 42 10 35 6 -3
10 -23 10 -43z m2472 31 c25 -29 30 -61 17 -101 l-12 -37 -19 65 c-10 36 -18
71 -18 78 0 17 14 15 32 -5z m-2443 -36 c-1 -18 -5 -43 -9 -57 -6 -19 -8 -9
-9 38 -1 40 3 61 9 57 6 -3 10 -21 9 -38z m2661 4 c12 -24 14 -161 1 -161 -9
0 -16 30 -27 123 -7 59 5 76 26 38z m167 -38 c-3 -10 -5 -2 -5 17 0 19 2 27 5
18 2 -10 2 -26 0 -35z m180 15 c-3 -8 -6 -5 -6 6 -1 11 2 17 5 13 3 -3 4 -12
1 -19z m-583 -54 c9 -24 7 -64 -3 -64 -5 0 -11 18 -13 40 -4 40 5 53 16 24z
m-2377 -26 c-3 -7 -5 -2 -5 12 0 14 2 19 5 13 2 -7 2 -19 0 -25z m3963 -13 c0
-8 -4 -15 -10 -15 -5 0 -10 7 -10 15 0 8 5 15 10 15 6 0 10 -7 10 -15z m-2613
-47 c12 -13 24 -38 28 -57 10 -46 -4 -246 -16 -234 -11 11 -43 165 -54 256 -7
64 5 75 42 35z m-1347 -4 c0 -8 -5 -12 -10 -9 -6 4 -8 11 -5 16 9 14 15 11 15
-7z m5911 -77 c-8 -8 -11 -5 -11 9 0 27 14 41 18 19 2 -9 -1 -22 -7 -28z
m-3703 -23 c4 -46 -12 -36 -23 15 -6 26 -4 32 6 29 8 -3 15 -22 17 -44z m172
-6 c0 -16 -4 -28 -10 -28 -5 0 -10 19 -10 43 0 31 3 38 10 27 5 -8 10 -27 10
-42z m1610 -197 c0 -6 -4 -13 -10 -16 -5 -3 -10 1 -10 9 0 9 5 16 10 16 6 0
10 -4 10 -9z"/>
<path d="M5685 3660 c3 -5 8 -10 11 -10 2 0 4 5 4 10 0 6 -5 10 -11 10 -5 0
-7 -4 -4 -10z"/>
<path d="M5240 3420 c0 -5 5 -10 10 -10 6 0 10 5 10 10 0 6 -4 10 -10 10 -5 0
-10 -4 -10 -10z"/>
<path d="M6438 2036 c-3 -63 3 -83 16 -51 3 8 12 12 20 9 14 -5 14 -1 1 41
-22 75 -33 75 -37 1z"/>
<path d="M6470 1951 c0 -10 -3 -40 -6 -67 -5 -34 -3 -46 4 -39 15 15 27 125
13 125 -6 0 -11 -8 -11 -19z"/>
<path d="M5605 4340 c3 -5 8 -10 11 -10 2 0 4 5 4 10 0 6 -5 10 -11 10 -5 0
-7 -4 -4 -10z"/>
<path d="M5293 4253 c-27 -5 -30 -25 -7 -44 13 -10 17 -10 25 2 8 12 13 51 7
48 -2 -1 -13 -4 -25 -6z"/>
<path d="M3030 4223 c0 -4 5 -15 10 -23 8 -13 10 -13 10 2 0 9 -4 20 -10 23
-5 3 -10 3 -10 -2z"/>
<path d="M3201 3984 c0 -11 3 -14 6 -6 3 7 2 16 -1 19 -3 4 -6 -2 -5 -13z"/>
<path d="M3216 3938 c10 -34 32 -76 44 -83 15 -9 12 1 -15 55 -26 52 -41 66
-29 28z"/>
<path d="M8340 3574 c0 -8 5 -12 10 -9 6 4 8 11 5 16 -9 14 -15 11 -15 -7z"/>
<path d="M8353 3468 c3 -18 10 -62 16 -98 6 -36 14 -92 17 -125 5 -47 8 -55
16 -41 16 29 -24 296 -44 296 -6 0 -8 -15 -5 -32z"/>
<path d="M8804 3445 c-7 -29 -1 -41 15 -30 14 8 14 55 1 55 -5 0 -12 -11 -16
-25z"/>
<path d="M8920 3405 c1 -26 2 -28 11 -12 8 14 8 22 0 30 -8 8 -11 3 -11 -18z"/>
<path d="M8320 3396 c0 -14 5 -26 10 -26 6 0 10 9 10 19 0 11 -4 23 -10 26 -6
4 -10 -5 -10 -19z"/>
<path d="M4222 3358 c-16 -16 -15 -33 2 -47 15 -13 26 4 26 40 0 22 -11 24
-28 7z"/>
<path d="M4266 3185 c-7 -20 14 -65 31 -65 7 0 13 5 13 10 0 6 -4 10 -10 10
-5 0 -10 14 -10 30 0 32 -14 40 -24 15z"/>
<path d="M8425 2891 c-6 -20 23 -166 32 -157 3 3 2 44 -2 91 -7 82 -17 106
-30 66z"/>
<path d="M8360 2855 c0 -8 5 -15 10 -15 6 0 10 7 10 15 0 8 -4 15 -10 15 -5 0
-10 -7 -10 -15z"/>
<path d="M8501 2854 c0 -11 3 -14 6 -6 3 7 2 16 -1 19 -3 4 -6 -2 -5 -13z"/>
<path d="M8266 2828 c-12 -47 -6 -143 12 -177 18 -38 42 -52 42 -27 0 24 19
19 25 -7 5 -17 13 -23 28 -22 20 1 22 8 25 61 2 32 0 79 -4 104 l-7 45 -10
-35 c-5 -19 -12 -29 -14 -22 -8 21 -21 13 -25 -13 -6 -48 -23 -25 -20 26 3 37
-1 55 -14 70 -22 25 -30 24 -38 -3z"/>
<path d="M8480 2770 c0 -5 5 -10 10 -10 6 0 10 5 10 10 0 6 -4 10 -10 10 -5 0
-10 -4 -10 -10z"/>
<path d="M2535 2740 c3 -5 8 -10 11 -10 2 0 4 5 4 10 0 6 -5 10 -11 10 -5 0
-7 -4 -4 -10z"/>
<path d="M8442 2688 c-14 -14 -16 -44 -3 -52 5 -4 12 8 16 25 8 35 4 44 -13
27z"/>
<path d="M8830 2573 c1 -10 7 -29 15 -43 12 -22 14 -23 20 -7 10 25 -3 67 -20
67 -8 0 -15 -8 -15 -17z"/>
<path d="M2617 2473 c-11 -10 -8 -53 3 -53 6 0 10 14 10 30 0 31 -2 35 -13 23z"/>
<path d="M8370 2010 c0 -22 4 -28 15 -24 12 5 15 -6 15 -63 0 -46 5 -76 16
-91 23 -34 29 -27 26 28 -3 41 -7 49 -17 40 -12 -10 -13 -5 -9 27 3 21 7 46 9
56 2 10 -3 17 -12 17 -8 0 -17 9 -20 20 -8 30 -23 24 -23 -10z"/>
<path d="M8860 1653 c0 -21 5 -45 10 -53 7 -11 10 -2 10 32 0 26 -4 50 -10 53
-6 4 -10 -9 -10 -32z"/>
<path d="M6710 1650 c0 -18 4 -29 10 -25 6 3 10 15 10 25 0 10 -4 22 -10 25
-6 4 -10 -7 -10 -25z"/>
<path d="M8831 1244 c0 -11 3 -14 6 -6 3 7 2 16 -1 19 -3 4 -6 -2 -5 -13z"/>
<path d="M5117 1103 c12 -120 47 -223 75 -223 18 0 68 52 68 69 -1 13 -4 12
-16 -4 -19 -25 -27 -15 -54 75 -22 69 -54 130 -69 130 -5 0 -6 -21 -4 -47z"/>
<path d="M8699 994 c-7 -9 -15 -45 -17 -80 -5 -75 13 -114 53 -114 25 0 25 1
24 88 0 48 -4 96 -9 107 -6 14 -9 -5 -9 -57 -1 -49 -5 -78 -12 -78 -7 0 -9 26
-7 75 3 78 0 86 -23 59z"/>
<path d="M2502 859 c8 -110 16 -149 30 -149 6 0 7 33 2 92 -8 103 -15 140 -30
145 -6 2 -7 -30 -2 -88z"/>
</g>
</svg>
