<?xml version="1.0" standalone="no"?>
<!DOCTYPE svg PUBLIC "-//W3C//DTD SVG 20010904//EN"
 "http://www.w3.org/TR/2001/REC-SVG-20010904/DTD/svg10.dtd">
<svg version="1.0" xmlns="http://www.w3.org/2000/svg" viewBox="0 0 500.000000 512.000000"
 preserveAspectRatio="xMidYMid meet">

<g transform="translate(0.000000,512.000000) scale(0.100000,-0.100000)"
fill="currentColor" stroke="none">
<path d="M4170 5096 c0 -24 -89 -94 -149 -117 -53 -20 -60 -20 -141 -8 -118
19 -346 17 -435 -4 -69 -17 -536 -144 -565 -155 -17 -6 -24 -4 110 -29 260
-48 473 -160 678 -357 53 -52 140 -122 192 -156 114 -76 301 -260 376 -370
104 -152 187 -328 245 -519 32 -105 79 -341 79 -399 1 -78 18 -3 34 149 27
260 37 513 26 694 -24 404 -80 619 -246 957 -121 243 -204 372 -204 314z"/>
<path d="M2050 4804 c-178 -23 -339 -71 -531 -160 -122 -57 -294 -108 -341
-101 -19 2 -28 -1 -28 -10 0 -7 19 -61 42 -120 42 -107 42 -109 38 -208 -24
-512 34 -853 201 -1182 68 -133 249 -400 223 -328 -65 180 -88 329 -81 534 6
183 20 261 74 421 86 254 207 456 372 621 183 183 371 288 631 354 86 22 260
53 310 56 46 2 -224 74 -395 105 -87 15 -436 28 -515 18z"/>
<path d="M2955 4595 c-229 -53 -453 -149 -625 -270 -106 -74 -290 -257 -352
-352 -27 -39 -48 -74 -48 -77 0 -4 26 15 59 42 131 109 341 229 499 286 205
73 469 91 689 48 150 -30 321 -90 476 -167 145 -72 142 -77 38 69 -154 217
-340 362 -545 425 -81 25 -67 25 -191 -4z"/>
<path d="M2780 4175 c-80 -17 -160 -44 -225 -78 l-50 -26 141 -1 c336 -1 591
-99 812 -314 187 -181 272 -379 272 -635 0 -139 -12 -204 -64 -346 -12 -33 38
30 111 138 201 299 243 629 113 887 -25 49 -43 69 -107 115 -93 65 -308 175
-413 209 -192 63 -430 84 -590 51z"/>
<path d="M3895 4060 c103 -159 189 -374 219 -549 20 -119 21 -321 1 -435 -45
-258 -174 -521 -367 -751 -159 -189 -359 -355 -537 -444 -34 -18 -61 -35 -58
-37 3 -3 47 -1 99 5 170 19 360 87 534 190 202 120 464 345 596 509 91 115 90
110 73 251 -50 430 -151 752 -317 1007 -59 91 -185 241 -243 288 l-46 38 46
-72z"/>
<path d="M2510 3943 c-154 -12 -325 -64 -480 -144 -144 -76 -135 -65 -134
-172 1 -101 18 -178 64 -286 33 -77 114 -218 153 -265 l24 -30 13 55 c29 125
101 270 192 385 108 138 329 319 490 400 28 14 47 29 42 34 -11 10 -209 31
-273 28 -25 -1 -66 -3 -91 -5z"/>
<path d="M3018 3818 c-120 -60 -229 -172 -292 -300 -41 -83 -79 -197 -70 -207
2 -2 34 24 71 58 83 76 205 140 284 148 47 5 66 1 110 -19 91 -42 226 -161
275 -244 9 -16 13 -7 18 51 19 186 -73 371 -254 510 l-58 45 -84 -42z"/>
<path d="M1767 3573 c-16 -25 -47 -186 -57 -290 -29 -317 67 -649 267 -914
179 -238 439 -417 726 -498 37 -11 67 -18 67 -17 0 2 -35 30 -78 63 -275 213
-476 505 -553 803 -18 67 -30 93 -59 125 -123 133 -254 430 -294 670 -7 38
-15 64 -19 58z"/>
<path d="M2544 3514 c-104 -104 -217 -302 -280 -489 -41 -124 -42 -143 -6
-173 243 -206 461 -293 725 -291 89 0 107 3 87 11 -106 45 -203 96 -255 133
-80 57 -190 175 -238 256 l-39 64 6 140 c5 136 27 272 59 363 8 23 11 42 6 42
-5 0 -34 -25 -65 -56z"/>
<path d="M1153 3475 c-55 -99 -121 -447 -158 -835 -26 -275 -54 -393 -111
-467 -14 -18 -32 -33 -40 -33 -55 0 67 -78 286 -184 188 -90 335 -148 585
-232 206 -68 545 -165 545 -155 0 3 -46 51 -101 106 -227 226 -362 428 -465
698 -28 73 -46 101 -100 160 -138 150 -264 371 -343 599 -35 102 -74 260 -83
338 -3 24 -4 24 -15 5z"/>
<path d="M3497 3347 c-4 -84 -12 -133 -31 -190 -44 -130 -58 -146 -171 -190
-129 -51 -223 -70 -305 -63 -69 6 -179 38 -217 62 -49 31 -19 -6 62 -77 184
-160 337 -228 535 -236 l115 -5 32 53 c118 198 133 451 38 665 -48 108 -51
107 -58 -19z"/>
<path d="M4726 3283 c-19 -387 -101 -659 -266 -882 -31 -42 -84 -130 -119
-196 -166 -319 -357 -534 -633 -716 -48 -31 -93 -59 -100 -62 -7 -2 -10 -7 -6
-11 10 -11 261 12 373 35 127 26 289 78 433 140 220 94 582 305 582 339 0 5
-9 12 -21 15 -12 4 -29 26 -40 49 -22 51 -42 210 -33 275 7 59 -11 370 -31
531 -24 185 -108 597 -126 615 -3 3 -9 -57 -13 -132z"/>
<path d="M3895 2903 c-87 -121 -297 -333 -390 -394 -178 -118 -308 -161 -480
-161 -216 0 -402 78 -632 266 -46 36 -83 65 -83 64 0 -2 9 -27 20 -56 95 -249
316 -519 559 -683 88 -59 89 -59 211 13 298 178 610 498 767 786 43 77 106
237 101 254 -2 4 -35 -36 -73 -89z"/>
<path d="M1870 2275 c44 -119 157 -298 313 -493 112 -140 472 -507 610 -622
90 -74 156 -161 243 -317 l38 -68 8 45 c10 57 93 228 161 334 82 125 161 210
386 415 256 234 387 370 471 489 36 51 67 98 69 105 2 6 -33 -23 -78 -65 -521
-490 -1340 -532 -1921 -100 -78 58 -210 184 -273 262 -33 40 -36 42 -27 15z"/>
<path d="M1881 1465 c-24 -42 -68 -103 -99 -136 -78 -85 -185 -133 -602 -273
-330 -110 -462 -147 -476 -134 -3 4 -10 26 -16 50 -18 82 11 232 59 296 13 17
21 32 18 32 -19 0 -87 -45 -124 -81 -84 -84 -127 -209 -118 -339 l5 -77 -86
-64 c-265 -196 -374 -366 -431 -672 -10 -54 0 -62 20 -15 39 94 207 287 329
377 203 151 510 273 1026 408 l151 40 24 -20 c105 -86 280 -98 428 -29 l56 26
-85 6 c-92 7 -146 28 -193 75 -46 47 -38 58 86 120 149 75 288 169 365 247 60
61 118 136 110 143 -2 2 -87 22 -188 45 -102 22 -192 43 -200 45 -11 4 -29
-17 -59 -70z"/>
</g>
</svg>
