<?xml version="1.0" standalone="no"?>
<!DOCTYPE svg PUBLIC "-//W3C//DTD SVG 20010904//EN"
 "http://www.w3.org/TR/2001/REC-SVG-20010904/DTD/svg10.dtd">
<svg version="1.0" xmlns="http://www.w3.org/2000/svg" viewBox="0 0 1000.000000 207.000000"
 preserveAspectRatio="xMidYMid meet">

<g transform="translate(0.000000,207.000000) scale(0.100000,-0.100000)"
fill="currentColor" stroke="none">
<path d="M1192 2060 c-40 -17 -221 -49 -364 -65 -158 -17 -424 -20 -582 -5
-93 9 -112 8 -124 -4 -19 -19 -9 -44 22 -56 14 -5 95 -12 180 -16 l155 -7 11
-46 c62 -264 43 -1411 -29 -1678 -9 -34 -18 -44 -49 -56 -56 -22 -143 -38
-276 -51 -124 -12 -147 -22 -132 -61 6 -16 16 -17 79 -12 39 3 158 21 262 40
270 50 402 60 682 54 195 -4 265 -10 388 -31 208 -36 206 -36 234 22 44 89
104 186 144 229 38 42 39 43 23 68 -9 14 -20 25 -24 25 -4 0 -29 -25 -55 -55
-27 -31 -66 -65 -88 -76 -104 -53 -386 -92 -667 -93 -215 -1 -206 -6 -219 112
-12 115 -8 1022 5 1215 12 163 37 386 45 394 2 2 80 17 173 33 93 16 192 36
219 43 48 13 50 15 50 48 0 38 -20 46 -63 29z"/>
<path d="M3990 1690 l0 -69 -37 -6 c-199 -32 -369 -140 -467 -298 -70 -112
-91 -189 -91 -327 1 -144 21 -217 87 -316 93 -139 240 -219 441 -239 l67 -7 0
-74 c0 -72 1 -74 25 -74 23 0 24 3 27 77 l3 76 65 13 c188 39 358 182 450 379
49 104 63 170 63 280 -3 281 -204 478 -522 511 l-61 7 0 68 c0 67 -1 69 -25
69 -24 0 -25 -2 -25 -70z m0 -328 l0 -207 -29 -13 c-32 -14 -71 -81 -71 -121
0 -39 32 -93 67 -113 l33 -20 0 -198 0 -198 -42 10 c-105 23 -197 102 -250
215 -44 93 -58 155 -65 283 -15 298 107 520 309 559 24 5 44 9 46 10 1 1 2
-92 2 -207z m177 156 c65 -39 109 -90 152 -174 48 -95 65 -180 65 -329 0 -199
-44 -331 -142 -429 -50 -50 -105 -81 -164 -91 l-38 -7 0 200 0 200 35 21 c85
50 82 180 -6 229 l-29 17 0 204 0 204 36 -6 c20 -4 61 -21 91 -39z"/>
<path d="M6930 1630 c-137 -51 -146 -52 -304 -49 -146 4 -151 3 -151 -16 0
-18 9 -21 73 -26 43 -3 78 -11 87 -20 29 -29 39 -156 39 -479 -1 -438 -17
-530 -94 -557 -46 -16 -113 -16 -128 -1 -10 10 -15 10 -22 -2 -16 -25 -11 -40
16 -52 36 -16 169 4 230 35 l46 24 67 -19 c89 -25 226 -48 281 -48 117 0 288
74 393 170 105 97 154 219 127 319 -15 56 -75 120 -144 154 -57 28 -162 57
-208 57 -40 0 -35 12 18 40 149 78 233 232 189 345 -37 99 -134 145 -315 152
-109 4 -119 2 -200 -27z m218 -59 c18 -12 44 -46 59 -74 22 -43 27 -65 27
-132 0 -68 -4 -87 -27 -130 -43 -79 -82 -99 -194 -103 -148 -6 -143 -10 -143
106 0 53 5 140 10 192 11 104 30 137 93 158 52 18 139 9 175 -17z m65 -535
c103 -50 145 -139 134 -284 -8 -106 -51 -192 -115 -229 -54 -32 -143 -42 -211
-23 -55 15 -127 80 -141 129 -5 20 -10 128 -10 240 l0 203 143 -3 c132 -4 146
-6 200 -33z"/>
<path d="M8148 1650 c-63 -11 -152 -37 -218 -65 -54 -23 -61 -23 -200 -14
-102 7 -147 6 -154 -1 -19 -20 20 -37 97 -45 40 -3 79 -10 86 -14 24 -15 33
-169 29 -529 -3 -245 -9 -375 -18 -414 l-13 -57 -51 -10 c-28 -6 -71 -14 -96
-18 -30 -5 -45 -13 -45 -23 0 -12 12 -15 55 -13 30 1 175 2 323 2 226 1 267 4
267 16 0 16 -11 19 -119 34 -41 5 -78 14 -84 20 -13 13 -25 154 -26 305 l-1
119 95 -6 c115 -7 165 -28 236 -99 63 -63 144 -172 199 -267 75 -130 227 -262
358 -311 106 -40 188 -52 322 -47 145 5 205 22 257 74 42 43 36 56 -9 18 -18
-16 -47 -34 -65 -42 -38 -15 -176 -17 -254 -3 -71 13 -210 84 -270 138 -54 48
-127 159 -159 242 -86 221 -184 319 -336 338 l-59 7 55 29 c168 87 270 219
270 351 0 153 -113 257 -308 285 -76 11 -98 11 -164 0z m124 -63 c82 -49 123
-143 122 -282 0 -79 -4 -98 -31 -156 -41 -88 -87 -133 -153 -149 -53 -13 -196
-10 -219 4 -15 10 -9 248 11 416 10 88 13 97 44 127 65 61 163 79 226 40z"/>
<path d="M1306 1631 c-12 -19 13 -50 47 -55 17 -3 81 -10 141 -16 60 -5 112
-12 114 -15 3 -3 -24 -103 -61 -223 -36 -119 -86 -289 -111 -377 -96 -342
-129 -407 -232 -458 -35 -17 -64 -35 -64 -39 0 -7 264 -14 388 -11 31 0 112
47 112 64 0 5 -27 9 -60 9 -73 0 -104 24 -115 88 -7 42 12 167 42 274 14 54
18 58 52 65 45 10 347 10 356 1 4 -4 12 -29 17 -55 20 -103 68 -379 68 -390 0
-7 -16 -15 -36 -19 -25 -5 -34 -11 -32 -23 2 -9 9 -16 16 -15 6 1 98 2 203 2
176 2 190 3 187 19 -3 15 -12 17 -50 15 -38 -3 -48 0 -57 17 -41 77 -201 881
-201 1012 l0 46 101 10 c69 7 106 15 117 27 29 28 3 36 -83 24 -44 -6 -188
-11 -320 -11 -225 0 -314 7 -496 39 -22 4 -39 2 -43 -5z m504 -113 c9 -23 47
-212 75 -373 10 -63 12 -91 4 -96 -6 -3 -59 -12 -118 -18 -58 -7 -134 -18
-168 -25 -74 -16 -72 -21 -43 97 55 219 133 411 173 427 39 16 67 11 77 -12z"/>
<path d="M2794 1616 c-76 -18 -173 -66 -224 -112 -22 -20 -53 -64 -70 -98 -72
-147 -40 -288 84 -361 23 -13 109 -42 191 -65 175 -47 247 -80 289 -133 26
-32 31 -49 34 -107 5 -85 -9 -130 -53 -169 -83 -72 -237 -66 -365 14 -49 31
-116 106 -142 160 l-22 46 -18 -70 c-14 -59 -39 -127 -75 -208 -17 -40 335
-105 453 -84 147 27 283 130 351 267 34 70 38 85 37 153 0 58 -5 86 -21 116
-49 92 -146 153 -317 200 -159 43 -200 61 -245 110 -45 49 -56 79 -48 135 7
53 33 86 95 116 47 24 61 26 130 22 153 -9 283 -113 308 -245 4 -24 12 -33 25
-33 11 0 19 4 19 9 0 36 25 174 40 222 l18 59 -97 31 c-116 38 -275 48 -377
25z"/>
<path d="M5272 1619 c-258 -33 -446 -202 -497 -444 -19 -92 -19 -265 0 -339
39 -150 141 -278 273 -343 65 -33 87 -38 157 -41 57 -3 92 1 118 12 46 19 48
36 3 36 -65 0 -137 32 -196 87 -111 103 -162 246 -163 458 -1 149 16 232 65
333 68 137 193 218 304 198 48 -10 107 -65 135 -129 22 -49 24 -65 27 -309 3
-234 -8 -502 -25 -602 -5 -31 -12 -41 -35 -50 -16 -6 -27 -17 -26 -24 2 -11
38 -14 183 -12 114 0 184 5 190 12 7 7 7 12 0 14 -86 34 -88 41 -93 359 -4
301 8 542 31 596 39 94 121 149 219 149 151 -1 236 -99 275 -320 21 -115 13
-325 -16 -435 -55 -206 -163 -334 -283 -335 -40 0 -57 -15 -39 -33 17 -17 139
7 217 43 98 44 208 158 262 270 50 105 69 176 82 307 18 179 -14 296 -110 397
-90 95 -221 148 -369 149 -91 0 -224 -23 -305 -54 l-48 -18 -52 29 c-50 28
-144 51 -195 49 -14 -1 -55 -5 -89 -10z"/>
<path d="M8860 1606 c0 -40 33 -48 245 -55 120 -4 189 -10 188 -16 -9 -57
-173 -683 -198 -760 -41 -124 -107 -260 -137 -279 -13 -8 -35 -18 -50 -21 -16
-4 -28 -13 -28 -21 0 -11 31 -14 163 -16 89 -1 177 -2 195 -1 31 0 112 47 112
64 0 5 -26 9 -58 9 -127 0 -146 67 -87 318 13 57 26 106 28 109 13 13 162 23
249 17 89 -6 97 -8 102 -29 9 -35 76 -416 76 -431 0 -7 -16 -16 -36 -20 -25
-5 -34 -11 -32 -23 2 -9 9 -16 16 -15 6 1 98 2 203 2 176 2 190 3 187 19 -3
15 -12 17 -50 15 -38 -3 -48 0 -57 15 -40 76 -201 884 -201 1012 l0 48 101 10
c69 7 106 15 117 27 27 27 4 36 -68 25 -36 -5 -204 -12 -375 -15 -305 -6 -385
-2 -572 32 -30 6 -33 4 -33 -20z m609 -85 c16 -29 92 -454 84 -461 -5 -4 -68
-17 -142 -29 -74 -13 -140 -25 -148 -28 -20 -8 -16 21 21 159 58 209 130 378
162 378 7 0 18 -9 23 -19z"/>
</g>
</svg>
