<?xml version="1.0" standalone="no"?>
<!DOCTYPE svg PUBLIC "-//W3C//DTD SVG 20010904//EN"
 "http://www.w3.org/TR/2001/REC-SVG-20010904/DTD/svg10.dtd">
<svg version="1.0" xmlns="http://www.w3.org/2000/svg" viewBox="0 0 1000.000000 264.000000"
 preserveAspectRatio="xMidYMid meet">

<g transform="translate(0.000000,264.000000) scale(0.100000,-0.100000)"
fill="currentColor" stroke="none">
<path d="M4299 2632 c-55 -9 -75 -24 -94 -69 -14 -32 -16 -33 -70 -33 -57 0
-57 0 -116 -62 -147 -154 -262 -386 -316 -638 -13 -64 -18 -129 -18 -260 l0
-175 47 -80 c26 -44 59 -92 73 -106 l27 -26 -33 -26 -33 -26 37 -98 c51 -132
119 -243 194 -313 112 -105 216 -140 417 -140 l131 0 131 56 132 55 51 -25
c51 -26 179 -61 188 -52 3 3 -7 34 -22 70 l-28 65 23 89 24 88 -28 210 c-15
115 -29 210 -31 212 -2 2 -29 -36 -60 -85 -109 -167 -205 -284 -285 -347 -69
-54 -101 -71 -109 -59 -3 6 -29 13 -58 16 -140 16 -244 133 -274 310 -12 70
-9 251 7 532 l6 110 -36 19 c-58 31 -59 37 -17 89 32 38 39 56 45 108 15 133
87 244 196 303 48 26 53 27 69 12 16 -15 19 -15 31 -1 19 23 49 18 108 -16 71
-40 158 -130 206 -212 21 -37 47 -69 57 -72 12 -4 19 -16 19 -33 0 -18 18 -49
53 -91 l52 -64 3 124 c2 76 -1 138 -9 160 -8 27 -8 42 0 57 7 13 11 90 11 208
l0 187 -37 -6 c-20 -4 -59 -20 -86 -37 l-50 -31 -71 36 c-39 20 -96 42 -126
51 -62 17 -261 26 -331 16z"/>
<path d="M8000 2633 c-44 -3 -69 -9 -77 -19 -10 -13 -15 -14 -40 -2 -22 10
-114 12 -453 8 l-425 -5 3 -25 c1 -14 -5 -31 -16 -40 -10 -8 -29 -40 -42 -70
-21 -50 -24 -76 -30 -270 -6 -169 -12 -236 -30 -313 -12 -54 -20 -100 -18
-103 3 -2 18 -1 34 2 26 5 35 18 92 148 34 79 62 157 62 174 0 20 10 44 28 64
15 18 48 68 72 111 l44 77 87 0 88 0 8 -57 c8 -61 9 -177 2 -254 -3 -34 2 -59
20 -98 23 -49 24 -55 13 -126 -7 -42 -18 -88 -26 -103 -10 -19 -17 -109 -24
-322 -11 -278 -10 -301 8 -405 15 -82 18 -117 10 -139 -5 -16 -10 -39 -10 -51
0 -27 -57 -81 -157 -149 -40 -27 -73 -55 -73 -61 0 -7 8 -19 18 -28 17 -15 55
-17 344 -17 280 0 327 2 332 15 7 19 30 19 46 0 9 -11 32 -15 80 -15 61 0 68
2 80 25 7 14 11 26 9 28 -2 1 -31 20 -64 41 -96 62 -136 97 -166 145 l-29 44
6 417 5 416 -27 13 -27 12 27 27 26 28 0 307 0 307 98 0 97 0 18 -45 c24 -58
116 -185 134 -185 11 0 14 -12 12 -48 -4 -66 83 -292 112 -292 18 0 19 11 19
272 0 244 -2 273 -17 291 -17 18 -17 19 1 32 16 12 18 25 14 89 -4 90 -17 110
-51 78 l-24 -22 -34 50 c-38 56 -20 52 -189 43z"/>
<path d="M8855 2630 c-2 -3 -6 -21 -10 -41 -6 -31 -4 -36 20 -47 14 -7 32 -12
40 -12 8 0 27 -14 44 -32 23 -24 27 -36 20 -49 -5 -10 -9 -28 -9 -42 0 -26
-317 -1347 -325 -1355 -3 -3 0 -11 6 -19 9 -10 8 -18 -4 -31 -8 -9 -25 -41
-36 -70 -47 -118 -141 -232 -255 -308 -33 -21 -61 -44 -63 -51 -7 -19 136 -27
243 -13 55 7 114 9 142 5 71 -11 276 -5 284 9 14 20 8 31 -33 61 -23 17 -55
47 -72 68 l-30 39 32 151 c17 84 39 184 49 222 l17 70 70 3 c38 2 75 8 81 13
8 7 14 7 19 -1 3 -5 41 -10 85 -10 l79 0 11 -56 c7 -31 19 -72 27 -92 8 -19
13 -49 10 -66 -2 -16 7 -68 19 -115 13 -47 24 -97 24 -110 0 -24 -86 -118
-140 -153 -46 -30 -14 -40 135 -40 120 0 139 2 147 17 9 15 12 15 32 -4 16
-15 44 -23 116 -31 52 -5 150 -17 218 -26 67 -9 129 -13 137 -10 39 15 -8 96
-56 96 -25 0 -29 4 -29 28 0 22 -14 41 -65 86 -58 51 -66 64 -84 124 -11 37
-25 92 -32 122 -6 30 -17 62 -25 70 -7 9 -11 26 -8 38 13 48 -15 147 -61 217
-61 94 -67 116 -62 247 3 77 0 134 -10 178 -8 36 -39 181 -69 324 -29 142 -58
264 -64 271 -6 7 -8 29 -4 51 4 30 -3 66 -30 151 l-37 111 -63 7 c-76 8 -427
12 -431 5z m264 -762 c6 -35 13 -82 17 -105 3 -23 15 -50 25 -59 14 -13 16
-20 7 -34 -11 -16 0 -115 18 -182 5 -15 -1 -18 -35 -18 -31 0 -41 -4 -41 -16
0 -11 -5 -14 -17 -9 -10 4 -35 9 -55 12 -34 5 -38 9 -38 34 0 54 88 439 100
439 4 0 13 -28 19 -62z"/>
<path d="M68 2598 c-3 -28 6 -43 58 -100 83 -91 94 -117 94 -221 0 -47 5 -98
11 -114 8 -21 8 -73 -1 -196 -11 -148 -11 -169 2 -185 13 -14 14 -28 7 -77 -6
-43 -4 -85 6 -149 9 -49 17 -91 19 -95 2 -3 -7 -67 -20 -141 -13 -74 -23 -144
-22 -155 0 -11 0 -98 0 -194 l-2 -174 -52 -49 c-131 -124 -168 -163 -168 -180
0 -16 9 -18 69 -18 52 0 70 4 75 15 7 19 35 19 42 0 9 -22 242 -22 285 1 28
14 32 14 48 0 14 -13 44 -16 159 -16 78 0 142 4 142 9 0 4 -38 49 -84 98 l-84
89 -17 89 c-9 49 -23 107 -31 129 -17 51 -18 78 -2 94 9 9 16 79 23 220 l10
207 65 3 c35 2 96 -4 135 -12 51 -12 81 -13 110 -6 22 5 51 10 65 10 l25 0 -3
-107 c-3 -79 1 -117 13 -148 14 -38 14 -45 0 -79 -13 -30 -16 -73 -14 -208 l2
-171 -43 -53 c-23 -29 -53 -60 -66 -69 -13 -8 -24 -22 -24 -30 0 -16 49 -39
118 -57 41 -10 45 -9 73 18 l29 28 28 -27 28 -27 200 0 c179 0 203 2 216 18
33 38 29 49 -38 108 -36 31 -70 69 -76 83 -16 43 -36 158 -52 311 -9 80 -18
159 -20 176 -4 26 0 34 20 43 l24 11 0 324 c0 312 -1 328 -23 398 l-23 73 23
34 c21 31 23 45 23 154 l0 121 101 96 c76 72 99 100 94 113 -7 16 -36 17 -390
17 -267 0 -386 -3 -391 -11 -3 -6 12 -30 35 -53 33 -33 48 -42 67 -38 22 4 24
1 24 -34 0 -24 7 -45 21 -60 19 -21 20 -32 19 -220 0 -170 2 -202 16 -222 15
-22 15 -26 -1 -61 -12 -28 -16 -58 -13 -110 3 -68 2 -72 -17 -67 -11 3 -75 11
-143 17 l-123 12 -33 -32 -32 -31 -45 16 -44 16 1 282 c1 329 -2 318 111 471
92 125 92 125 -92 125 -131 0 -132 0 -143 -25 l-12 -26 -37 26 c-33 22 -48 25
-121 25 -46 0 -92 -5 -103 -10 -13 -7 -19 -7 -19 0 0 6 -24 10 -54 10 -54 0
-55 0 -58 -32z"/>
<path d="M1970 2611 c0 -12 37 -54 101 -113 l100 -93 -1 -205 c-3 -314 -4
-304 27 -341 l27 -32 -21 -16 c-11 -9 -29 -21 -38 -26 -25 -15 -34 -141 -35
-460 0 -199 3 -255 14 -271 12 -17 12 -22 0 -39 -10 -13 -14 -50 -14 -125 l0
-106 -74 -75 c-79 -81 -110 -128 -99 -155 5 -14 17 -16 92 -10 47 3 176 9 286
12 110 4 208 11 217 15 9 5 19 5 22 0 8 -13 266 -21 293 -8 16 7 26 7 37 -2
23 -19 353 -15 382 4 33 22 37 90 19 400 -9 154 -15 303 -14 330 5 111 -1 187
-13 183 -48 -16 -170 -319 -146 -362 5 -9 8 -29 6 -43 -2 -23 -10 -29 -42 -35
-22 -5 -45 -13 -52 -18 -6 -6 -26 -52 -44 -103 -18 -51 -36 -96 -40 -100 -4
-5 -16 3 -28 17 l-20 26 -59 -31 c-63 -32 -123 -40 -195 -26 l-38 8 0 339 0
340 63 0 62 -1 120 -139 c66 -76 123 -139 127 -139 25 -3 14 140 -17 229 -19
54 -19 103 0 140 10 19 18 74 22 155 l6 125 -26 0 c-34 0 -130 -43 -176 -77
-30 -23 -45 -27 -108 -28 l-73 0 0 308 0 307 163 0 c188 0 175 6 242 -110 20
-36 43 -68 51 -73 7 -4 11 -13 8 -20 -3 -8 10 -38 28 -69 18 -30 60 -110 93
-177 38 -78 65 -121 74 -119 11 3 13 69 12 403 0 220 -1 406 -1 413 0 11 -45
13 -229 10 -222 -3 -230 -4 -261 -26 -29 -22 -34 -23 -83 -11 -29 7 -119 13
-202 13 -82 1 -157 6 -165 11 -8 6 -97 11 -197 13 -178 3 -183 3 -183 -17z"/>
<path d="M5779 2593 c-5 -14 -9 -69 -9 -122 1 -92 -2 -107 -79 -366 -79 -268
-79 -270 -60 -291 19 -20 19 -21 -3 -31 -20 -9 -30 -39 -78 -231 l-54 -221 23
-32 c19 -26 21 -33 10 -40 -44 -25 -51 -38 -70 -130 -11 -51 -26 -141 -35
-199 -8 -58 -23 -139 -34 -180 -11 -41 -33 -176 -50 -300 -16 -124 -34 -249
-40 -279 -5 -29 -10 -79 -10 -110 1 -53 2 -55 16 -36 9 11 45 77 80 147 45 90
64 139 64 166 0 27 8 48 30 74 39 47 60 107 60 170 0 33 5 50 15 54 8 3 17 14
20 23 3 10 13 26 23 37 10 10 25 46 33 79 18 68 106 358 120 393 7 17 17 22
44 22 24 0 38 5 42 16 5 14 9 13 24 -7 l17 -23 113 17 c120 19 129 17 129 -29
0 -41 39 -168 61 -197 21 -28 21 -31 4 -43 -14 -11 -15 -18 -6 -46 5 -18 13
-55 16 -83 7 -50 6 -50 -49 -112 -31 -34 -72 -71 -91 -83 -70 -43 -54 -46 236
-42 190 3 285 8 317 17 38 12 49 12 71 0 15 -7 49 -16 76 -20 28 -3 60 -8 72
-11 12 -2 29 3 38 12 15 15 14 19 -12 46 -15 17 -63 60 -106 96 -100 84 -106
100 -167 392 -33 156 -51 216 -85 283 -17 32 -25 63 -25 97 0 42 -5 55 -25 74
-22 20 -23 25 -9 30 24 9 15 70 -44 301 -41 160 -172 725 -172 741 0 13 -86 1
-103 -13 -18 -17 -19 -17 -28 0 -9 15 -28 17 -155 17 l-144 0 -11 -27z m225
-878 c20 -110 38 -210 41 -221 6 -27 -40 -63 -58 -45 -6 6 -42 11 -79 11 -64
0 -68 1 -68 23 0 19 91 394 106 436 11 31 23 -12 58 -204z"/>
</g>
</svg>
