<?xml version="1.0" standalone="no"?>
<!DOCTYPE svg PUBLIC "-//W3C//DTD SVG 20010904//EN"
 "http://www.w3.org/TR/2001/REC-SVG-20010904/DTD/svg10.dtd">
<svg version="1.0" xmlns="http://www.w3.org/2000/svg" viewBox="0 0 600.000000 1233.000000"
 preserveAspectRatio="xMidYMid meet">

<g transform="translate(0.000000,1233.000000) scale(0.100000,-0.100000)"
fill="currentColor" stroke="none">
<path d="M2765 12320 c-634 -71 -1168 -334 -1646 -810 -617 -615 -989 -1433
-1095 -2405 -21 -194 -24 -669 -5 -850 88 -852 354 -1544 827 -2155 106 -137
381 -417 514 -523 91 -72 305 -220 332 -230 8 -2 -1 -19 -27 -48 -140 -153
-169 -357 -78 -546 58 -119 195 -224 331 -252 92 -19 135 -16 277 24 17 5 28
-10 75 -99 30 -57 53 -106 50 -108 -3 -2 -38 -19 -77 -38 -40 -18 -73 -35 -73
-37 0 -16 42 -77 93 -136 108 -125 134 -160 175 -237 49 -91 86 -207 114 -355
20 -103 21 -150 24 -695 1 -322 -1 -621 -6 -666 -8 -87 -36 -154 -96 -232
-115 -151 -214 -447 -214 -643 0 -189 35 -257 336 -649 178 -232 280 -385 346
-518 l51 -103 49 98 c68 134 174 294 343 513 311 404 345 468 345 654 0 201
-98 496 -217 651 -19 25 -46 71 -61 103 l-27 57 -3 545 c-3 570 3 722 39 906
43 227 120 381 264 534 56 60 115 138 115 154 0 7 -34 30 -76 50 l-75 36 42
78 c24 42 50 90 58 105 12 20 21 26 36 22 147 -41 204 -45 300 -20 88 23 142
53 210 117 198 185 205 496 15 683 l-48 48 122 81 c615 411 1088 1057 1351
1849 263 790 293 1662 84 2482 -139 547 -390 1060 -725 1480 -113 142 -360
389 -494 495 -398 316 -816 502 -1295 576 -118 18 -466 26 -580 14z m445 -430
c41 -5 105 -15 143 -21 l67 -11 0 -277 c0 -276 12 -541 30 -658 12 -70 102
-332 201 -578 37 -93 67 -170 66 -171 -10 -10 -454 413 -630 601 -339 362
-784 903 -802 976 -6 25 -4 26 97 57 131 40 220 60 344 76 117 16 378 19 484
6z m500 -117 c215 -78 479 -228 665 -378 375 -301 696 -733 906 -1220 46 -107
158 -429 172 -495 6 -25 4 -25 -149 -62 -147 -36 -162 -42 -274 -109 l-119
-71 -375 195 c-278 145 -403 216 -480 273 l-105 77 -67 151 c-88 199 -183 443
-249 636 -66 194 -73 262 -82 724 l-6 328 34 -7 c19 -4 77 -23 129 -42z
m-1547 -85 c28 -65 304 -419 537 -687 389 -448 824 -864 1193 -1141 32 -24 54
-47 50 -51 -9 -9 -678 -299 -1493 -649 l-555 -238 -155 -21 c-296 -39 -1280
-145 -1287 -138 -6 7 16 322 32 445 129 1004 630 1876 1345 2340 81 53 297
171 312 172 4 0 14 -15 21 -32z m3339 -2203 c18 -69 59 -341 73 -484 17 -179
20 -574 5 -741 -50 -544 -209 -1072 -455 -1505 -41 -71 -92 -156 -113 -188
l-39 -58 -274 296 c-246 266 -275 301 -281 338 -3 23 -21 305 -39 627 l-32
585 102 184 c189 339 341 580 440 699 39 47 78 77 178 138 114 69 141 81 253
110 152 40 171 40 182 -1z m-1407 -45 c98 -9 238 -29 318 -46 25 -5 28 -9 22
-32 -3 -15 -33 -81 -65 -147 -275 -567 -759 -905 -1345 -940 -225 -14 -486 35
-687 127 l-67 30 44 87 c86 173 246 381 382 498 52 45 85 62 249 127 104 41
311 122 459 181 149 59 288 110 310 115 58 11 253 12 380 0z m-2495 -737 c-25
-26 -227 -232 -450 -458 -223 -225 -440 -452 -483 -503 -45 -54 -79 -88 -82
-80 -12 34 -56 236 -74 343 -25 144 -49 383 -53 520 l-3 100 485 51 c267 29
519 56 560 62 41 5 91 10 110 11 l34 1 -44 -47z m95 -207 c24 -10 903 -787
1054 -932 l24 -23 -90 -138 c-296 -456 -607 -1048 -834 -1591 l-9 -24 -53 38
c-492 355 -888 904 -1110 1539 l-45 129 106 125 c58 69 280 301 491 514 420
422 386 396 466 363z m2525 -245 c0 -16 14 -265 31 -553 42 -716 36 -920 -42
-1313 -35 -178 -60 -272 -142 -544 l-61 -204 -83 -38 c-272 -126 -562 -189
-868 -189 -347 0 -642 72 -967 237 -71 35 -128 69 -128 75 0 22 148 354 264
593 298 611 647 1175 934 1509 l59 70 494 192 c272 106 497 193 502 193 4 1 7
-12 7 -28z m435 -1593 c127 -138 231 -254 233 -258 10 -27 -302 -358 -451
-479 -88 -72 -248 -183 -254 -177 -3 2 7 39 20 83 105 331 177 688 202 1001 4
45 10 82 14 81 3 0 110 -113 236 -251z"/>
</g>
</svg>
