<?xml version="1.0" standalone="no"?>
<!DOCTYPE svg PUBLIC "-//W3C//DTD SVG 20010904//EN"
 "http://www.w3.org/TR/2001/REC-SVG-20010904/DTD/svg10.dtd">
<svg version="1.0" xmlns="http://www.w3.org/2000/svg"
  viewBox="0 0 1000.000000 509.000000"
 preserveAspectRatio="xMidYMid meet" fill='currentColor'>

<g transform="translate(0.000000,509.000000) scale(0.100000,-0.100000)" stroke="none">
<path d="M1803 5028 c-24 -91 -128 -186 -220 -202 -56 -9 -716 -6 -801 3 -44
5 -94 19 -128 36 -55 27 -56 27 -74 9 -9 -11 -102 -122 -206 -249 -336 -408
-330 -399 -360 -515 -29 -112 -7 -248 49 -308 62 -67 172 -84 277 -42 44 17
200 106 200 113 0 1 -31 2 -68 3 -126 1 -223 69 -285 202 -53 114 -45 204 25
269 56 53 61 53 580 53 l483 1 251 224 c239 212 253 226 273 281 15 39 21 74
19 113 l-3 55 -12 -46z"/>
<path d="M1475 4423 c-247 -217 -465 -407 -484 -423 l-34 -28 20 -29 c37 -52
46 -102 47 -263 l1 -155 -195 -5 c-189 -5 -197 -6 -252 -33 -64 -32 -94 -66
-115 -135 -14 -47 -31 -232 -21 -232 3 0 32 12 64 28 58 27 62 27 292 30 l232
3 0 -59 0 -60 -192 -5 c-217 -5 -247 -11 -314 -70 -54 -47 -72 -102 -81 -241
l-6 -100 34 22 c68 42 139 52 357 52 l204 0 -4 -412 c-4 -393 -5 -416 -26
-480 -13 -37 -27 -70 -32 -73 -6 -3 -10 -11 -10 -16 0 -14 73 25 170 92 147
100 296 263 353 385 21 47 22 63 27 384 l5 335 63 3 62 3 0 -669 0 -669 -67
18 c-179 50 -511 63 -678 26 -393 -87 -721 -327 -797 -582 -47 -160 -16 -357
85 -529 45 -78 140 -182 156 -172 20 13 11 38 -33 89 -99 117 -151 253 -144
373 12 179 143 321 367 396 96 33 97 33 296 32 186 0 207 -2 300 -28 186 -51
340 -124 478 -227 l66 -50 90 30 c245 82 392 191 608 453 163 196 219 286 261
418 42 131 44 170 37 677 l-8 483 -341 3 c-212 1 -332 6 -317 11 182 68 490
279 580 399 69 91 71 102 71 446 0 296 -1 308 -24 373 -66 188 -225 327 -586
516 l-115 60 -450 -395z m165 -713 l0 -691 -62 3 -63 3 0 648 0 648 42 40 c23
21 51 39 63 39 20 0 20 -2 20 -690z m260 520 c170 -121 208 -157 229 -219 18
-54 15 -502 -4 -576 -29 -114 -128 -275 -212 -344 -39 -32 -99 -56 -170 -67
l-43 -7 0 673 c0 596 2 671 15 666 8 -3 91 -60 185 -126z m177 -1313 c18 -10
37 -26 43 -38 8 -14 10 -224 7 -712 -4 -669 -9 -773 -36 -800 -4 -4 -41 17
-82 48 -41 31 -127 82 -191 113 l-118 57 0 671 c0 369 3 674 8 678 4 5 81 6
172 4 131 -3 172 -8 197 -21z"/>
<path d="M8295 4340 c-93 -93 -167 -171 -164 -174 3 -3 59 -26 124 -51 66 -26
130 -55 142 -67 11 -11 26 -39 32 -63 8 -30 11 -290 11 -823 l0 -779 -37 -25
c-21 -14 -55 -31 -77 -38 l-38 -12 51 -45 c99 -86 96 -70 99 -527 l3 -398 -38
7 c-102 19 -304 128 -335 181 -34 58 -38 156 -38 932 0 744 -1 764 -21 825
-49 147 -161 281 -285 339 -89 41 -167 46 -402 23 l-184 -19 -46 -54 c-59 -68
-238 -231 -297 -270 l-45 -30 71 -42 c144 -85 182 -151 161 -282 -20 -131
-114 -269 -194 -285 -49 -10 -40 -20 28 -33 121 -23 234 1 302 64 13 11 36 44
50 71 23 43 27 62 27 135 0 70 -4 93 -24 129 -28 54 -112 139 -177 180 -26 17
-41 31 -33 31 7 0 86 9 174 20 279 35 348 27 426 -50 60 -58 69 -99 69 -320
l0 -170 -64 24 c-65 25 -139 67 -151 86 -3 5 -22 -11 -42 -38 -161 -215 -463
-417 -722 -483 l-45 -11 45 -28 c57 -35 97 -82 104 -123 3 -18 5 -198 3 -402
-3 -366 -3 -371 -27 -429 -14 -32 -39 -74 -57 -93 l-33 -35 37 -15 c20 -8 81
-35 134 -59 221 -99 306 -110 424 -55 80 38 168 95 246 162 31 27 59 49 62 49
3 0 71 -37 152 -81 199 -110 288 -142 376 -136 54 3 79 11 124 38 53 32 224
199 224 220 0 5 5 9 11 9 8 0 10 -52 7 -177 -4 -199 -13 -232 -83 -317 l-35
-43 67 -30 c135 -61 231 -86 328 -87 129 -1 159 15 320 178 l130 131 -75 7
c-123 11 -195 53 -225 131 -14 38 -15 147 -13 1059 3 1015 3 1017 24 1045 30
40 69 41 146 2 101 -50 193 -107 219 -135 l24 -26 3 -831 c3 -929 5 -891 -68
-982 -47 -59 -48 -57 68 -105 116 -49 223 -73 306 -68 109 5 151 30 294 175
67 68 122 128 122 133 0 4 -33 10 -72 12 -88 4 -157 34 -196 86 l-27 35 0 887
0 886 28 43 c16 24 27 44 25 46 -2 2 -130 64 -285 138 l-283 135 -52 -61
c-126 -151 -210 -223 -241 -211 -32 12 -37 64 -37 420 0 373 5 429 45 488 l23
34 -218 96 c-120 53 -222 96 -227 96 -4 0 -84 -76 -178 -170z m-878 -1941 c87
-39 168 -82 181 -96 l22 -24 0 -402 c0 -234 -4 -417 -10 -438 -5 -19 -23 -48
-40 -64 -30 -28 -31 -29 -78 -16 -78 20 -190 79 -237 125 l-45 43 0 459 c0
467 1 484 36 484 7 0 84 -32 171 -71z"/>
<path d="M3667 3516 l-129 -144 -31 13 c-18 7 -120 52 -227 99 l-194 87 -175
-175 -175 -175 30 -11 c248 -92 269 -106 284 -189 6 -29 10 -183 10 -341 0
-328 6 -306 -99 -353 l-53 -23 46 -38 c25 -20 58 -58 73 -84 l28 -47 0 -405 0
-405 -26 -55 c-14 -31 -40 -72 -58 -92 -17 -20 -31 -38 -31 -41 0 -18 246
-101 347 -117 134 -22 241 33 394 202 46 51 87 95 92 96 16 8 6 20 -12 15 -11
-3 -51 0 -90 7 -87 15 -152 54 -181 109 -20 40 -20 53 -20 894 0 849 0 854 21
881 17 21 29 26 65 26 38 0 70 -15 227 -104 172 -99 182 -104 188 -83 12 43
43 93 150 245 60 84 109 154 109 156 0 2 -21 11 -47 21 -27 10 -122 53 -212
96 -90 44 -167 79 -170 79 -3 -1 -64 -65 -134 -144z"/>
<path d="M4995 3440 c-93 -93 -167 -172 -164 -174 3 -3 54 -24 115 -47 136
-51 160 -65 179 -105 22 -46 23 -1676 1 -1728 -18 -42 -56 -53 -129 -36 -130
31 -240 116 -273 211 -18 51 -19 92 -16 874 3 806 8 939 39 1021 3 11 -18 -4
-48 -32 -30 -27 -83 -70 -118 -93 -75 -51 -281 -151 -364 -177 l-57 -18 49
-43 c80 -70 81 -71 88 -412 l6 -299 -47 -31 c-27 -16 -61 -33 -77 -36 l-29 -6
64 -62 c46 -44 67 -74 75 -102 14 -51 15 -577 1 -626 -6 -20 -18 -43 -28 -52
-15 -14 -21 -13 -62 6 -58 27 -155 127 -200 206 -19 33 -39 61 -44 61 -19 0 4
-95 43 -177 82 -170 186 -305 285 -368 111 -71 414 -182 521 -191 57 -5 66 -3
160 44 55 27 152 81 217 120 127 78 332 186 416 220 l53 21 -30 38 c-62 78
-62 72 -59 1010 3 888 3 886 46 936 8 9 12 20 9 23 -9 10 -430 194 -442 194
-6 0 -86 -76 -180 -170z"/>
<path d="M5875 3440 c-93 -93 -167 -171 -164 -174 3 -3 59 -26 124 -51 66 -26
128 -54 139 -63 43 -39 46 -64 46 -427 l0 -345 -46 -30 c-25 -16 -59 -32 -74
-35 l-28 -6 63 -62 c44 -43 66 -74 74 -102 7 -27 11 -294 11 -832 l0 -791 -25
-31 c-50 -59 -233 -105 -393 -99 -84 3 -105 7 -157 33 -75 38 -168 128 -197
191 -30 68 -31 183 -2 239 52 102 225 114 417 28 58 -26 87 -23 64 8 -23 30
-150 120 -216 153 -76 38 -113 48 -181 48 -165 -2 -256 -165 -204 -365 36
-141 103 -236 296 -422 147 -142 264 -234 348 -274 81 -38 230 -36 430 7 80
17 174 36 210 42 36 6 77 13 92 16 l27 5 -34 47 c-18 26 -39 68 -45 92 -8 32
-10 478 -8 1565 l3 1520 27 46 27 47 -218 96 c-120 53 -223 96 -228 96 -4 0
-84 -76 -178 -170z"/>
</g>
</svg>
