<?xml version="1.0" standalone="no"?>
<!DOCTYPE svg PUBLIC "-//W3C//DTD SVG 20010904//EN"
 "http://www.w3.org/TR/2001/REC-SVG-20010904/DTD/svg10.dtd">
<svg version="1.0" xmlns="http://www.w3.org/2000/svg" viewBox="0 0 1000.000000 1059.000000"
 preserveAspectRatio="xMidYMid meet">

<g transform="translate(0.000000,1059.000000) scale(0.100000,-0.100000)"
fill="currentColor" stroke="none">
<path d="M5200 10495 c-97 -114 -283 -291 -412 -392 -259 -203 -535 -338 -795
-390 -124 -24 -313 -22 -415 5 -156 42 -314 132 -426 243 l-64 63 7 -39 c13
-69 73 -243 101 -291 15 -25 41 -61 59 -80 37 -39 38 -39 -78 -19 -165 29
-270 72 -454 183 -46 28 -83 46 -83 40 0 -24 32 -130 56 -184 36 -83 124 -213
194 -286 33 -34 58 -63 57 -64 -8 -5 -328 -65 -402 -75 -115 -15 -242 -7 -325
21 -36 12 -112 45 -170 73 -58 28 -109 53 -114 55 -14 7 -1 -66 24 -130 29
-79 77 -145 138 -193 28 -22 51 -43 51 -47 2 -18 -70 -96 -114 -123 -48 -30
-51 -30 -183 -30 l-135 1 44 -39 c192 -170 283 -220 500 -274 l144 -36 86 -91
c111 -117 219 -181 357 -211 l33 -7 -30 49 c-112 183 -147 361 -81 415 53 43
215 4 402 -96 89 -48 398 -164 398 -150 0 3 -9 22 -20 44 -11 21 -31 73 -45
115 -25 74 -25 78 -11 129 29 98 96 145 260 183 99 23 470 28 656 9 532 -56
1064 -202 1728 -473 8 -3 2 18 -14 53 -15 33 -59 133 -99 224 -40 91 -81 183
-92 205 -29 56 -122 184 -209 286 -41 48 -74 91 -74 95 0 4 39 4 88 1 83 -5
186 -35 315 -91 20 -9 37 -13 37 -9 0 14 -70 124 -118 187 -74 97 -216 233
-305 290 -45 30 -139 84 -210 121 l-127 67 54 39 c105 76 173 222 195 422 4
37 5 67 2 66 -3 0 -37 -39 -76 -85 -38 -47 -87 -99 -108 -116 -51 -41 -142
-77 -194 -78 l-42 0 39 78 c22 42 46 104 55 137 15 59 33 285 23 285 -3 0 -38
-38 -78 -85z m-595 -1035 c98 -15 255 -53 255 -60 0 -4 -39 -10 -87 -14 -108
-8 -237 -26 -249 -34 -5 -4 -22 -33 -38 -66 -34 -66 -95 -117 -164 -137 -91
-25 -324 5 -476 61 -55 21 -57 23 -41 40 30 34 162 120 238 156 40 19 105 41
143 48 81 17 333 20 419 6z"/>
<path d="M5695 9758 c146 -97 204 -143 303 -241 100 -97 155 -172 212 -287 36
-72 110 -249 110 -264 0 -3 -42 15 -92 39 -86 41 -308 125 -329 125 -5 0 23
-39 63 -87 104 -127 182 -251 218 -345 17 -46 57 -141 87 -213 l56 -130 176
-87 c255 -125 486 -274 718 -465 708 -580 1167 -1339 1348 -2227 101 -495 119
-1034 50 -1440 -122 -714 -494 -1400 -1062 -1956 -629 -617 -1399 -981 -2298
-1086 -183 -22 -706 -25 -885 -6 -541 59 -942 169 -1365 377 -365 179 -642
375 -939 665 -357 349 -612 702 -851 1180 -152 303 -281 642 -350 923 -98 401
-70 606 124 897 80 119 78 114 50 99 -13 -7 -52 -30 -86 -51 -74 -44 -218
-118 -233 -118 -13 0 -13 241 1 368 64 593 381 1219 867 1710 705 712 1671
1081 2696 1032 720 -36 1403 -248 1927 -601 596 -400 1040 -1040 1195 -1719
34 -149 36 -143 -33 -118 -69 24 -177 33 -253 21 l-55 -8 48 -28 c172 -101
298 -275 359 -497 21 -79 23 -104 23 -345 0 -272 -6 -340 -52 -560 -157 -757
-662 -1347 -1433 -1673 -459 -194 -1010 -288 -1538 -262 -211 11 -306 22 -496
57 -90 18 -132 29 -119 34 42 15 514 32 737 26 l228 -7 -7 38 c-26 134 -32
310 -15 403 21 109 84 212 176 290 83 69 175 107 349 144 l30 7 -48 25 c-78
39 -276 102 -347 109 -117 11 -330 -36 -550 -123 -63 -25 -239 -105 -390 -178
-294 -142 -419 -193 -558 -227 -73 -19 -117 -22 -277 -22 -214 -1 -283 12
-419 80 -193 96 -394 311 -573 611 -36 62 -68 113 -69 113 -2 0 0 -17 3 -37
74 -519 333 -1073 731 -1563 121 -149 389 -412 497 -489 313 -220 637 -348
1050 -413 235 -37 795 -31 951 11 22 6 11 14 -98 68 -261 130 -293 165 -424
462 l-50 116 -140 6 c-206 9 -421 67 -559 151 -54 33 -216 150 -212 154 1 1
74 -19 162 -46 324 -98 551 -133 860 -133 480 0 950 113 1410 338 323 158 506
298 915 700 332 327 400 378 610 456 l75 28 -76 1 c-100 0 -137 14 -155 56
-31 74 -18 136 66 334 177 414 255 818 254 1305 0 297 -12 406 -71 636 -54
211 -51 348 12 624 l7 30 -22 -35 c-50 -77 -113 -151 -127 -148 -9 2 -37 55
-67 123 -182 424 -437 797 -770 1130 -489 488 -1083 813 -1826 1000 -404 102
-878 151 -1217 127 -201 -15 -253 -25 -283 -57 -39 -42 -37 -102 8 -247 l39
-128 -36 0 c-54 0 -223 27 -289 46 -31 9 -129 47 -217 84 -232 99 -278 107
-291 55 -7 -27 28 -154 79 -292 19 -51 31 -93 27 -93 -28 0 -253 43 -292 56
-64 21 -149 82 -245 176 l-81 81 -115 -55 c-526 -254 -1064 -682 -1430 -1138
-366 -457 -603 -962 -717 -1530 -43 -213 -61 -386 -67 -645 -6 -256 5 -441 42
-721 197 -1459 846 -2627 1890 -3404 693 -517 1507 -830 2395 -922 175 -18
675 -15 920 6 1178 100 2176 493 3010 1185 253 210 572 547 772 814 526 705
845 1485 945 2307 24 196 23 740 -1 1019 -123 1433 -669 2534 -1657 3341 -715
584 -1702 1001 -2684 1135 l-50 7 110 -74z"/>
<path d="M3907 8082 c-26 -5 -64 -28 -121 -75 -81 -67 -84 -70 -79 -105 4 -28
-1 -44 -18 -66 -74 -93 -282 -70 -486 54 -47 29 -86 50 -88 48 -8 -9 30 -120
67 -190 52 -100 151 -205 226 -239 l52 -24 0 -56 c0 -75 17 -164 42 -217 21
-44 148 -186 199 -223 l28 -20 -16 38 c-26 60 -23 183 7 273 83 256 412 538
826 709 134 56 138 51 -66 77 -133 16 -509 27 -573 16z"/>
</g>
</svg>
