<?xml version="1.0" standalone="no"?>
<!DOCTYPE svg PUBLIC "-//W3C//DTD SVG 20010904//EN"
 "http://www.w3.org/TR/2001/REC-SVG-20010904/DTD/svg10.dtd">
<svg version="1.0" xmlns="http://www.w3.org/2000/svg" viewBox="0 0 621.000000 500.000000"
 preserveAspectRatio="xMidYMid meet">

<g transform="translate(0.000000,500.000000) scale(0.100000,-0.100000)"
fill="currentColor" stroke="none">
<path d="M2178 4792 l-528 -207 0 -602 0 -603 675 0 675 0 0 -90 c0 -104 -5
-100 110 -75 36 7 66 12 68 10 2 -2 -37 -50 -87 -108 l-91 -104 0 -617 0 -616
174 0 174 0 4 -66 c1 -36 1 -68 -1 -70 -2 -2 -114 -4 -248 -4 l-243 0 0 581 0
582 -47 -6 c-216 -26 -765 -79 -770 -74 -4 5 -80 466 -83 505 0 1 -70 2 -155
2 l-155 0 0 -1058 0 -1059 598 -553 597 -553 3 551 2 552 250 0 250 0 0 -551
c0 -352 4 -549 10 -547 5 2 284 252 620 557 l610 553 0 1054 0 1054 -168 0
-169 0 -38 -255 c-37 -243 -39 -255 -60 -255 -12 0 -192 18 -400 40 -208 22
-382 40 -387 40 -4 0 -8 131 -8 290 l0 290 609 0 c336 0 611 3 613 8 2 4 2
273 0 597 l-3 590 -547 213 -547 212 -390 -1 -390 -1 -527 -206z"/>
<path d="M1365 4471 c-22 -10 -338 -134 -703 -276 l-662 -259 6 -165 c4 -91
10 -170 14 -174 4 -4 27 -3 51 2 24 5 45 9 46 7 1 -1 -20 -29 -47 -63 l-50
-60 35 -779 c20 -428 37 -780 39 -781 2 -2 68 5 147 15 79 11 147 17 151 13 3
-3 13 -61 22 -129 8 -68 18 -127 21 -131 2 -5 50 -21 105 -36 l100 -28 -7 -41
c-3 -23 -7 -42 -8 -44 -2 -2 -42 2 -89 9 -47 7 -88 10 -90 8 -3 -2 -6 -40 -7
-84 l-2 -79 64 -43 c35 -24 64 -47 64 -51 -1 -4 -4 -70 -9 -147 l-8 -139 68
-213 c38 -117 71 -213 74 -213 3 0 165 94 360 208 l355 209 3 1091 c2 1035 1
1092 -15 1092 -54 -1 -537 -80 -542 -89 -4 -6 -15 -68 -25 -138 -9 -70 -19
-129 -20 -131 -2 -1 -61 -21 -131 -42 -70 -21 -129 -40 -131 -42 -1 -2 60
-196 137 -432 76 -236 139 -432 139 -437 0 -4 -66 23 -147 60 l-148 68 -132
544 c-72 299 -128 547 -125 550 4 3 262 57 575 120 l567 114 0 577 c0 318 -1
578 -2 577 -2 0 -21 -8 -43 -18z"/>
<path d="M4820 3903 l0 -568 568 -114 c312 -62 571 -117 575 -121 9 -8 -249
-1093 -261 -1098 -4 -1 -70 -31 -147 -66 -77 -35 -141 -63 -142 -62 -1 1 61
197 138 435 102 314 137 436 129 441 -7 4 -62 22 -124 40 -61 18 -116 38 -122
44 -6 6 -19 71 -29 143 l-18 133 -31 5 c-81 14 -502 75 -518 75 -17 0 -18 -19
-18 -296 l0 -296 53 6 c28 4 91 15 140 25 48 9 86 14 85 10 -2 -5 -65 -80
-140 -168 l-138 -161 0 -649 0 -649 344 -211 c190 -116 348 -211 353 -211 5 0
40 96 77 214 l69 213 -7 129 c-4 71 -9 136 -12 145 -3 11 17 30 63 61 l68 45
-3 83 -4 83 -56 -7 c-31 -4 -74 -9 -94 -13 -38 -6 -38 -5 -39 31 -1 20 -2 41
-3 48 -1 6 41 23 96 37 53 14 99 29 102 32 4 3 13 62 22 130 9 68 19 127 22
130 4 4 72 -2 151 -13 79 -10 145 -17 147 -15 4 4 95 2009 92 2013 -6 5 -1371
534 -1379 534 -5 0 -9 -242 -9 -567z"/>
</g>
</svg>
