<?xml version="1.0" standalone="no"?>
<!DOCTYPE svg PUBLIC "-//W3C//DTD SVG 20010904//EN"
 "http://www.w3.org/TR/2001/REC-SVG-20010904/DTD/svg10.dtd">
<svg version="1.0" xmlns="http://www.w3.org/2000/svg" viewBox="0 0 652.000000 600.000000"
 preserveAspectRatio="xMidYMid meet">

<g transform="translate(0.000000,600.000000) scale(0.100000,-0.100000)"
fill="currentColor" stroke="none">
<path d="M18 5968 c79 -131 522 -890 522 -895 0 -4 18 -37 40 -74 45 -76 217
-249 1515 -1519 440 -431 800 -788 800 -795 0 -21 -333 -321 -373 -336 -13 -5
-46 -9 -73 -9 -27 0 -64 -6 -82 -14 -18 -8 -94 -74 -171 -148 l-138 -133 -8
-76 c-6 -60 -13 -84 -34 -111 -28 -38 -539 -529 -749 -722 -133 -122 -134
-122 -191 -100 -11 4 -39 -16 -89 -66 -94 -94 -144 -117 -278 -130 -57 -5
-116 -15 -132 -21 -28 -12 -32 -20 -42 -102 -6 -43 -16 -59 -97 -150 -49 -56
-99 -120 -110 -141 -19 -38 -20 -42 -4 -120 24 -123 22 -145 -25 -215 -45 -67
-48 -105 -6 -79 113 72 129 75 243 47 57 -14 103 -20 125 -15 30 5 96 51 233
160 30 23 50 30 108 36 77 7 94 19 102 74 3 17 10 65 16 106 17 114 39 154
137 246 l86 82 -12 33 -12 34 163 160 c229 224 690 646 745 682 14 10 53 17
99 19 63 3 80 7 105 29 73 61 269 249 274 264 4 9 11 44 15 78 4 34 18 78 29
97 12 19 96 105 187 192 l165 157 77 -74 c86 -83 439 -428 783 -767 l227 -222
-39 -43 c-22 -23 -39 -50 -39 -59 0 -17 192 -202 233 -225 51 -28 148 -12 259
42 l67 33 52 -25 c43 -22 55 -34 75 -77 29 -64 64 -98 127 -125 31 -13 54 -31
65 -52 34 -63 74 -111 104 -127 52 -28 106 -82 118 -116 14 -43 34 -60 95 -80
84 -27 83 -25 46 -106 -61 -132 -42 -237 61 -346 128 -136 258 -156 412 -63
l67 40 35 -30 c44 -39 74 -39 119 0 47 41 48 84 4 134 -29 33 -30 37 -16 53 9
9 29 46 46 82 43 91 43 172 1 257 -37 74 -111 146 -186 180 -76 35 -173 30
-254 -13 -30 -16 -58 -30 -62 -32 -4 -2 -17 18 -29 45 -12 26 -26 59 -33 73
-6 14 -31 35 -55 47 -57 29 -76 47 -120 113 -28 43 -50 62 -99 88 -54 29 -66
41 -91 90 -33 65 -61 93 -111 112 -46 17 -78 46 -102 94 l-20 38 38 82 c49
106 58 206 25 260 -29 46 -209 216 -229 216 -9 0 -35 -18 -57 -40 l-41 -40
-527 517 c-290 284 -526 519 -525 524 2 4 35 34 75 67 70 59 124 82 196 82 44
1 104 41 210 142 115 109 126 129 127 224 0 50 40 108 111 160 50 36 51 37
124 31 89 -6 114 7 141 78 17 45 17 45 66 45 59 0 148 30 194 65 54 41 66 74
58 158 -5 56 -3 75 7 84 33 26 128 44 257 48 l133 4 82 72 c272 237 449 295
561 186 24 -23 45 -49 48 -57 3 -10 30 5 100 56 78 58 111 75 177 94 44 13 81
29 81 35 0 6 7 36 16 65 13 43 30 69 85 125 l69 71 -34 70 c-37 77 -139 218
-188 259 -17 14 -68 45 -112 67 -94 47 -116 64 -116 90 0 19 85 118 101 118 5
0 27 -27 51 -60 24 -34 49 -60 59 -60 10 0 34 20 54 44 20 25 61 63 91 86 30
22 54 47 54 55 0 7 -25 35 -55 60 -30 26 -55 51 -55 56 0 4 25 25 55 46 29 21
57 45 60 53 4 10 -12 32 -48 65 -29 28 -70 71 -91 98 -21 26 -41 47 -46 47 -9
0 -37 -29 -92 -94 l-25 -29 -43 61 c-25 35 -51 62 -61 62 -10 0 -46 -30 -81
-66 -34 -36 -75 -73 -90 -82 -16 -9 -28 -23 -28 -32 0 -8 26 -38 57 -66 53
-47 56 -53 43 -69 -19 -24 -100 -75 -117 -75 -7 0 -36 48 -65 108 -42 88 -63
119 -117 172 -71 71 -173 147 -232 175 l-37 18 -71 -61 c-66 -58 -114 -80
-195 -94 -13 -2 -26 -25 -46 -81 -15 -42 -34 -85 -42 -95 -8 -9 -41 -49 -75
-87 l-61 -71 39 -32 c52 -44 70 -83 70 -145 0 -114 -71 -234 -252 -422 l-86
-90 -7 -105 c-7 -120 -18 -173 -47 -235 -25 -53 -44 -61 -110 -45 -27 7 -62 9
-77 5 -75 -18 -140 -117 -151 -228 l-6 -61 -44 -13 c-25 -7 -55 -23 -68 -35
-20 -19 -23 -31 -23 -99 0 -72 -2 -80 -32 -120 -18 -23 -55 -57 -82 -76 -41
-28 -57 -33 -107 -33 -33 0 -74 -6 -92 -13 -38 -16 -242 -208 -262 -246 -7
-15 -18 -51 -23 -81 -15 -81 -25 -98 -101 -179 l-69 -75 -703 690 c-387 379
-897 878 -1133 1109 -235 231 -449 435 -475 453 -25 19 -84 53 -131 77 -47 24
-278 152 -514 284 -236 133 -431 241 -434 241 -2 0 5 -15 16 -32z m5499 -369
c42 -26 106 -99 128 -146 36 -75 29 -159 -17 -218 -47 -60 -156 -86 -211 -50
-23 15 -27 24 -27 63 0 62 -20 82 -81 82 -41 0 -51 4 -65 25 -21 32 -15 89 16
148 60 117 162 155 257 96z m399 -298 c19 -27 10 -41 -27 -41 -37 0 -57 35
-40 69 11 19 14 20 32 7 12 -8 27 -24 35 -35z m89 -242 c61 -28 113 -76 145
-133 37 -63 39 -115 7 -171 -39 -69 -171 -131 -236 -110 -40 12 -51 33 -44 81
8 60 -13 84 -73 84 -36 0 -47 5 -60 26 -21 31 -21 101 0 141 20 40 80 91 114
99 15 3 32 7 37 9 17 6 68 -6 110 -26z m-1471 -796 c7 -7 -72 -93 -86 -93 -4
0 -8 11 -8 25 0 45 68 94 94 68z m236 -274 c0 -31 -44 -69 -80 -69 -16 0 -30
2 -30 4 0 11 95 94 102 90 5 -3 8 -14 8 -25z"/>
</g>
</svg>
