<?xml version="1.0" standalone="no"?>
<!DOCTYPE svg PUBLIC "-//W3C//DTD SVG 20010904//EN"
 "http://www.w3.org/TR/2001/REC-SVG-20010904/DTD/svg10.dtd">
<svg version="1.0" xmlns="http://www.w3.org/2000/svg" viewBox="0 0 603.000000 600.000000"
 preserveAspectRatio="xMidYMid meet">

<g transform="translate(0.000000,600.000000) scale(0.100000,-0.100000)"
fill="currentColor" stroke="none">
<path d="M3860 5995 c0 -3 11 -16 24 -28 13 -12 327 -335 697 -717 1078 -1111
1414 -1457 1415 -1456 1 1 7 363 13 806 6 443 14 931 17 1086 l6 280 -934 12
c-513 7 -1002 15 -1085 18 -84 3 -153 3 -153 -1z"/>
<path d="M2393 5435 c-870 -112 -1618 -619 -2052 -1391 -157 -280 -270 -627
-317 -974 -23 -171 -23 -521 0 -685 69 -494 240 -912 533 -1304 107 -142 369
-407 510 -514 392 -297 813 -472 1308 -544 184 -26 544 -24 739 6 1081 162
1948 927 2241 1980 143 516 125 1097 -51 1602 -273 786 -879 1401 -1657 1683
-168 61 -376 112 -561 136 -175 24 -528 26 -693 5z m722 -334 c489 -88 890
-286 1255 -620 l55 -50 -1694 -1 -1695 0 35 36 c122 127 377 308 571 405 266
133 514 208 823 248 39 5 174 8 300 7 182 -3 255 -8 350 -25z m-390 -4071
l1695 0 0 1695 c0 991 4 1695 9 1695 12 0 165 -177 239 -277 638 -866 610
-2080 -69 -2920 -553 -685 -1417 -1011 -2284 -863 -479 81 -936 319 -1285 670
-377 378 -611 853 -684 1388 -21 149 -21 460 0 617 64 497 282 964 617 1322
l62 66 3 -1697 2 -1696 1695 0z m-318 3280 c-492 -103 -908 -425 -1127 -875
-60 -122 -116 -288 -132 -389 -7 -42 -17 -76 -21 -76 -5 0 -7 10 -3 23 3 12 6
318 6 680 l0 657 683 -1 682 -1 -88 -18z m1923 -662 c0 -375 -2 -679 -5 -677
-2 3 -11 41 -20 85 -63 332 -269 677 -538 903 -209 175 -491 312 -724 351 -40
6 -73 14 -73 16 0 2 306 4 680 4 l680 0 0 -682z m-1373 606 c771 -114 1342
-804 1310 -1581 -7 -166 -26 -279 -73 -421 -97 -299 -293 -573 -549 -765 -103
-77 -329 -194 -450 -231 -542 -169 -1118 -36 -1526 352 -342 325 -517 778
-479 1240 12 144 30 235 75 370 147 437 473 778 911 952 92 37 243 76 339 89
115 14 329 12 442 -5z m1373 -2444 l0 -679 -677 -3 c-373 -2 -680 -2 -682 -1
-6 4 16 9 89 23 449 83 891 424 1105 850 61 123 111 261 134 377 12 56 21 104
21 107 0 3 2 6 5 6 3 0 5 -306 5 -680z m-3178 582 c59 -301 232 -611 464 -832
212 -201 517 -362 779 -410 39 -8 73 -16 77 -19 4 -3 -295 -5 -665 -3 -369 1
-672 4 -674 5 -5 5 -8 1347 -3 1347 3 0 13 -39 22 -88z"/>
<path d="M2027 3433 c-4 -3 -7 -323 -7 -710 l0 -703 705 0 705 0 2 706 c2 388
1 708 -1 710 -7 7 -1397 4 -1404 -3z"/>
</g>
</svg>
