<?xml version="1.0" standalone="no"?>
<!DOCTYPE svg PUBLIC "-//W3C//DTD SVG 20010904//EN"
 "http://www.w3.org/TR/2001/REC-SVG-20010904/DTD/svg10.dtd">
<svg version="1.0" xmlns="http://www.w3.org/2000/svg" viewBox="0 0 1000.000000 287.000000"
 preserveAspectRatio="xMidYMid meet">

<g transform="translate(0.000000,287.000000) scale(0.100000,-0.100000)"
fill="currentColor" stroke="none">
<path d="M4702 2859 c-36 -14 -91 -61 -114 -99 -12 -19 -43 -60 -69 -90 -25
-30 -70 -91 -100 -135 -56 -84 -130 -170 -162 -187 -15 -7 -22 -7 -28 3 -6 10
-9 7 -9 -10 0 -13 -5 -52 -11 -85 -9 -57 -13 -63 -50 -84 -26 -15 -39 -29 -35
-38 3 -8 1 -14 -4 -14 -6 0 -10 -11 -10 -24 0 -17 12 -34 38 -53 20 -15 45
-35 54 -45 10 -9 25 -21 34 -26 14 -8 17 -52 25 -338 12 -430 8 -1058 -7
-1086 -7 -14 -8 -33 -3 -52 4 -17 13 -78 19 -136 19 -182 39 -242 98 -303 32
-32 37 -35 43 -20 4 10 -1 34 -11 53 -22 44 -43 137 -39 169 4 27 46 63 194
165 81 55 90 65 89 91 -3 59 -23 108 -59 145 -33 33 -38 47 -48 112 -10 69 -9
78 12 122 13 26 35 61 49 78 l25 30 1 371 c1 339 -8 513 -30 589 -5 15 4 17
88 15 l93 -2 58 45 c31 25 57 51 57 58 0 7 11 28 24 45 13 18 34 59 47 92 12
33 29 67 37 77 33 40 -64 35 -260 -13 -66 -16 -126 -29 -135 -29 -14 0 -15 14
-11 100 3 64 1 103 -6 111 -8 9 -8 10 2 4 8 -4 33 0 57 9 l43 17 51 -32 c36
-23 68 -34 106 -37 l55 -4 85 88 c47 48 94 100 103 116 9 16 31 32 52 39 19 6
44 14 55 19 11 5 27 11 35 13 24 7 -44 33 -160 60 -58 14 -141 41 -185 60 -95
43 -153 57 -183 46z"/>
<path d="M1945 2835 c-43 -30 -142 -45 -348 -55 -187 -8 -214 -11 -255 -32
-45 -22 -47 -25 -50 -69 -3 -41 2 -52 41 -105 24 -32 58 -85 77 -117 18 -32
39 -61 46 -64 8 -3 12 -9 9 -13 -3 -4 2 -14 11 -21 8 -7 24 -30 35 -50 18 -36
19 -68 19 -658 1 -609 -3 -701 -31 -701 -10 0 -32 21 -99 95 -42 45 -66 141
-85 330 -18 180 -26 213 -126 550 -129 434 -169 555 -209 635 -40 79 -65 107
-141 158 -65 43 -92 49 -119 22 l-21 -21 -68 19 c-64 19 -74 19 -150 5 -76
-14 -92 -14 -234 6 -242 34 -274 27 -196 -40 41 -35 42 -38 20 -39 l-25 0 30
-31 c16 -18 79 -73 139 -124 147 -123 194 -171 219 -225 20 -44 21 -64 28
-705 3 -363 4 -680 1 -705 -3 -25 -12 -56 -20 -69 -14 -22 -14 -25 8 -42 21
-16 23 -20 11 -40 -12 -18 -12 -23 -1 -30 38 -23 -163 -149 -238 -149 -37 0
-161 28 -207 46 -20 8 -7 -9 94 -119 48 -53 295 -259 345 -288 80 -47 153 -20
176 64 6 23 19 51 29 62 26 29 32 166 8 192 -9 10 -22 40 -28 67 -14 62 -14
343 0 522 7 78 10 302 8 511 -2 204 0 374 4 378 11 11 54 -44 86 -110 163
-334 151 -300 193 -507 41 -202 46 -244 28 -233 -5 4 -2 -10 7 -32 9 -21 26
-65 37 -98 11 -33 33 -91 49 -128 16 -37 47 -143 69 -235 23 -92 56 -200 75
-240 47 -102 133 -241 162 -260 17 -11 22 -22 19 -39 l-4 -23 31 19 c17 11 60
34 96 53 74 38 124 86 210 199 62 83 75 124 46 148 -8 7 -18 27 -22 44 -4 18
-23 48 -43 67 -34 33 -36 39 -37 105 -1 39 -2 83 -3 98 0 15 9 67 22 115 22
85 22 100 22 672 l0 585 36 55 c51 77 92 114 120 107 16 -4 37 6 76 36 32 26
48 43 39 45 -13 3 -12 9 1 47 11 32 12 49 4 64 -6 11 -11 28 -11 39 0 31 -41
59 -110 74 l-65 15 31 16 c31 16 126 113 145 148 11 22 10 22 -16 4z"/>
<path d="M8556 2800 c-22 -17 -48 -39 -58 -50 -10 -11 -22 -20 -26 -20 -4 0
-35 -25 -67 -55 -33 -30 -69 -55 -81 -55 -11 0 -29 -9 -39 -20 -17 -18 -17
-20 -1 -20 9 0 20 -8 23 -17 4 -10 11 -21 17 -25 7 -5 10 -53 9 -132 -1 -136
-9 -156 -56 -156 -50 0 -88 -12 -83 -26 6 -15 -9 -19 -56 -15 -26 2 -35 -8
-28 -34 2 -5 2 -18 2 -27 0 -10 3 -20 7 -22 4 -3 5 -24 2 -48 -5 -34 -2 -48
13 -65 23 -27 36 -29 36 -8 0 8 -4 15 -10 15 -5 0 -10 5 -10 10 0 6 6 10 13
10 19 0 47 -57 47 -96 0 -32 1 -33 30 -27 23 4 30 2 30 -11 0 -9 6 -16 14 -16
7 0 19 -12 25 -27 25 -64 42 -307 22 -315 -16 -5 -24 -299 -15 -523 4 -124 11
-196 15 -175 6 31 7 29 8 -20 0 -39 -2 -51 -9 -40 -8 12 -10 10 -10 -8 0 -13
4 -20 10 -17 11 7 13 -12 13 -131 -1 -45 -6 -90 -12 -100 -8 -15 -10 8 -10 94
1 63 -2 116 -5 119 -3 4 -6 -46 -6 -109 0 -126 -7 -145 -55 -136 -14 3 -25 2
-25 -3 0 -7 -45 -20 -85 -24 -11 -2 -26 2 -32 7 -7 6 -13 8 -13 6 0 -12 41
-120 69 -183 31 -67 69 -191 76 -249 6 -46 23 -55 45 -26 11 14 20 28 20 32 1
25 141 128 174 128 18 0 40 48 61 133 10 37 21 67 25 67 9 0 30 57 35 93 1 12
7 40 13 62 6 22 9 64 7 93 -2 37 1 52 9 49 7 -2 11 -34 11 -89 0 -48 3 -84 8
-81 4 2 8 104 8 226 0 122 2 319 2 437 1 118 -1 233 -5 255 -3 22 -2 44 3 50
12 12 12 38 -1 30 -6 -3 -10 4 -10 17 0 16 3 19 8 10 6 -8 9 -2 9 18 0 20 -3
26 -9 18 -5 -8 -8 0 -9 22 -4 168 -3 240 3 240 5 0 9 -21 9 -47 1 -51 4 -46
14 30 4 33 11 47 22 47 9 0 31 16 50 37 30 32 33 37 18 46 -15 8 -15 10 0 27
13 14 14 23 6 38 -9 16 -7 24 5 36 13 14 13 16 1 16 -13 0 -13 6 -4 36 9 30 8
37 -5 45 -14 8 -14 14 -5 39 6 17 14 30 18 30 4 0 12 15 19 33 7 17 25 46 40
62 24 27 37 65 21 65 -3 0 -37 -21 -75 -45 -38 -25 -73 -45 -76 -45 -13 0 -38
46 -45 82 -4 23 2 80 19 161 31 152 32 161 5 232 -18 49 -23 54 -44 49 -12 -3
-26 -1 -29 5 -10 16 -17 14 -60 -19z m73 -2091 c-14 -8 -29 -3 -29 11 0 4 9 6
21 3 15 -4 17 -8 8 -14z"/>
<path d="M6887 2345 c-16 -8 -45 -28 -65 -44 -68 -53 -100 -64 -163 -57 -54 5
-59 4 -82 -23 -13 -16 -29 -42 -36 -60 -8 -17 -17 -31 -21 -31 -9 0 -24 -48
-22 -70 1 -12 0 -12 -5 -1 -4 9 -22 -5 -58 -45 l-53 -59 -11 30 c-19 51 -31
71 -70 112 -21 22 -58 66 -82 99 -71 96 -75 96 -125 2 -20 -40 -58 -94 -82
-120 -25 -27 -42 -48 -38 -48 4 0 2 -9 -4 -21 -10 -17 -7 -27 14 -58 15 -21
36 -48 47 -60 11 -12 18 -28 15 -36 -3 -8 1 -18 9 -22 21 -12 36 -237 42 -634
4 -319 4 -337 -14 -344 -59 -24 -77 -25 -110 -5 -42 24 -44 25 -36 3 6 -17 5
-17 -14 -1 -11 10 -25 18 -31 18 -6 0 -22 19 -36 43 -14 23 -26 34 -26 25 0
-32 21 -73 74 -143 70 -93 84 -121 91 -186 11 -93 13 -99 40 -99 14 0 34 -5
44 -12 16 -10 25 -7 54 15 19 14 37 24 41 22 3 -3 4 -2 1 2 -7 9 25 43 40 43
12 0 141 173 171 230 13 26 18 58 18 125 1 77 4 96 25 129 24 38 24 40 18 235
-4 167 -8 206 -27 261 -31 91 -33 207 -4 247 32 43 63 41 111 -7 45 -43 67
-50 82 -23 8 15 11 15 25 4 13 -11 22 -12 43 -2 22 10 24 14 12 22 -10 8 -7 8
11 3 14 -3 37 -15 52 -25 14 -11 33 -19 42 -19 19 0 75 86 76 115 0 11 12 38
25 60 14 22 25 52 25 66 0 30 -27 115 -47 145 -18 28 -5 90 29 135 14 19 31
44 37 57 10 19 9 22 -6 22 -10 0 -31 -7 -46 -15z"/>
<path d="M2484 2284 c-73 -24 -175 -51 -228 -59 -168 -27 -256 -63 -256 -105
0 -9 -5 -21 -10 -26 -7 -7 -5 -21 7 -44 25 -52 28 -212 8 -491 -12 -169 -16
-304 -12 -438 4 -178 3 -196 -13 -214 -17 -17 -17 -23 -5 -58 29 -82 140 -213
261 -310 61 -49 84 -59 84 -38 0 13 109 10 127 -3 7 -6 26 -3 50 7 21 9 63 21
93 26 80 13 154 46 179 80 12 16 17 29 12 29 -5 0 -10 8 -11 18 0 9 -3 38 -6
63 -4 33 2 74 21 145 15 54 35 128 45 164 10 36 36 97 59 136 23 39 45 88 48
109 5 32 2 40 -18 56 l-24 18 24 66 c20 58 22 75 15 148 -5 60 -9 75 -15 57
-4 -14 -6 27 -6 90 1 134 -14 183 -60 200 -15 6 -44 19 -64 30 -20 11 -48 20
-61 20 -26 0 -104 45 -127 73 -10 13 -17 15 -27 6 -11 -9 -16 -5 -24 17 -9 22
-8 43 3 86 12 47 12 56 1 51 -10 -4 -12 0 -8 12 4 10 1 21 -6 25 -10 6 -1 20
36 54 27 25 47 45 44 45 -3 -1 -64 -21 -136 -45z m73 -443 c7 -25 15 -134 19
-255 6 -190 4 -233 -20 -430 -14 -121 -31 -225 -37 -232 -13 -16 -199 -78
-207 -69 -3 3 1 38 11 78 21 97 37 219 37 292 0 74 -26 236 -38 244 -5 3 -17
28 -26 54 -13 38 -15 69 -10 146 4 62 3 110 -4 129 -11 31 -11 31 21 28 31 -4
166 33 197 54 27 18 44 6 57 -39z"/>
<path d="M7010 2305 c0 -8 9 -23 20 -32 22 -19 28 -49 8 -37 -9 5 -9 2 1 -9
11 -14 11 -17 0 -17 -8 0 -5 -8 8 -22 29 -32 37 -76 36 -198 -2 -111 8 -143
44 -140 36 4 64 0 59 -9 -3 -4 5 -6 19 -4 20 4 23 2 18 -15 -4 -16 1 -21 29
-25 18 -3 56 -10 83 -15 38 -8 56 -6 78 5 27 13 138 154 160 201 19 40 30 25
21 -30 -4 -29 -8 -119 -8 -200 l-1 -147 -48 -11 c-72 -15 -84 -13 -124 23 -76
66 -112 86 -178 102 -66 15 -69 15 -104 -7 -20 -12 -54 -24 -76 -27 -37 -6
-40 -9 -38 -36 1 -16 -4 -36 -11 -45 -11 -12 -11 -43 -4 -160 11 -158 -6 -629
-23 -661 -5 -10 -9 -44 -9 -76 0 -75 36 -155 82 -183 36 -22 78 -27 78 -9 0 8
4 8 13 1 7 -6 31 -10 53 -7 21 2 42 4 47 4 4 1 7 7 7 14 0 8 20 24 45 37 29
15 45 30 45 42 0 10 3 17 8 16 4 -1 25 15 46 36 68 66 76 69 145 55 44 -10 66
-20 76 -36 9 -13 23 -23 33 -24 9 0 42 -30 72 -66 30 -36 69 -74 85 -84 75
-47 135 -5 136 94 0 9 7 17 16 17 9 0 13 6 9 15 -3 9 1 18 9 21 8 4 15 14 15
23 0 9 23 39 51 66 28 28 59 62 70 77 l20 27 -25 17 c-14 9 -49 21 -78 28
l-53 11 -5 95 c-3 52 -2 129 2 170 13 146 9 315 -8 356 -14 32 -15 55 -9 129
11 115 14 264 8 298 -3 15 -10 27 -17 27 -6 0 -40 31 -76 69 -64 68 -66 69
-135 80 -38 7 -83 18 -100 25 -62 28 -104 36 -196 36 -92 0 -97 1 -188 45
-169 83 -241 104 -241 70z m580 -1145 c0 -192 -3 -350 -6 -350 -16 0 -118 55
-179 98 -86 59 -101 90 -62 126 15 14 28 26 28 28 1 2 4 71 8 153 8 190 15
205 121 257 41 20 78 37 83 38 4 0 7 -157 7 -350z"/>
<path d="M3898 2219 c-31 -31 -46 -39 -63 -35 -13 3 -36 -1 -51 -9 -21 -11
-63 -15 -151 -15 -75 0 -123 -4 -123 -10 0 -5 3 -10 8 -10 4 0 7 -14 8 -31 1
-22 -2 -29 -13 -25 -8 4 -17 6 -19 6 -2 0 -4 7 -4 15 0 10 -10 15 -31 15 -40
0 -97 -46 -140 -113 -18 -29 -73 -91 -121 -139 -49 -48 -91 -97 -93 -110 -3
-13 -10 -35 -16 -50 -6 -15 -8 -36 -4 -45 6 -17 7 -17 19 -1 17 23 32 11 44
-35 9 -34 9 -38 -5 -33 -13 5 -15 0 -10 -31 8 -47 63 -104 140 -145 31 -17 82
-53 113 -79 30 -27 62 -50 70 -50 16 -2 33 -6 37 -9 1 -1 24 -3 51 -5 26 -2
52 -7 57 -12 6 -6 8 -65 7 -132 l-3 -123 -55 51 c-30 28 -61 51 -69 51 -11 0
-11 -3 -1 -15 14 -17 0 -21 -17 -4 -16 16 -159 24 -167 10 -10 -16 -80 -13
-137 5 -29 10 -66 14 -88 11 -21 -2 -45 0 -54 5 -31 17 -18 -5 24 -40 26 -22
52 -59 69 -96 15 -34 49 -85 74 -115 26 -30 75 -93 108 -140 54 -76 63 -94 70
-149 9 -78 24 -94 80 -90 38 3 48 9 81 50 21 27 45 48 53 48 8 0 17 8 21 18
16 44 68 104 129 150 55 41 73 49 98 45 46 -7 118 42 110 74 -5 17 -3 22 8 18
22 -9 52 140 50 248 -2 101 -33 258 -57 284 -41 46 -85 106 -85 115 0 6 6 8
14 5 18 -7 33 10 38 43 3 21 10 26 53 32 28 5 61 11 75 14 l25 6 -25 10 c-14
6 -83 14 -155 18 -191 12 -511 85 -557 127 -10 9 -18 22 -18 28 0 16 24 36 47
39 10 2 19 13 21 24 2 12 7 22 12 22 11 0 44 -47 46 -64 0 -6 2 -17 2 -23 1
-7 7 -13 14 -13 6 0 21 -9 32 -19 37 -34 182 -75 266 -75 66 1 82 5 140 36 36
19 65 41 65 49 1 8 6 23 12 34 19 37 24 96 12 151 -7 30 -15 54 -18 54 -3 0
-5 43 -3 95 2 52 8 95 13 95 15 0 10 17 -7 24 -10 4 -30 -8 -56 -35z m-288
-99 c0 -5 -5 -10 -11 -10 -5 0 -7 5 -4 10 3 6 8 10 11 10 2 0 4 -4 4 -10z
m255 -90 c-3 -5 -11 -10 -16 -10 -6 0 -7 5 -4 10 3 6 11 10 16 10 6 0 7 -4 4
-10z m-434 -73 c-10 -9 -11 -8 -5 6 3 10 9 15 12 12 3 -3 0 -11 -7 -18z m84
-887 c3 -5 1 -10 -4 -10 -6 0 -11 5 -11 10 0 6 2 10 4 10 3 0 8 -4 11 -10z"/>
<path d="M8965 2160 c-38 -44 -71 -85 -73 -93 -3 -17 42 -67 61 -67 20 0 40
-27 34 -45 -4 -8 1 -18 9 -23 14 -8 14 -18 -1 -98 -25 -132 -26 -461 -1 -622
26 -172 20 -309 -17 -376 -41 -75 -33 -156 16 -156 22 0 109 -76 120 -104 4
-9 18 -21 32 -26 18 -7 23 -14 18 -26 -5 -13 -2 -16 8 -12 8 3 26 0 40 -8 24
-13 58 -19 46 -8 -6 7 16 34 28 34 3 0 4 -9 0 -20 -5 -15 -3 -18 9 -14 8 3 16
15 18 27 2 12 14 26 28 33 74 33 146 72 173 92 39 28 51 28 37 1 -10 -18 -77
-55 -155 -84 -18 -7 -19 -8 -2 -12 25 -6 95 23 140 58 34 27 39 29 53 15 8 -9
24 -16 35 -16 10 0 35 -9 55 -19 32 -17 38 -18 51 -5 18 18 28 18 58 -2 17
-11 25 -25 25 -46 0 -29 1 -30 42 -23 38 7 86 35 59 35 -23 0 -10 41 18 57 20
12 34 34 48 72 32 90 16 172 -40 204 -18 11 -27 23 -24 31 4 9 -7 22 -29 35
-19 11 -34 28 -35 38 -3 57 3 557 8 656 4 88 2 124 -7 143 -9 16 -10 28 -3 35
6 6 7 28 2 57 -6 40 -5 50 12 64 13 11 15 18 7 21 -10 3 -8 8 4 18 28 22 48
84 48 147 l0 59 -70 27 -69 27 -88 -22 c-55 -14 -113 -21 -156 -20 l-67 2 2
-42 c2 -28 11 -50 26 -65 29 -30 28 -42 -4 -36 -24 4 -26 3 -19 -19 4 -13 29
-60 54 -103 l46 -80 3 -135 c3 -132 -13 -314 -38 -426 -6 -27 -13 -148 -15
-268 -2 -120 -5 -220 -7 -223 -8 -8 -93 39 -107 59 -8 11 -27 35 -43 53 -29
33 -31 33 -59 19 -34 -18 -33 -22 -13 80 30 148 37 603 11 725 -15 70 -16 145
-3 180 40 109 46 141 31 156 -8 9 -18 26 -21 40 -7 28 -52 58 -112 74 -23 6
-40 15 -37 20 5 8 -80 31 -113 29 -9 0 -48 -36 -87 -79z m673 -430 c2 -45 -1
-70 -7 -70 -7 0 -11 25 -11 63 0 52 5 77 14 77 1 0 3 -31 4 -70z m-2 -192
c-10 -164 -18 -213 -28 -194 -6 10 -5 44 1 89 6 40 13 102 17 140 9 106 18 78
10 -35z m224 -978 c0 -5 -2 -10 -4 -10 -3 0 -8 5 -11 10 -3 6 -1 10 4 10 6 0
11 -4 11 -10z"/>
<path d="M5440 2215 c-69 -7 -164 -14 -211 -14 -86 -1 -87 -1 -92 -28 -3 -16
-32 -58 -64 -95 -32 -37 -67 -82 -78 -100 -11 -18 -30 -37 -42 -42 -20 -10
-21 -18 -28 -260 -9 -281 -9 -335 -4 -658 4 -213 5 -228 24 -242 11 -9 50 -37
87 -63 37 -26 67 -52 68 -57 0 -5 11 -18 23 -30 13 -12 28 -29 33 -37 13 -20
127 -79 154 -79 30 0 237 87 278 117 40 30 43 55 5 51 -19 -2 -28 2 -31 13 -4
24 28 33 43 13 13 -19 35 -11 35 12 0 8 -6 17 -14 20 -12 5 -13 11 -2 42 19
54 26 111 15 117 -15 10 -11 186 6 241 8 27 37 85 64 129 32 53 44 81 35 83
-23 6 -96 -39 -138 -85 -23 -25 -70 -66 -106 -92 -36 -25 -105 -81 -155 -124
-89 -78 -152 -117 -210 -131 -28 -7 -28 -6 16 32 25 22 58 59 73 81 17 24 42
46 62 53 19 7 34 16 34 20 0 4 7 8 14 8 12 0 13 6 5 30 -6 16 -15 27 -20 24
-5 -3 -9 0 -9 5 0 6 8 11 18 11 14 0 15 2 2 10 -13 8 -12 11 4 23 11 8 16 19
12 25 -8 14 28 34 48 26 16 -6 36 23 36 52 0 9 8 24 19 33 10 9 24 33 32 54 7
20 16 37 20 37 4 0 18 18 30 40 13 22 30 40 38 40 31 1 83 60 88 100 3 22 14
47 24 56 11 9 19 26 19 36 0 32 28 89 54 109 14 11 31 32 40 47 79 147 90 182
64 199 -32 20 -86 36 -121 36 -21 -1 -36 1 -33 5 3 3 1 11 -5 19 -8 9 -8 13
-1 13 6 0 9 12 8 28 -6 56 -73 68 -266 47z m8 -382 c45 -3 82 -7 82 -9 0 -2
-20 -49 -44 -104 -38 -86 -172 -300 -196 -315 -20 -13 -20 25 1 157 18 114 20
153 12 205 -10 70 0 90 42 77 11 -4 57 -9 103 -11z m62 -367 c0 -3 -4 -8 -10
-11 -5 -3 -10 -1 -10 4 0 6 5 11 10 11 6 0 10 -2 10 -4z"/>
<path d="M8663 1655 c0 -33 2 -45 4 -27 2 18 2 45 0 60 -2 15 -4 0 -4 -33z"/>
<path d="M5410 1219 c0 -5 5 -7 10 -4 6 3 10 8 10 11 0 2 -4 4 -10 4 -5 0 -10
-5 -10 -11z"/>
<path d="M8562 320 c0 -14 2 -19 5 -12 2 6 2 18 0 25 -3 6 -5 1 -5 -13z"/>
</g>
</svg>
