<?xml version="1.0" standalone="no"?>
<!DOCTYPE svg PUBLIC "-//W3C//DTD SVG 20010904//EN"
 "http://www.w3.org/TR/2001/REC-SVG-20010904/DTD/svg10.dtd">
<svg version="1.0" xmlns="http://www.w3.org/2000/svg" viewBox="0 0 1000.000000 194.000000"
 preserveAspectRatio="xMidYMid meet">

<g transform="translate(0.000000,194.000000) scale(0.100000,-0.100000)"
fill="currentColor" stroke="none">
<path d="M1470 968 l0 -968 90 0 90 0 0 498 c0 471 1 500 18 515 24 22 45 21
64 0 8 -10 52 -92 98 -183 46 -91 104 -205 130 -255 26 -49 102 -199 170 -332
l124 -243 103 0 104 0 -44 83 c-25 45 -126 243 -226 439 l-182 357 63 33 c198
105 308 349 253 561 -61 233 -255 387 -490 387 -88 0 -187 -24 -250 -61 l-34
-20 -40 78 -40 78 -1 -967z m505 680 c61 -32 129 -103 158 -166 17 -36 22 -65
21 -127 -1 -95 -23 -152 -83 -218 -39 -42 -121 -92 -142 -85 -5 2 -73 127
-150 278 -103 201 -138 279 -131 290 5 8 33 25 63 38 75 31 191 27 264 -10z"/>
<path d="M7700 968 l0 -968 90 0 90 0 0 493 c0 430 2 495 16 515 18 26 45 28
66 5 9 -10 103 -189 209 -398 107 -209 221 -433 254 -497 l60 -118 103 0 103
0 -79 152 c-44 84 -145 282 -226 440 l-146 288 60 30 c80 41 166 128 213 217
144 275 -2 621 -301 713 -122 38 -293 20 -397 -41 l-34 -20 -40 78 -40 78 -1
-967z m506 680 c66 -35 120 -90 152 -158 22 -45 26 -69 26 -135 -1 -91 -21
-148 -76 -210 -37 -43 -113 -95 -139 -95 -12 0 -51 68 -137 238 -66 130 -131
256 -144 280 l-23 43 25 19 c73 57 223 65 316 18z"/>
<path d="M0 1805 l0 -105 143 0 c162 0 189 -8 241 -73 l31 -39 3 -794 2 -794
105 0 105 0 2 784 3 784 30 43 c57 80 67 84 241 87 l155 3 -3 102 -3 102 -527
3 -528 2 0 -105z"/>
<path d="M2887 1903 c-4 -3 -7 -433 -7 -955 l0 -948 445 0 445 0 0 105 0 105
-278 0 -279 0 -40 29 c-23 16 -50 49 -62 75 -21 42 -22 56 -19 234 l3 189 29
41 c56 82 57 82 370 82 l276 0 0 105 0 105 -271 0 c-310 0 -318 2 -372 79
l-32 46 -3 177 c-4 192 0 211 57 271 51 56 58 57 351 57 l270 0 0 105 0 105
-438 0 c-241 0 -442 -3 -445 -7z"/>
<path d="M6340 955 l0 -955 440 0 440 0 0 105 0 104 -284 3 -285 3 -35 34
c-62 60 -66 78 -66 286 0 212 5 232 73 290 l41 35 278 0 278 0 0 105 0 105
-272 0 c-306 0 -307 0 -364 76 l-29 37 -3 192 -3 191 33 49 c57 84 63 85 370
85 l268 0 0 105 0 105 -440 0 -440 0 0 -955z"/>
<path d="M9117 1903 c-4 -3 -7 -433 -7 -955 l0 -948 445 0 445 0 0 105 0 105
-278 0 -277 0 -37 25 c-21 14 -46 46 -62 77 -25 50 -26 59 -26 220 0 177 6
209 50 266 49 62 49 62 353 62 l277 0 0 105 0 105 -269 0 c-148 0 -280 4 -293
9 -34 13 -78 60 -99 106 -16 33 -19 66 -19 198 0 172 8 208 58 260 53 56 59
57 352 57 l270 0 0 105 0 105 -438 0 c-241 0 -442 -3 -445 -7z"/>
<path d="M4260 932 l0 -932 90 0 90 0 0 679 c0 719 -1 709 44 699 9 -2 240
-224 513 -493 274 -270 582 -573 686 -674 l187 -184 0 918 0 919 -92 -90 c-51
-49 -232 -224 -402 -389 -170 -165 -312 -300 -317 -300 -4 0 -149 140 -321
310 -172 171 -350 346 -395 389 l-83 79 0 -931z m1418 436 c9 -9 12 -116 12
-419 0 -357 -2 -410 -16 -423 -18 -18 -24 -19 -42 -7 -8 4 -110 104 -227 221
l-213 212 166 162 c296 288 290 284 320 254z"/>
</g>
</svg>
