<?xml version="1.0" standalone="no"?>
<!DOCTYPE svg PUBLIC "-//W3C//DTD SVG 20010904//EN"
 "http://www.w3.org/TR/2001/REC-SVG-20010904/DTD/svg10.dtd">
<svg version="1.0" xmlns="http://www.w3.org/2000/svg"
 width="1000.000000pt" height="116.000000pt" viewBox="0 0 1000.000000 116.000000"
 preserveAspectRatio="xMidYMid meet">

<g transform="translate(0.000000,116.000000) scale(0.100000,-0.100000)"
fill="#000000" stroke="none">
<path d="M6982 1142 c-75 -27 -122 -69 -157 -137 -26 -52 -30 -71 -30 -140 0
-70 4 -87 30 -133 35 -64 92 -117 211 -197 158 -106 204 -159 204 -235 0 -73
-36 -119 -107 -141 -88 -25 -165 28 -200 139 -9 28 -22 52 -28 52 -6 0 -39
-10 -74 -21 l-63 -22 5 -34 c16 -94 91 -203 172 -246 59 -32 218 -31 292 2
177 79 220 328 82 484 -40 46 -142 122 -254 189 -77 47 -112 84 -120 130 -20
105 79 191 184 159 44 -13 75 -44 111 -109 29 -52 31 -53 117 -20 29 11 53 25
53 31 -1 26 -49 128 -79 166 -69 87 -230 125 -349 83z"/>
<path d="M18 1143 c-25 -6 -27 -138 -2 -147 9 -3 65 -6 125 -6 l109 0 0 -471
c0 -305 4 -477 10 -490 9 -15 22 -19 68 -19 32 0 63 5 70 12 9 9 12 132 12
490 l0 478 108 0 c71 0 112 4 120 12 7 7 12 38 12 70 0 46 -4 59 -19 68 -19
10 -576 13 -613 3z"/>
<path d="M986 1134 c-14 -14 -16 -77 -16 -550 0 -350 4 -542 10 -555 9 -15 22
-19 68 -19 32 0 63 5 70 12 9 9 12 77 12 245 l0 233 75 0 75 0 0 75 0 75 -75
0 -75 0 0 240 0 240 -26 10 c-39 15 -101 12 -118 -6z"/>
<path d="M1482 1138 c-16 -16 -17 -1079 -2 -1109 9 -15 22 -19 68 -19 32 0 63
5 70 12 17 17 17 1099 0 1116 -7 7 -37 12 -68 12 -31 0 -61 -5 -68 -12z"/>
<path d="M1986 1134 c-18 -18 -22 -95 -6 -125 10 -18 24 -19 305 -19 334 0
315 -5 315 84 0 78 7 76 -315 76 -244 0 -286 -2 -299 -16z"/>
<path d="M3467 1135 c-15 -15 -17 -64 -17 -551 0 -350 4 -542 10 -555 15 -28
124 -28 139 0 7 12 9 163 6 422 l-5 404 19 -90 c21 -96 154 -563 194 -680 l24
-70 66 -3 66 -3 51 163 c88 281 220 688 223 688 2 0 1 -181 -1 -403 -3 -295
-1 -409 7 -425 10 -18 21 -22 59 -22 27 0 53 5 60 12 9 9 12 148 12 564 0 494
-2 552 -16 558 -24 9 -107 7 -124 -4 -8 -5 -85 -203 -171 -441 l-156 -432 -77
239 c-171 530 -198 611 -206 624 -6 9 -34 16 -78 18 -54 3 -72 1 -85 -13z"/>
<path d="M4802 1138 c-17 -17 -17 -799 0 -816 19 -19 134 -16 142 4 3 9 6 192
6 408 0 292 -3 395 -12 404 -7 7 -37 12 -68 12 -31 0 -61 -5 -68 -12z"/>
<path d="M5298 1139 c-17 -9 -18 -47 -18 -558 0 -461 2 -550 14 -560 9 -7 38
-11 73 -9 l58 3 3 245 c1 135 -2 301 -7 370 -5 69 -8 126 -7 128 2 1 84 -165
183 -370 l180 -373 69 0 69 0 3 559 c2 441 0 561 -10 568 -15 9 -90 11 -112 2
-14 -5 -16 -44 -16 -328 0 -176 5 -366 10 -420 5 -55 9 -101 7 -102 -1 -1 -85
185 -187 413 -102 229 -191 422 -198 430 -16 15 -89 17 -114 2z"/>
<path d="M6327 1138 c-16 -12 -17 -46 -15 -418 l3 -405 69 -3 c49 -2 72 1 77
10 5 7 9 192 9 411 l0 397 -26 10 c-35 14 -97 12 -117 -2z"/>
<path d="M7606 1134 c-18 -18 -22 -95 -6 -125 10 -17 22 -19 130 -19 l120 0 0
-478 c0 -358 3 -481 12 -490 12 -12 95 -16 122 -6 14 5 16 58 16 490 l0 483
118 3 117 3 3 69 c2 49 -1 72 -10 77 -7 5 -147 9 -310 9 -256 0 -299 -2 -312
-16z"/>
<path d="M8537 1143 c-4 -3 -7 -260 -7 -570 l0 -563 65 0 65 0 0 491 0 491 93
-4 c161 -7 217 -60 217 -207 0 -115 -36 -170 -127 -192 -24 -6 -43 -12 -43
-14 0 -2 134 -397 170 -502 l22 -63 79 0 c43 0 79 3 79 8 0 4 -35 109 -78 234
l-79 227 40 38 c22 21 52 63 66 93 23 49 26 67 26 170 0 103 -3 121 -26 170
-52 112 -133 172 -255 190 -78 11 -297 14 -307 3z"/>
<path d="M9346 1142 c-2 -4 50 -138 117 -297 l122 -290 5 -270 5 -270 73 -3
72 -3 0 254 0 255 129 308 c72 169 128 311 125 316 -6 10 -125 10 -140 0 -5
-4 -45 -108 -89 -232 -43 -124 -82 -236 -87 -250 -9 -22 -13 -13 -33 67 -26
100 -142 404 -159 415 -15 10 -134 10 -140 0z"/>
<path d="M1976 618 c-9 -35 -7 -87 4 -109 10 -18 24 -19 268 -19 141 0 263 4
270 9 9 5 12 27 10 72 l-3 64 -271 3 -272 2 -6 -22z"/>
<path d="M1986 154 c-18 -18 -22 -95 -6 -125 10 -18 24 -19 305 -19 332 0 315
-4 315 80 0 84 17 80 -310 80 -249 0 -291 -2 -304 -16z"/>
</g>
</svg>
