<?xml version="1.0" standalone="no"?>
<!DOCTYPE svg PUBLIC "-//W3C//DTD SVG 20010904//EN"
 "http://www.w3.org/TR/2001/REC-SVG-20010904/DTD/svg10.dtd">
<svg version="1.0" xmlns="http://www.w3.org/2000/svg" viewBox="0 0 540.000000 300.000000"
 preserveAspectRatio="xMidYMid meet">

<g transform="translate(0.000000,300.000000) scale(0.100000,-0.100000)"
fill="currentColor" stroke="none">
<path d="M2930 2390 c-22 -44 -40 -82 -40 -85 0 -4 42 -26 93 -50 l92 -44 37
77 c21 42 38 82 38 87 0 9 -159 95 -175 95 -3 0 -23 -36 -45 -80z"/>
<path d="M390 2378 l-105 -51 130 -63 c72 -34 135 -63 142 -63 7 -1 49 27 94
61 l81 63 -112 52 c-62 29 -115 53 -119 52 -3 0 -53 -23 -111 -51z"/>
<path d="M933 2383 l-93 -46 0 -573 0 -574 101 -50 c55 -28 105 -50 111 -48 5
2 27 40 48 86 l39 82 -50 21 -49 21 0 564 c0 310 -3 564 -7 563 -5 0 -50 -21
-100 -46z"/>
<path d="M177 2278 l-87 -41 2 -495 3 -496 187 -88 186 -88 107 51 c58 28 103
54 100 58 -3 3 -92 47 -198 97 l-192 90 -3 167 -2 167 138 0 138 0 42 85 c23
47 42 87 42 90 0 3 -81 5 -180 5 l-180 0 0 220 c0 121 -3 220 -7 219 -5 0 -47
-19 -96 -41z"/>
<path d="M1190 2143 c-22 -47 -40 -87 -40 -88 0 -1 23 -12 50 -24 l50 -22 0
-415 0 -415 114 -55 113 -56 101 51 c56 28 106 51 112 51 5 0 10 -21 10 -47 0
-27 18 -109 41 -186 23 -76 39 -140 37 -143 -3 -2 -121 50 -262 117 -142 67
-262 117 -266 113 -5 -5 -25 -43 -44 -85 l-34 -76 186 -88 c103 -49 206 -97
229 -108 l42 -20 83 70 c46 38 118 96 161 127 42 31 77 60 77 64 0 4 -14 52
-30 107 l-30 100 0 505 0 506 -113 52 -114 53 -109 -53 -109 -53 -80 42 c-140
74 -128 75 -175 -24z m393 -82 l117 -55 0 -413 c0 -227 -3 -413 -6 -413 -3 0
-59 25 -125 56 l-119 57 0 414 c0 228 4 413 8 411 5 -1 61 -27 125 -57z"/>
<path d="M2350 2178 l-105 -50 160 -79 c88 -43 165 -78 170 -78 6 -1 44 29 84
65 l73 67 -121 58 c-67 32 -129 60 -138 63 -10 2 -65 -18 -123 -46z"/>
<path d="M2896 2162 c-54 -107 -54 -105 4 -132 l50 -23 0 -460 c0 -363 3 -458
13 -454 6 3 49 22 95 42 l82 38 -2 480 -3 480 -103 48 -102 48 -34 -67z"/>
<path d="M3296 2145 c-21 -47 -37 -87 -35 -89 2 -2 23 -13 47 -25 l42 -21 0
-415 0 -415 115 -54 115 -55 109 51 108 50 105 -50 106 -50 41 87 41 86 -45
23 -45 22 0 415 0 415 -108 54 -109 55 -40 -89 -40 -88 48 -23 49 -22 0 -415
c0 -227 -4 -412 -8 -410 -5 2 -61 27 -125 57 l-117 55 0 416 0 415 -105 53
c-58 28 -107 52 -108 52 -2 0 -20 -38 -41 -85z"/>
<path d="M4141 2144 c-22 -47 -41 -87 -41 -89 0 -1 23 -12 50 -24 l50 -22 0
-459 c0 -253 3 -460 6 -460 4 0 49 20 100 44 l94 45 0 471 c0 260 4 470 8 468
5 -1 61 -27 125 -57 l117 -55 0 -459 c0 -363 3 -458 13 -454 6 3 49 22 95 42
l82 38 0 476 0 477 -113 52 -113 53 -108 -52 -109 -52 -104 51 c-57 29 -105
52 -107 52 -2 0 -22 -39 -45 -86z"/>
<path d="M4953 2175 l-108 -52 128 -61 127 -61 0 -413 0 -413 105 -52 104 -53
41 87 c22 47 40 87 40 88 0 1 -22 12 -50 25 l-50 23 0 414 0 413 -41 20 c-22
12 -74 36 -114 55 l-73 33 -109 -53z"/>
<path d="M2133 2075 l-93 -44 0 -199 0 -199 96 -47 c53 -25 99 -46 102 -46 4
0 41 31 82 69 l75 68 -78 36 -77 36 0 185 c0 102 -3 186 -7 186 -5 -1 -50 -21
-100 -45z"/>
<path d="M2472 1751 c-40 -36 -72 -68 -72 -71 0 -4 36 -24 80 -45 l80 -39 0
-208 c0 -114 -2 -208 -5 -208 -3 0 -90 42 -193 94 l-189 94 -74 -68 c-41 -37
-72 -70 -69 -73 3 -3 74 -39 158 -81 l153 -76 207 98 207 99 3 221 2 222 -107
54 -108 54 -73 -67z"/>
</g>
</svg>
