<?xml version="1.0" standalone="no"?>
<!DOCTYPE svg PUBLIC "-//W3C//DTD SVG 20010904//EN"
 "http://www.w3.org/TR/2001/REC-SVG-20010904/DTD/svg10.dtd">
<svg version="1.0" xmlns="http://www.w3.org/2000/svg" viewBox="0 0 540.000000 300.000000"
 preserveAspectRatio="xMidYMid meet">

<g transform="translate(0.000000,300.000000) scale(0.100000,-0.100000)"
fill="currentColor" stroke="none">
<path d="M883 2840 c-83 -13 -103 -55 -112 -233 l-6 -128 -54 -19 c-135 -45
-174 -123 -159 -317 4 -54 8 -186 10 -293 3 -192 3 -196 -22 -244 -14 -27 -30
-51 -36 -53 -17 -6 -71 169 -83 265 -19 151 18 303 92 380 43 45 15 42 -60 -7
-74 -48 -133 -123 -170 -217 -25 -64 -27 -80 -28 -214 0 -127 3 -154 24 -220
18 -55 25 -98 25 -161 l1 -86 30 24 29 25 15 -23 c8 -13 46 -56 85 -95 81 -80
148 -116 250 -135 l67 -13 -8 -90 c-4 -50 -8 -130 -8 -178 0 -83 1 -89 29
-115 23 -24 27 -25 22 -8 -14 50 -26 170 -26 277 l0 116 53 7 c114 16 225 75
281 152 37 49 76 155 76 202 0 23 -2 22 -19 -14 -52 -111 -213 -190 -346 -171
l-45 7 0 104 c0 102 0 103 30 128 37 32 38 50 3 99 -24 35 -25 41 -12 65 8 14
24 32 37 41 32 21 127 42 190 42 83 0 120 -27 123 -90 1 -34 2 -33 19 20 22
66 25 159 7 185 -12 16 -25 17 -105 13 -51 -3 -99 -11 -107 -18 -35 -29 -7 12
133 191 146 188 147 189 154 157 4 -18 8 -197 9 -398 2 -350 1 -369 -20 -453
-13 -49 -20 -91 -17 -94 3 -4 15 2 25 12 19 17 20 16 26 -11 18 -85 30 -118
55 -144 44 -47 97 -35 158 34 17 20 37 36 44 36 7 0 29 9 49 19 l36 20 49 -50
c55 -55 133 -99 177 -99 41 0 87 31 125 84 38 53 82 143 83 171 1 45 18 -25
29 -123 12 -112 3 -199 -30 -279 -86 -208 -185 -245 -445 -170 -66 19 -137 38
-157 41 -48 9 -111 -9 -163 -44 -49 -34 -183 -160 -139 -131 109 71 196 79
325 27 81 -33 213 -66 262 -66 54 0 132 54 252 175 224 223 261 294 252 476
-2 52 -12 166 -22 254 -24 208 -25 493 -3 591 13 58 33 114 56 156 6 12 -116
-29 -152 -51 -38 -24 -60 -63 -78 -142 -17 -72 -14 -420 4 -562 l14 -108 -27
-48 c-57 -99 -128 -127 -199 -78 -80 53 -90 112 -90 573 l0 351 -22 20 c-63
57 -107 58 -148 2 -41 -57 -45 -74 -22 -97 28 -28 36 -155 29 -486 -3 -192 -9
-286 -20 -324 -17 -61 -15 -58 -49 -67 -36 -9 -63 20 -77 83 -14 69 -34 968
-26 1192 8 201 11 214 69 269 19 19 33 38 30 42 -8 14 -56 -10 -132 -67 -91
-69 -114 -78 -160 -63 -27 9 -36 9 -43 -2 -5 -9 1 -17 20 -25 53 -22 61 -46
61 -188 l0 -129 -42 7 c-56 9 -176 64 -193 89 -8 11 -20 17 -29 14 -20 -8
-116 -138 -161 -219 -20 -38 -39 -68 -42 -68 -3 0 -3 69 0 153 6 155 29 283
63 350 30 59 86 118 141 149 29 17 53 31 51 33 -9 7 -129 11 -165 5z m-113
-796 c0 -405 -1 -418 -21 -450 -11 -19 -25 -34 -30 -34 -18 0 -8 -30 26 -74
34 -44 35 -49 35 -131 0 -75 -2 -85 -18 -85 -24 0 -109 54 -146 93 -31 34
-106 145 -106 158 0 4 21 17 47 29 68 30 110 65 135 113 21 41 21 48 15 367
-4 199 -3 339 3 359 10 34 36 71 52 71 4 0 8 -187 8 -416z m323 141 c42 -15
77 -29 77 -32 0 -2 -84 -112 -187 -245 l-188 -241 -3 218 -2 218 40 68 c50 85
75 96 140 64 25 -13 80 -35 123 -50z"/>
<path d="M3116 2654 c-4 -14 -27 -48 -53 -75 -43 -46 -45 -50 -33 -78 13 -32
75 -101 90 -101 5 0 12 9 15 20 4 12 24 32 46 47 50 33 50 56 -1 124 -22 30
-40 59 -40 66 0 24 -18 22 -24 -3z"/>
<path d="M2661 2378 c4 -18 12 -51 18 -73 9 -40 9 -40 10 21 1 35 -4 65 -11
72 -20 20 -26 13 -17 -20z"/>
<path d="M4320 2178 c-17 -46 -42 -119 -55 -163 l-24 -80 0 107 c-1 59 -5 118
-10 131 -12 32 -62 67 -104 74 -31 5 -36 1 -70 -49 -41 -59 -46 -79 -19 -71
43 11 44 -6 51 -470 6 -394 9 -447 25 -485 21 -49 68 -92 100 -92 21 0 78 51
124 114 30 39 28 46 -8 33 -42 -16 -61 -2 -81 59 -14 43 -15 85 -10 319 7 244
9 276 30 335 31 88 52 110 110 110 25 0 76 -7 112 -17 l66 -17 -31 -49 c-30
-48 -30 -52 -27 -153 l3 -104 -44 0 c-54 0 -84 -27 -122 -110 -32 -68 -36
-111 -6 -62 23 37 42 46 118 56 49 6 52 6 53 -16 10 -334 14 -372 43 -424 27
-50 58 -74 96 -74 20 0 102 86 126 132 15 28 8 38 -13 17 -6 -6 -23 -9 -39 -7
-45 5 -63 70 -64 234 l0 132 44 6 c60 9 94 50 132 159 18 51 12 57 -14 13 -17
-28 -29 -36 -72 -45 -82 -18 -80 -19 -80 55 0 107 46 253 85 268 29 11 88 7
161 -11 l71 -17 -31 -43 -30 -43 3 -307 c1 -170 7 -337 12 -373 16 -104 65
-170 126 -170 17 0 71 55 114 118 27 38 28 57 2 31 -6 -6 -23 -9 -39 -7 -57 6
-59 20 -62 471 l-3 408 36 43 c19 24 35 47 35 53 0 6 -24 4 -59 -5 -53 -13
-67 -13 -138 3 -117 26 -151 29 -169 14 -23 -19 -43 -62 -85 -179 l-38 -105 0
84 c-1 80 0 85 34 131 19 26 35 50 35 52 0 2 -27 2 -59 0 -84 -6 -228 25 -302
65 -4 2 -21 -33 -39 -79z"/>
<path d="M3032 2212 c-17 -21 -36 -50 -41 -64 -8 -23 -7 -24 13 -21 16 3 26
-1 32 -14 4 -10 11 -211 15 -448 4 -273 10 -442 17 -464 22 -66 59 -109 99
-117 35 -7 40 -4 79 39 44 49 88 117 76 117 -5 0 -13 -5 -19 -11 -6 -6 -23 -9
-39 -7 -57 6 -59 22 -59 443 0 415 -3 394 62 465 l35 39 -29 6 c-15 3 -62 19
-103 36 -41 17 -82 33 -91 36 -10 3 -27 -9 -47 -35z"/>
<path d="M2625 2212 c-42 -22 -55 -38 -83 -92 l-33 -65 7 49 c8 55 12 56 -78
-7 -67 -46 -78 -71 -78 -171 0 -121 45 -244 101 -279 27 -17 68 7 165 94 89
79 120 93 144 65 53 -65 65 -421 18 -556 -26 -75 -93 -53 -105 34 -7 47 -8 49
-13 18 -5 -32 -6 -31 -60 59 -30 51 -80 119 -112 152 -50 53 -59 59 -84 53
-37 -10 -78 -40 -104 -76 -16 -22 -18 -30 -8 -30 23 0 60 -46 161 -201 106
-162 130 -185 183 -172 69 16 231 181 285 289 26 52 31 75 36 167 9 168 -25
329 -75 356 -12 6 -32 11 -45 11 -24 0 -146 -80 -202 -132 -34 -32 -47 -34
-70 -12 -32 33 -48 80 -53 157 -5 92 5 119 55 142 37 18 101 16 198 -6 46 -10
56 -9 92 10 44 22 86 67 121 130 l22 39 -40 -14 c-33 -12 -55 -11 -142 1 -137
19 -145 19 -203 -13z"/>
<path d="M3346 2198 c-44 -51 -56 -87 -33 -100 24 -13 36 -68 47 -224 18 -248
10 -569 -15 -628 -7 -16 -5 -18 15 -13 18 5 32 -4 71 -47 26 -29 68 -64 94
-77 28 -15 43 -29 40 -37 -3 -8 -2 -12 2 -10 5 2 28 12 53 23 25 10 67 30 94
44 l49 26 34 -32 c47 -45 96 -53 130 -22 27 26 107 139 98 139 -3 0 -19 -7
-36 -15 -39 -21 -65 -6 -78 43 -16 60 -18 922 -3 950 7 12 9 22 5 22 -5 0 -49
-24 -98 -54 l-90 -53 3 -139 c2 -77 7 -238 12 -359 11 -313 9 -431 -10 -449
-21 -20 -75 -1 -134 47 -82 68 -81 58 -84 522 -4 447 -1 429 -62 460 -58 29
-66 28 -104 -17z"/>
<path d="M2681 1642 c-1 -7 -19 -32 -42 -56 l-40 -45 22 -33 c12 -18 32 -41
45 -51 23 -17 24 -17 24 0 0 10 14 30 32 44 l31 26 -29 49 c-16 27 -32 56 -36
64 -4 10 -7 11 -7 2z"/>
<path d="M2670 1005 c0 -82 18 -133 61 -170 l22 -20 -8 20 c-17 43 -55 191
-55 218 0 15 -4 27 -10 27 -6 0 -10 -32 -10 -75z"/>
</g>
</svg>
