<?xml version="1.0" standalone="no"?>
<!DOCTYPE svg PUBLIC "-//W3C//DTD SVG 20010904//EN"
 "http://www.w3.org/TR/2001/REC-SVG-20010904/DTD/svg10.dtd">
<svg version="1.0" xmlns="http://www.w3.org/2000/svg" viewBox="0 0 540.000000 300.000000"
 preserveAspectRatio="xMidYMid meet">

<g transform="translate(0.000000,300.000000) scale(0.100000,-0.100000)"
fill="currentColor" stroke="none">
<path d="M1862 2404 c-4 -49 -65 -145 -128 -203 -92 -84 -209 -139 -459 -217
-253 -78 -393 -143 -453 -208 -38 -42 -42 -50 -42 -99 0 -57 20 -98 79 -160
43 -47 65 -54 36 -12 -32 48 -42 113 -22 151 34 65 101 108 245 158 l102 35 0
-65 c0 -36 -5 -74 -10 -85 -7 -13 -7 -19 0 -19 6 0 10 -30 10 -74 l0 -74 -74
-69 c-94 -86 -173 -134 -231 -141 -63 -7 -46 -22 26 -22 68 0 152 26 223 70
27 17 51 29 53 26 3 -3 0 -21 -7 -41 -9 -29 -9 -39 2 -52 20 -24 18 -327 -2
-368 -17 -34 -50 -44 -70 -20 -11 13 -18 10 -60 -29 -26 -24 -70 -56 -97 -70
-103 -52 -152 -117 -153 -203 0 -69 9 -78 34 -30 48 90 195 162 485 237 278
72 355 107 401 183 39 64 15 159 -64 251 l-34 40 20 -59 c46 -138 -20 -216
-237 -279 -112 -33 -119 -33 -104 -4 8 15 11 101 10 288 -2 253 -1 267 18 284
11 10 38 20 61 23 38 5 40 7 25 23 -12 14 -13 19 -3 27 53 42 145 56 182 28
36 -27 56 -69 56 -116 0 -69 -38 -95 -104 -69 -30 11 -33 0 -15 -47 13 -34 25
-43 66 -43 60 0 104 83 88 168 -10 54 -50 117 -90 142 -67 41 -141 37 -267
-15 -16 -6 -18 1 -17 81 0 49 5 105 12 124 10 29 17 36 45 38 18 2 40 -2 48
-9 13 -11 22 -6 57 32 26 28 75 62 125 89 45 23 102 62 126 86 74 75 122 201
113 296 -2 23 -4 34 -5 22z"/>
<path d="M1858 1994 c-84 -77 -109 -112 -70 -100 14 5 25 0 36 -16 14 -19 16
-59 16 -260 0 -142 -4 -248 -11 -264 -7 -21 -7 -34 1 -50 19 -34 9 -283 -12
-315 l-16 -25 42 -12 c24 -6 56 -25 73 -42 23 -24 32 -28 36 -16 3 8 38 31 77
52 92 48 114 75 107 134 -6 54 -50 100 -97 100 -35 0 -54 -26 -38 -53 8 -15
17 -17 48 -12 42 7 70 -11 70 -46 0 -76 -115 -114 -149 -50 -7 13 -11 157 -11
420 0 396 0 400 21 415 l21 14 -22 24 c-29 30 -60 92 -60 118 0 21 35 41 57
33 7 -3 21 -20 32 -39 23 -38 56 -45 66 -14 14 44 -29 80 -94 80 -37 0 -49 -7
-123 -76z"/>
<path d="M3232 2050 c-23 -22 -30 -50 -35 -152 -3 -73 7 -84 48 -54 17 12 22
12 39 0 30 -21 37 -17 25 14 -16 39 -17 158 -2 173 10 10 16 9 28 -1 23 -19
18 -3 -7 20 -28 26 -68 26 -96 0z"/>
<path d="M2168 1862 c14 -31 17 -74 17 -273 0 -165 -4 -240 -12 -250 -9 -11
-8 -19 3 -33 18 -25 20 -271 3 -282 -6 -4 8 -23 36 -48 35 -30 48 -49 48 -69
0 -15 5 -27 12 -27 19 0 86 52 138 108 l47 51 0 -110 c0 -121 8 -146 59 -192
17 -15 31 -31 31 -35 0 -20 -37 -56 -74 -73 -52 -24 -90 -24 -142 0 -57 26
-73 70 -50 139 20 60 13 82 -24 82 -34 0 -70 -40 -70 -77 0 -29 41 -112 67
-135 55 -50 173 -64 243 -28 21 11 52 39 68 62 17 24 42 53 56 65 14 13 26 32
26 44 0 17 -4 20 -25 15 -18 -5 -27 -1 -35 13 -6 13 -10 164 -10 426 0 400 3
437 32 456 6 4 -7 15 -29 25 -21 11 -42 29 -48 42 -5 12 -13 22 -18 22 -4 0
-27 -20 -50 -45 -39 -40 -42 -46 -28 -60 22 -21 23 -313 3 -338 -12 -14 -12
-19 2 -32 11 -12 16 -35 16 -81 0 -64 0 -64 -29 -64 -35 0 -46 -22 -20 -38 24
-16 24 -37 -1 -77 -29 -46 -50 -52 -77 -20 -23 26 -23 29 -23 324 0 284 1 300
20 324 l20 25 -29 7 c-37 8 -72 46 -109 121 -17 34 -38 64 -46 67 -12 5 -12 0
2 -31z"/>
<path d="M2915 1776 c-16 -7 -65 -36 -108 -64 -42 -28 -91 -53 -107 -57 -28
-6 -29 -8 -15 -28 11 -16 15 -51 15 -139 l0 -118 34 0 c86 0 176 -56 212 -134
41 -88 28 -188 -31 -234 -37 -30 -72 -28 -126 7 -55 34 -87 83 -95 143 -11 80
24 108 87 71 56 -33 92 24 45 72 -33 33 -68 32 -110 -5 -90 -80 -66 -219 54
-320 32 -27 53 -53 57 -71 3 -16 7 -29 10 -29 15 0 79 34 136 73 37 26 85 52
106 58 35 10 38 13 25 27 -12 12 -15 39 -12 138 l3 124 -30 0 c-66 0 -197 86
-231 151 -20 40 -19 192 2 213 8 9 24 16 33 16 25 0 68 -36 86 -70 21 -40 20
-168 -1 -198 -14 -20 -14 -22 1 -22 9 0 35 16 57 34 22 19 54 38 70 41 22 5
27 10 19 18 -16 16 -14 117 3 148 13 26 13 27 -28 39 -83 24 -124 64 -117 113
3 20 -4 21 -44 3z"/>
<path d="M3430 1740 c-41 -45 -44 -51 -30 -65 23 -23 28 -253 6 -315 -13 -39
-13 -46 -1 -60 18 -19 21 -222 5 -264 -8 -22 -5 -29 31 -57 46 -36 61 -66 48
-91 -8 -14 -6 -16 8 -11 33 12 112 74 153 120 l40 46 0 -42 c0 -33 7 -49 37
-82 30 -33 38 -38 45 -25 5 9 29 29 53 46 29 20 45 38 45 52 0 17 -3 18 -14 9
-12 -10 -18 -7 -33 15 -16 25 -18 57 -21 294 -4 291 0 342 29 371 19 19 18 19
-14 33 -19 7 -43 26 -54 41 l-20 28 -45 -46 c-42 -41 -44 -46 -30 -61 24 -24
30 -254 8 -316 -13 -39 -13 -46 -1 -60 10 -11 15 -38 15 -78 0 -62 0 -62 -29
-62 -39 0 -48 -16 -21 -38 28 -22 20 -59 -21 -98 l-29 -28 -25 24 -24 23 -3
313 -3 312 -24 26 c-13 14 -27 41 -30 61 l-6 35 -45 -50z"/>
<path d="M4492 1775 c-18 -8 -60 -40 -92 -71 l-60 -57 -46 46 c-34 34 -45 52
-41 67 3 12 0 20 -8 20 -20 0 -127 -82 -157 -121 l-27 -34 -1 28 c0 34 -14 63
-47 98 -27 30 -16 34 -105 -41 -43 -36 -48 -53 -16 -48 36 5 48 -33 48 -162 0
-63 -4 -131 -10 -150 -6 -22 -6 -38 0 -44 6 -6 10 -72 10 -152 0 -124 -2 -145
-19 -165 l-19 -24 37 -20 c20 -11 40 -30 46 -43 13 -30 19 -28 50 13 15 19 35
37 46 40 19 6 19 7 -1 32 -19 24 -20 40 -20 269 l0 244 23 0 c13 0 28 5 35 12
13 13 16 29 5 27 -41 -7 -45 45 -7 90 32 38 46 39 73 5 18 -23 21 -41 21 -140
0 -62 -5 -125 -11 -140 -7 -20 -7 -34 1 -49 8 -14 10 -71 8 -164 -3 -132 -5
-144 -25 -160 l-21 -18 35 -12 c20 -8 42 -26 52 -42 9 -16 19 -29 23 -29 4 0
19 16 33 35 15 19 36 37 47 41 20 6 20 6 -1 28 -20 21 -21 33 -21 269 0 231 1
247 18 247 19 0 42 18 42 32 0 4 -5 7 -11 5 -6 -1 -16 5 -22 14 -14 22 8 75
40 96 22 15 25 14 48 -7 24 -22 25 -29 25 -146 0 -68 -5 -135 -10 -150 -8 -19
-8 -30 0 -38 6 -6 10 -67 10 -152 0 -124 -2 -145 -19 -165 l-19 -24 37 -20
c20 -11 40 -30 46 -43 13 -30 26 -28 50 8 11 16 30 35 42 41 22 12 22 13 6 32
-16 17 -18 50 -21 329 -2 198 1 314 7 322 8 9 -2 22 -34 49 -48 41 -63 71 -45
92 15 18 14 18 -28 0z"/>
<path d="M3204 1736 c-36 -38 -39 -46 -27 -62 16 -22 18 -288 3 -330 -8 -19
-8 -30 0 -38 6 -6 10 -67 10 -152 0 -124 -2 -145 -19 -165 l-19 -24 37 -20
c20 -11 40 -30 46 -43 5 -12 13 -22 16 -22 4 0 26 20 51 45 41 40 43 46 29 60
-14 13 -16 58 -19 313 -3 319 -1 353 28 382 18 18 18 19 -11 30 -16 7 -40 26
-54 41 -13 16 -25 29 -27 29 -2 -1 -21 -20 -44 -44z"/>
</g>
</svg>
