<?xml version="1.0" standalone="no"?>
<!DOCTYPE svg PUBLIC "-//W3C//DTD SVG 20010904//EN"
 "http://www.w3.org/TR/2001/REC-SVG-20010904/DTD/svg10.dtd">
<svg version="1.0" xmlns="http://www.w3.org/2000/svg" viewBox="0 0 540.000000 300.000000"
 preserveAspectRatio="xMidYMid meet">

<g transform="translate(0.000000,300.000000) scale(0.100000,-0.100000)"
fill="currentColor" stroke="none">
<path d="M762 2224 l-24 -37 21 -28 22 -29 -135 0 c-125 0 -136 -1 -146 -20
-10 -18 -7 -21 20 -26 38 -8 50 -29 50 -92 0 -37 -4 -51 -16 -56 -16 -6 -16
-8 0 -24 9 -11 16 -36 16 -60 l0 -42 -51 0 c-56 0 -80 -10 -121 -48 -32 -30
-37 -47 -9 -32 25 13 91 13 91 0 0 -5 -9 -10 -20 -10 -35 0 -79 -29 -96 -62
-21 -41 -5 -100 33 -126 38 -24 110 -23 129 2 31 43 -1 105 -46 91 -18 -6 -21
-13 -18 -37 4 -27 2 -29 -19 -25 -29 5 -30 -7 0 -21 l22 -11 -23 0 c-32 -1
-72 45 -72 84 0 64 100 114 173 86 l27 -11 0 -140 0 -141 -22 15 c-35 25 -52
21 -34 -6 40 -62 56 -145 56 -283 0 -75 -4 -144 -10 -154 -5 -10 -23 -21 -40
-25 -23 -4 -31 -11 -28 -23 3 -16 19 -18 142 -21 l138 -3 -17 -25 c-16 -25
-16 -27 10 -66 l27 -40 30 42 31 41 -23 25 -23 24 141 0 c131 0 142 1 142 18
0 11 -13 24 -32 33 l-33 14 0 231 c0 181 3 235 14 247 12 15 10 17 -14 17 -37
0 -89 -56 -103 -112 -6 -23 -14 -104 -18 -178 -8 -180 -31 -220 -121 -220 -53
0 -91 31 -103 85 -10 43 -14 625 -4 625 3 0 37 -9 75 -21 127 -39 231 -20 278
50 15 24 15 24 -8 12 -24 -14 -106 -17 -144 -6 -12 4 -64 23 -114 42 l-93 35
0 51 c0 33 6 57 17 69 15 17 15 19 0 36 -18 20 -21 49 -11 101 9 44 63 58 138
37 90 -27 143 -104 161 -238 5 -39 10 -48 26 -48 18 0 19 8 19 134 0 139 3
150 45 158 12 2 20 11 20 23 0 19 -8 20 -138 23 l-138 3 21 29 21 30 -27 35
c-14 19 -29 35 -33 35 -3 0 -17 -17 -29 -36z"/>
<path d="M1245 2141 c-6 -6 -30 -11 -55 -13 -37 -2 -45 -6 -45 -23 0 -12 8
-21 20 -23 11 -2 26 -11 33 -20 15 -20 16 -114 0 -130 -9 -9 -9 -15 0 -24 9
-9 12 -79 12 -256 l0 -243 -22 15 c-35 25 -52 21 -34 -6 40 -63 56 -144 56
-291 0 -155 -1 -159 -53 -171 -20 -5 -27 -12 -25 -24 3 -16 29 -17 301 -20
282 -2 297 -1 297 16 0 11 -13 24 -32 33 l-33 14 1 225 c0 158 4 232 12 248
11 20 10 22 -9 22 -11 0 -36 -15 -54 -33 -44 -44 -65 -138 -65 -290 0 -102 -2
-118 -23 -148 -40 -60 -123 -65 -178 -9 l-29 28 0 439 c0 328 3 442 12 451 9
9 9 15 0 24 -7 7 -12 37 -12 68 0 58 11 80 41 80 22 0 31 13 23 34 -4 12 -20
16 -54 16 -27 0 -52 5 -55 10 -8 13 -18 13 -30 1z"/>
<path d="M1894 2140 c-5 -5 -31 -10 -59 -12 -42 -3 -50 -6 -50 -23 0 -12 8
-21 20 -23 11 -2 26 -9 33 -14 15 -13 16 -120 0 -136 -8 -8 -8 -15 0 -24 6 -8
12 -79 14 -180 4 -198 -1 -188 138 -256 101 -49 180 -112 180 -144 0 -10 5
-16 10 -13 7 4 10 -48 10 -149 0 -147 -1 -156 -23 -181 -43 -51 -161 -44 -186
11 -6 14 -11 71 -11 127 -1 130 -13 224 -36 272 -18 38 -65 75 -97 75 -15 0
-16 -3 -5 -22 9 -17 13 -86 13 -248 l0 -225 -32 -14 c-20 -9 -33 -22 -33 -33
0 -17 17 -18 300 -18 295 0 300 0 300 20 0 15 -9 22 -30 27 -17 3 -35 14 -40
24 -16 28 -13 912 2 927 10 10 10 17 0 32 -14 24 -16 94 -2 119 5 10 23 21 40
25 27 5 30 8 20 26 -8 15 -21 20 -53 20 -24 0 -48 5 -55 12 -9 9 -15 9 -24 0
-7 -7 -33 -12 -59 -12 -34 0 -49 -4 -53 -16 -8 -21 1 -34 23 -34 9 0 22 -5 29
-12 16 -16 16 -120 0 -136 -9 -9 -9 -15 0 -24 9 -9 12 -73 12 -224 l0 -213
-57 34 c-32 19 -84 50 -115 69 l-58 35 0 144 c0 98 4 147 12 155 9 9 9 15 0
24 -16 16 -16 123 1 136 6 5 21 12 32 14 12 2 20 11 20 23 0 17 -8 20 -50 23
-27 2 -54 7 -60 12 -7 6 -15 6 -21 0z"/>
<path d="M2705 2140 c-4 -6 -61 -10 -140 -10 -112 0 -134 -2 -139 -16 -8 -21
1 -34 23 -34 9 0 22 -5 29 -12 16 -16 16 -120 0 -136 -9 -9 -9 -15 0 -24 8 -8
12 -52 12 -130 0 -80 5 -130 14 -153 15 -35 69 -75 223 -164 116 -67 115 -65
111 -269 l-3 -174 -33 -29 c-61 -55 -157 -32 -180 44 -6 17 -13 91 -15 162 -6
149 -23 212 -69 250 -35 29 -90 36 -67 8 11 -12 15 -70 18 -248 l3 -233 -36
-12 c-25 -8 -36 -18 -36 -31 0 -18 11 -19 300 -19 295 0 300 0 300 20 0 15 -9
22 -31 27 -20 4 -34 14 -40 30 -5 13 -9 117 -9 231 l0 206 -58 56 c-32 30 -99
77 -148 104 -138 76 -134 69 -134 202 0 88 3 114 15 124 14 12 14 15 0 30 -24
26 -10 84 27 115 54 46 141 26 172 -39 19 -40 20 -68 4 -84 -8 -8 -8 -15 -1
-24 6 -7 13 -53 16 -103 3 -49 13 -111 22 -137 19 -55 65 -98 103 -98 19 0 23
3 13 9 -15 10 -30 123 -30 242 -1 57 3 80 14 89 14 12 14 15 0 30 -15 17 -19
67 -9 108 4 15 17 25 36 29 33 7 40 15 32 37 -5 14 -27 16 -139 16 -79 0 -136
4 -140 10 -3 6 -10 10 -15 10 -5 0 -12 -4 -15 -10z"/>
<path d="M3175 2140 c-3 -5 -26 -10 -50 -10 -34 0 -47 -5 -55 -19 -11 -22 -8
-25 31 -34 20 -5 28 -15 33 -38 10 -51 7 -86 -9 -99 -13 -11 -13 -15 0 -33 22
-31 22 -487 1 -487 -8 0 -18 5 -21 10 -3 6 -13 10 -21 10 -11 0 -12 -4 -4 -19
5 -11 21 -51 35 -89 22 -61 25 -85 24 -193 -1 -155 -5 -170 -47 -181 -22 -6
-32 -14 -32 -28 0 -19 7 -20 130 -20 123 0 130 1 130 20 0 14 -10 22 -32 28
-22 5 -35 16 -39 33 -4 13 -7 219 -8 458 -1 391 1 436 16 453 15 17 15 19 0
36 -18 20 -21 49 -11 101 5 25 13 33 36 38 33 7 40 15 32 37 -4 12 -20 16 -54
16 -27 0 -52 5 -55 10 -3 6 -10 10 -15 10 -5 0 -12 -4 -15 -10z"/>
<path d="M3475 2140 c-3 -5 -26 -10 -50 -10 -33 0 -47 -5 -55 -19 -8 -17 -5
-21 24 -31 40 -13 46 -25 46 -90 0 -35 -4 -50 -16 -54 -16 -6 -16 -8 0 -24 14
-16 16 -51 16 -261 l0 -242 -22 15 c-35 25 -52 21 -34 -6 40 -62 56 -145 56
-283 0 -75 -4 -144 -10 -154 -5 -10 -23 -21 -40 -25 -23 -4 -31 -11 -28 -23 3
-17 26 -18 301 -21 282 -2 297 -1 297 16 0 11 -13 24 -32 33 l-33 14 -3 459
c-2 338 1 462 9 473 9 10 9 17 1 25 -16 16 -15 121 0 136 7 7 20 12 29 12 22
0 31 13 23 34 -4 12 -19 16 -53 16 -26 0 -53 6 -59 12 -10 10 -15 10 -20 1 -4
-6 -30 -13 -57 -15 -42 -3 -50 -6 -50 -23 0 -12 8 -21 20 -23 11 -2 26 -11 33
-20 15 -20 16 -114 0 -130 -9 -9 -9 -15 0 -24 19 -19 17 -847 -2 -892 -29 -70
-130 -84 -188 -26 l-28 28 0 439 c0 328 3 442 12 451 9 9 9 15 0 24 -7 7 -12
39 -12 75 0 63 0 64 30 70 35 7 43 15 34 37 -4 12 -20 16 -54 16 -27 0 -52 5
-55 10 -3 6 -10 10 -15 10 -5 0 -12 -4 -15 -10z"/>
<path d="M4115 2141 c-6 -6 -30 -11 -55 -13 -37 -2 -45 -6 -45 -23 0 -12 8
-21 20 -23 11 -2 26 -11 33 -20 15 -20 16 -114 0 -130 -9 -9 -9 -15 0 -24 9
-9 12 -79 12 -256 l0 -243 -22 15 c-12 9 -29 16 -37 16 -12 0 -12 -3 1 -17 9
-10 19 -34 23 -53 4 -19 14 -47 21 -62 17 -32 20 -298 4 -328 -5 -10 -24 -21
-40 -25 -22 -5 -30 -12 -28 -23 3 -15 21 -17 131 -20 118 -2 127 -1 127 16 0
11 -13 24 -32 33 l-33 14 -3 298 c-2 226 1 297 9 291 9 -5 10 0 6 16 -11 43
28 108 123 201 l90 89 -2 -447 -3 -448 -32 -14 c-20 -9 -33 -22 -33 -33 0 -16
11 -18 125 -18 112 0 125 2 125 18 0 9 -15 24 -33 32 l-32 15 -3 303 c-1 203
1 301 8 297 6 -4 10 7 10 28 0 43 32 87 139 192 l82 80 -3 -440 c-2 -242 -7
-448 -12 -457 -4 -9 -21 -20 -37 -23 -20 -5 -29 -13 -29 -26 0 -18 8 -19 130
-19 124 0 130 1 130 20 0 15 -9 22 -30 27 -17 3 -35 14 -40 24 -6 10 -10 198
-10 467 0 391 2 451 15 462 14 12 14 15 0 30 -17 19 -20 91 -5 119 5 10 23 21
40 25 27 5 30 8 20 26 -8 15 -21 20 -53 20 -24 0 -48 5 -55 12 -9 9 -15 9 -24
0 -7 -7 -34 -12 -60 -12 -26 0 -48 -2 -48 -4 0 -2 -3 -11 -6 -20 -4 -11 2 -19
20 -26 54 -20 22 -87 -108 -225 l-76 -80 3 145 2 145 33 14 c49 22 38 45 -23
49 -27 2 -55 8 -61 13 -8 7 -14 6 -19 -1 -3 -5 -29 -10 -56 -10 -62 0 -75 -21
-34 -54 22 -18 26 -27 20 -47 -10 -33 -47 -82 -132 -174 l-73 -79 0 60 c0 33
5 65 12 72 9 9 9 15 0 24 -7 7 -12 37 -12 68 0 58 11 80 41 80 22 0 31 13 23
34 -4 12 -20 16 -54 16 -27 0 -52 5 -55 10 -8 13 -18 13 -30 1z"/>
</g>
</svg>
