<?xml version="1.0" standalone="no"?>
<!DOCTYPE svg PUBLIC "-//W3C//DTD SVG 20010904//EN"
 "http://www.w3.org/TR/2001/REC-SVG-20010904/DTD/svg10.dtd">
<svg version="1.0" xmlns="http://www.w3.org/2000/svg" viewBox="0 0 3000.000000 3000.000000"
 preserveAspectRatio="xMidYMid meet">
<g transform="translate(0.000000,3000.000000) scale(0.100000,-0.100000)"
fill="currentColor" stroke="none">
<path d="M14881 29838 c-29 -90 -122 -363 -206 -608 -218 -636 -439 -1362
-464 -1523 -6 -34 -15 -379 -21 -767 -31 -2070 -44 -3023 -90 -6315 -60 -4391
-59 -4287 -71 -4515 -35 -655 -152 -997 -435 -1270 -316 -304 -679 -479 -1414
-678 -192 -53 -283 -68 -585 -101 -841 -93 -1717 -102 -2383 -26 -100 11 -117
16 -150 42 -49 39 -96 119 -130 218 -24 72 -26 93 -26 220 2 329 85 894 199
1346 53 207 63 311 32 317 -25 5 -56 -25 -141 -138 -561 -743 -1219 -2063
-1481 -2969 -154 -537 -153 -768 10 -1441 35 -146 73 -314 85 -375 21 -110 60
-215 79 -215 21 0 92 74 180 188 49 65 146 191 216 281 163 214 307 383 403
472 182 170 515 355 807 448 432 139 1218 248 2095 291 537 26 2581 86 2597
76 1 -1 6 -40 12 -86 18 -152 33 -471 34 -755 l2 -279 -163 -32 c-321 -64
-608 -163 -917 -314 -233 -115 -453 -247 -803 -483 -258 -174 -286 -190 -325
-190 -32 1 -96 26 -261 102 -284 132 -619 301 -776 392 -125 72 -490 252 -497
245 -3 -2 27 -59 65 -127 223 -400 608 -1177 674 -1360 8 -23 -7 -50 -144
-255 -523 -782 -750 -1326 -893 -2139 -53 -300 -66 -335 -147 -376 -122 -62
-448 -175 -993 -344 -220 -68 -425 -133 -455 -143 l-55 -20 50 -22 c28 -12 64
-28 82 -35 17 -7 122 -39 234 -70 245 -69 538 -165 867 -287 268 -98 295 -110
330 -142 37 -33 47 -60 82 -216 185 -828 472 -1527 884 -2155 111 -169 111
-169 111 -230 0 -54 -9 -79 -85 -245 -100 -219 -242 -502 -442 -880 -144 -271
-203 -399 -196 -420 4 -14 209 87 603 297 477 255 846 435 919 448 44 9 92
-12 180 -79 478 -359 1301 -707 2085 -881 86 -19 188 -39 226 -46 128 -21 156
-45 220 -185 116 -251 224 -541 260 -697 8 -35 22 -83 30 -108 9 -24 45 -152
81 -284 71 -263 112 -395 123 -395 12 0 68 167 107 315 78 304 223 736 354
1060 108 267 109 268 291 301 719 132 1555 481 2270 946 l137 89 48 -20 c231
-91 670 -310 1211 -603 184 -99 336 -178 339 -175 9 8 -69 165 -185 372 -140
249 -358 682 -487 965 -87 193 -97 221 -98 275 -1 59 1 62 76 173 385 565 763
1485 882 2144 27 150 45 199 85 227 50 36 576 242 867 339 66 23 221 66 345
97 287 71 409 106 409 115 0 21 -130 66 -695 241 -506 156 -831 273 -905 324
-49 34 -56 49 -80 185 -134 730 -480 1584 -900 2225 -99 151 -120 190 -120
226 0 30 142 382 230 571 77 167 182 360 332 617 92 155 141 251 134 258 -6 7
-178 -75 -306 -146 -311 -173 -685 -359 -957 -475 -99 -42 -144 -56 -180 -56
-55 0 -67 7 -173 100 -328 287 -750 532 -1245 720 -204 77 -644 212 -770 236
-27 5 -37 13 -43 33 -9 35 -8 967 2 1054 l8 67 136 0 c244 0 2213 -82 2887
-120 600 -34 822 -55 1019 -95 138 -28 635 -171 836 -241 374 -129 633 -276
882 -498 123 -110 199 -202 358 -437 178 -261 218 -302 262 -262 39 34 57 99
102 373 83 499 123 843 133 1130 5 154 3 188 -16 289 -114 589 -621 1598
-1329 2641 -162 238 -377 536 -418 578 -58 58 -102 33 -85 -50 5 -23 34 -140
64 -258 134 -521 287 -1282 287 -1425 0 -99 -56 -254 -122 -337 -35 -45 -105
-81 -140 -74 -13 3 -228 10 -478 16 -1284 30 -1592 44 -2115 101 -154 16 -247
34 -485 90 -537 128 -706 179 -900 270 -238 113 -479 312 -603 500 -170 258
-275 603 -317 1049 -5 52 -41 2707 -80 5900 l-71 5805 -80 254 c-145 458 -336
987 -550 1521 -141 352 -193 473 -205 477 -5 2 -34 -70 -63 -159z m1068
-19985 c256 -73 466 -177 808 -399 l112 -73 -45 -103 c-134 -302 -224 -481
-648 -1292 -80 -154 -146 -288 -146 -298 0 -10 7 -21 15 -24 8 -3 100 42 207
102 266 149 820 427 1132 567 143 65 269 120 280 123 17 4 30 -9 73 -78 184
-293 338 -700 414 -1095 17 -93 15 -95 -212 -185 -257 -101 -385 -144 -884
-293 -396 -118 -504 -157 -512 -181 -2 -5 65 -29 149 -53 211 -60 870 -281
1178 -395 l255 -94 -3 -29 c-8 -62 -73 -296 -117 -418 -48 -135 -167 -391
-231 -498 -21 -34 -73 -117 -117 -185 -70 -108 -83 -123 -102 -118 -92 23
-728 333 -1130 551 -137 74 -255 135 -261 135 -6 0 -16 -6 -22 -13 -8 -9 5
-40 50 -117 184 -320 462 -885 625 -1268 l13 -32 -112 -74 c-284 -186 -596
-325 -947 -422 -149 -41 -209 -44 -246 -11 -17 15 -49 80 -96 197 -158 392
-253 682 -334 1015 -40 164 -84 296 -105 319 -9 9 -39 -85 -194 -599 -58 -192
-132 -429 -164 -525 -54 -161 -152 -419 -170 -447 -13 -21 -286 36 -493 103
-243 78 -532 213 -734 345 -94 61 -106 72 -99 92 22 73 103 286 146 386 107
245 267 540 448 821 142 222 135 209 118 227 -14 13 -30 7 -154 -68 -202 -120
-441 -246 -690 -363 -225 -106 -614 -276 -631 -276 -15 0 -147 181 -209 286
-82 140 -196 381 -249 529 -48 131 -115 377 -115 419 0 20 18 30 146 80 202
78 466 166 894 296 306 93 581 179 586 184 1 0 4 11 8 22 6 20 0 24 -66 44
-40 12 -163 45 -273 72 -352 87 -511 140 -1005 338 -245 98 -295 125 -321 173
-7 13 3 69 35 200 75 304 154 518 276 755 63 121 214 362 227 362 13 0 322
-139 518 -233 287 -138 704 -355 968 -504 75 -42 117 -50 117 -21 0 6 -68 140
-152 297 -214 404 -428 832 -531 1065 l-88 198 23 25 c40 43 215 154 352 223
225 114 507 213 668 235 39 5 47 3 52 -12 18 -59 122 -466 215 -842 223 -890
382 -1628 490 -2264 21 -125 40 -229 42 -231 2 -2 14 -6 26 -10 19 -6 22 -2
28 36 53 333 205 1107 315 1603 117 529 199 862 407 1653 l27 103 41 -7 c22
-3 78 -17 124 -31z"/>
</g>
</svg>
