<?xml version="1.0" standalone="no"?>
<!DOCTYPE svg PUBLIC "-//W3C//DTD SVG 20010904//EN"
 "http://www.w3.org/TR/2001/REC-SVG-20010904/DTD/svg10.dtd">
<svg version="1.0" xmlns="http://www.w3.org/2000/svg" viewBox="0 0 1000.000000 229.000000"
 preserveAspectRatio="xMidYMid meet">
<g transform="translate(0.000000,229.000000) scale(0.100000,-0.100000)"
fill="currentColor" stroke="none">
<path d="M425 2274 c-147 -36 -312 -148 -367 -250 -48 -90 -60 -146 -56 -252
3 -85 7 -106 35 -166 57 -119 153 -224 318 -347 33 -25 184 -126 335 -224 151
-98 296 -196 322 -218 51 -41 125 -146 151 -214 94 -242 -22 -488 -261 -552
-31 -9 -42 -17 -42 -31 0 -27 51 -27 150 1 161 44 310 149 364 257 114 224 54
492 -158 707 -81 82 -118 108 -476 336 -346 220 -414 277 -471 394 -31 63 -34
78 -34 155 0 75 4 93 31 150 43 90 142 183 224 212 22 7 30 16 30 34 0 28 -9
29 -95 8z"/>
<path d="M780 2271 c0 -11 1 -21 3 -21 334 -47 469 -199 494 -557 6 -89 7 -93
30 -93 l23 0 0 279 0 279 -77 30 c-149 58 -274 90 -395 99 -75 6 -78 5 -78
-16z"/>
<path d="M2371 2134 c-30 -81 -54 -152 -54 -158 0 -18 156 -416 163 -416 3 0
33 76 67 170 l61 169 -77 188 c-45 110 -84 189 -92 191 -10 2 -30 -40 -68
-144z"/>
<path d="M3542 2258 c2 -17 12 -24 38 -29 75 -12 111 -62 129 -179 14 -85 14
-1589 1 -1683 -17 -116 -55 -168 -134 -182 -26 -5 -36 -12 -36 -26 0 -18 11
-19 215 -19 l215 0 0 1070 0 1070 -216 0 -215 0 3 -22z"/>
<path d="M5170 2255 c0 -22 4 -25 35 -25 51 0 101 -48 123 -119 16 -51 17
-125 17 -901 0 -787 -1 -849 -18 -904 -22 -71 -51 -102 -111 -118 -33 -9 -46
-17 -46 -30 0 -17 15 -18 215 -18 l215 0 0 1070 0 1070 -215 0 -215 0 0 -25z"/>
<path d="M7571 2258 c-4 -13 -30 -81 -56 -152 l-47 -129 101 -261 c55 -144
152 -394 215 -556 l114 -295 -417 -3 -416 -3 -58 -157 c-74 -197 -164 -384
-213 -441 -41 -47 -86 -71 -134 -71 -25 0 -30 -4 -30 -25 l0 -25 325 0 325 0
0 25 c0 22 -4 25 -40 25 -107 0 -189 40 -216 107 -30 70 -11 204 58 416 l32
97 402 0 402 0 62 -157 c93 -238 103 -271 104 -346 1 -63 -1 -70 -27 -93 -16
-14 -41 -24 -58 -24 -24 0 -29 -4 -29 -25 l0 -25 305 0 305 0 0 24 c0 20 -6
24 -40 30 -56 9 -101 53 -149 145 -22 43 -117 271 -210 507 -156 397 -433
1090 -532 1332 -42 103 -62 123 -78 80z"/>
<path d="M8227 2273 c-4 -3 -7 -118 -7 -255 l0 -248 25 0 c22 0 25 4 25 39 0
114 49 239 120 305 99 92 186 116 433 116 l167 0 -2 -1043 c-3 -977 -4 -1045
-21 -1070 -26 -40 -59 -58 -121 -64 -51 -5 -56 -8 -56 -29 l0 -24 320 0 320 0
0 25 c0 22 -4 25 -37 25 -21 0 -56 9 -79 19 -78 36 -74 -32 -74 1132 l0 1031
183 -4 c154 -4 191 -8 241 -27 84 -30 136 -63 185 -116 56 -61 89 -135 103
-234 10 -67 15 -81 30 -81 17 0 18 16 18 255 l0 255 -883 0 c-486 0 -887 -3
-890 -7z"/>
<path d="M4220 2248 c0 -22 6 -27 38 -33 20 -3 60 -17 87 -29 148 -67 205
-190 205 -444 0 -316 -83 -462 -278 -488 -45 -6 -52 -10 -52 -28 0 -21 7 -23
98 -34 114 -13 170 -31 232 -73 121 -83 180 -250 166 -474 -18 -301 -135 -427
-418 -451 -74 -7 -78 -8 -78 -32 l0 -24 113 6 c429 25 602 118 673 361 21 74
24 247 5 325 -49 198 -209 343 -428 386 -43 9 -89 18 -103 21 -20 4 -15 8 34
24 210 71 326 247 326 494 -1 328 -162 483 -532 511 l-88 7 0 -25z"/>
<path d="M5842 2248 c2 -17 16 -25 64 -38 151 -41 233 -134 263 -296 16 -82
14 -279 -3 -367 -20 -104 -51 -170 -101 -216 -52 -48 -99 -69 -171 -77 -47 -6
-54 -10 -54 -28 0 -20 8 -23 103 -33 120 -14 180 -34 245 -83 110 -83 160
-240 149 -465 -14 -276 -117 -407 -349 -445 -35 -5 -82 -10 -105 -10 -40 0
-43 -2 -43 -26 l0 -27 113 7 c305 18 454 61 555 159 94 91 132 198 132 372 0
182 -43 297 -151 400 -80 77 -255 155 -345 155 -55 0 -54 13 2 32 208 70 324
249 324 497 -1 254 -111 412 -330 474 -65 19 -193 37 -256 37 -41 0 -45 -2
-42 -22z"/>
<path d="M2619 1804 c-34 -90 -112 -310 -112 -319 0 -6 52 -146 116 -312 65
-166 117 -304 117 -307 0 -3 -187 -6 -415 -6 -387 0 -416 -1 -422 -17 -77
-227 -197 -495 -253 -571 -36 -48 -94 -82 -140 -82 -25 0 -30 -4 -30 -25 l0
-25 325 0 325 0 0 25 c0 23 -3 25 -48 25 -68 0 -150 27 -183 59 -65 66 -61
181 17 421 l45 140 402 -2 402 -3 79 -205 c79 -206 98 -289 82 -354 -7 -27
-51 -56 -86 -56 -15 0 -20 -6 -20 -25 l0 -25 305 0 305 0 0 24 c0 20 -6 24
-41 30 -58 9 -93 37 -132 104 -45 77 -59 111 -358 867 -144 363 -263 662 -265
664 -2 2 -8 -9 -15 -25z"/>
<path d="M30 465 l0 -314 73 -34 c133 -63 339 -117 448 -117 42 0 49 3 49 20
0 13 -9 21 -27 25 -82 16 -184 50 -230 76 -111 64 -195 189 -232 350 -16 66
-41 251 -41 300 0 5 -9 9 -20 9 -20 0 -20 -7 -20 -315z"/>
</g>
</svg>
