<?xml version="1.0" standalone="no"?>
<!DOCTYPE svg PUBLIC "-//W3C//DTD SVG 20010904//EN"
 "http://www.w3.org/TR/2001/REC-SVG-20010904/DTD/svg10.dtd">
<svg version="1.0" xmlns="http://www.w3.org/2000/svg" viewBox="0 0 600.000000 632.000000"
 preserveAspectRatio="xMidYMid meet">

<g transform="translate(0.000000,632.000000) scale(0.100000,-0.100000)"
fill="currentColor" stroke="none">
<path d="M5820 6135 c-147 -283 -296 -531 -356 -596 -13 -14 -35 -54 -49 -90
-16 -41 -38 -75 -60 -94 -19 -16 -54 -66 -78 -110 -31 -59 -48 -81 -65 -83
-33 -5 -82 -79 -124 -190 -1 -4 -16 -14 -33 -23 -23 -12 -35 -30 -52 -80 -12
-35 -24 -76 -27 -91 -4 -19 -14 -28 -36 -33 -34 -7 -41 -38 -13 -53 14 -8 12
-14 -18 -40 -19 -17 -38 -32 -42 -32 -4 0 -3 -9 3 -21 9 -16 8 -25 -6 -40 -24
-27 -33 -24 -49 15 -10 24 -23 36 -42 41 -19 4 -37 21 -56 52 -17 29 -32 43
-41 40 -8 -3 -20 0 -26 8 -6 8 -35 28 -63 46 -29 18 -64 43 -79 57 -18 17 -32
22 -47 17 -17 -5 -21 -2 -21 14 0 31 -33 58 -79 66 -38 6 -40 9 -34 33 5 21 3
24 -11 19 -10 -4 -34 2 -56 13 -22 11 -46 20 -54 20 -8 0 -17 9 -21 19 -5 17
-53 57 -59 49 -2 -2 -13 -25 -26 -51 -25 -54 -35 -50 -46 20 -6 39 -10 43 -67
71 -34 16 -73 34 -87 40 -24 10 -23 11 15 12 l40 2 -42 19 c-33 15 -48 17 -62
9 -16 -8 -22 -6 -29 7 -7 12 -56 24 -203 49 -107 18 -195 29 -197 24 -2 -5
-13 -5 -28 0 -13 5 -31 7 -39 4 -8 -4 -15 -1 -15 4 0 17 -67 32 -99 22 -16 -4
-65 -11 -108 -15 -57 -5 -88 -13 -115 -31 -20 -13 -40 -20 -43 -14 -3 5 -13 9
-23 8 -9 0 -38 8 -64 18 l-46 18 -68 -36 c-57 -29 -77 -46 -90 -76 -1 -2 -14
8 -29 22 -38 35 -89 44 -132 21 -31 -17 -33 -21 -33 -72 0 -57 -7 -64 -35 -33
-24 26 -50 33 -74 20 -11 -5 -51 -17 -88 -24 -76 -16 -266 -82 -334 -116 -77
-39 -172 -107 -224 -159 -27 -28 -52 -51 -56 -51 -9 0 -141 325 -175 430 -15
45 -49 125 -75 178 -27 52 -49 106 -49 119 0 13 -4 22 -9 19 -9 -6 -13 3 -54
124 -25 71 -92 245 -138 355 -12 28 -22 62 -23 76 -3 31 -13 49 -28 49 -6 0
-3 -9 7 -20 10 -11 16 -22 13 -25 -2 -2 -15 12 -28 33 -13 20 -48 57 -78 81
l-55 44 7 -36 c5 -25 3 -37 -4 -37 -14 0 40 -101 57 -107 15 -6 7 -103 -9
-114 -5 -3 2 -30 16 -60 26 -59 58 -169 76 -264 7 -33 37 -136 67 -230 29 -93
57 -189 60 -213 4 -30 9 -40 16 -33 17 17 31 13 17 -4 -20 -24 -6 -155 30
-280 18 -60 36 -114 41 -119 15 -17 11 -46 -6 -40 -11 5 -9 -7 10 -47 50 -109
46 -168 -19 -238 -37 -39 -46 -58 -62 -123 -21 -94 -28 -108 -46 -90 -15 15
-28 15 -28 0 0 -7 -13 -20 -29 -29 -52 -30 -111 -136 -111 -200 0 -19 -9 -34
-30 -49 -28 -20 -30 -26 -30 -81 0 -45 -3 -59 -15 -59 -31 0 -43 -42 -48 -175
-4 -122 -11 -157 -39 -196 -9 -13 -7 -26 10 -61 12 -24 22 -47 22 -50 0 -3
-15 -9 -34 -12 -65 -12 -71 -29 -72 -210 -1 -88 -4 -191 -8 -228 l-7 -67 -52
-19 c-29 -11 -126 -29 -217 -41 -259 -34 -292 -41 -343 -69 -55 -30 -78 -58
-99 -122 -26 -79 -30 -100 -15 -100 7 0 22 -7 34 -15 l22 -15 -42 -43 c-35
-34 -47 -56 -65 -122 -13 -44 -25 -89 -29 -99 -6 -17 -2 -19 38 -13 24 4 55
10 69 14 24 6 24 6 -7 -31 -18 -20 -33 -46 -33 -58 0 -20 3 -21 108 -16 123 6
178 27 209 78 17 29 43 41 43 19 0 -8 4 -8 15 1 15 13 35 6 35 -13 0 -7 4 -18
9 -25 12 -19 54 4 124 68 59 54 67 52 67 -15 l0 -34 88 25 c48 13 108 24 134
24 44 0 50 -3 74 -39 15 -24 31 -38 39 -34 11 4 13 -3 8 -31 -16 -101 224
-442 472 -669 176 -161 371 -322 441 -364 163 -98 467 -225 569 -238 96 -11
125 -33 125 -92 0 -16 7 -27 18 -30 14 -3 18 -11 14 -28 -7 -36 39 -176 112
-340 8 -16 17 -41 21 -55 10 -33 25 -51 37 -44 5 3 6 -14 2 -44 -7 -55 -7 -55
75 -127 l34 -30 -7 27 c-16 67 40 228 108 313 32 40 51 73 48 87 -1 4 9 19 23
34 28 30 34 21 9 -14 -9 -13 -14 -26 -11 -29 9 -9 37 55 31 71 -4 10 1 18 11
22 10 4 29 33 44 64 15 31 32 55 37 53 6 -2 19 15 29 37 18 39 19 40 70 40 35
0 55 5 58 14 3 7 19 16 35 19 16 3 43 9 58 13 27 7 28 6 14 -11 -14 -16 -13
-17 5 -12 11 3 33 8 49 12 23 5 27 8 15 16 -12 8 -12 10 1 19 11 7 17 4 24
-10 10 -23 19 -24 47 -9 11 5 65 19 120 29 86 17 117 29 217 83 136 75 207
107 234 107 26 0 73 25 135 71 29 22 63 39 77 39 16 0 52 23 101 65 42 36 82
65 89 65 7 0 40 17 73 39 61 39 103 94 103 134 0 16 3 19 9 8 5 -7 14 -10 20
-7 6 4 9 11 6 16 -3 4 2 13 10 20 8 7 15 21 15 30 0 10 18 33 41 50 24 20 38
38 35 47 -3 8 30 51 83 107 67 70 92 104 101 136 16 61 31 90 46 90 8 0 20 14
29 30 9 16 19 30 24 30 4 0 15 36 25 81 10 45 34 113 57 156 21 42 39 83 39
90 0 8 10 37 22 65 16 37 19 53 10 56 -16 5 -15 27 1 44 7 7 18 30 24 52 10
32 9 42 -4 62 -14 22 -14 26 -1 42 19 21 34 122 18 122 -17 0 -11 46 10 72 18
24 19 35 11 208 -5 101 -7 189 -4 196 2 7 -2 28 -10 46 -27 58 -30 93 -10 117
16 19 22 20 53 11 30 -9 37 -8 52 10 9 11 56 34 105 51 87 30 137 58 81 44
-43 -11 -34 8 22 46 56 38 68 57 42 65 -9 3 -27 11 -39 16 -12 6 -43 8 -70 5
-50 -7 -80 3 -69 22 9 14 -63 15 -131 2 -109 -21 -113 -21 -113 -4 0 23 -39
150 -61 202 -11 24 -28 45 -39 48 -12 3 -20 14 -20 27 0 29 -59 151 -116 239
-60 92 -94 164 -94 200 0 17 57 142 140 305 77 152 223 444 324 647 198 399
322 628 446 822 43 68 74 123 69 123 -6 0 -7 5 -4 10 4 6 -5 5 -19 -2 -31 -13
-36 -9 -45 34 -6 31 -11 24 -101 -147z m-2396 -1409 c-4 -11 7 -18 38 -26 23
-6 57 -15 73 -20 41 -12 102 -16 111 -7 13 13 24 7 24 -13 0 -25 31 -45 122
-79 40 -15 118 -52 173 -82 116 -64 184 -92 213 -87 15 2 29 -7 44 -28 58 -79
122 -153 136 -159 8 -3 43 -8 76 -12 50 -5 66 -11 88 -35 27 -29 28 -30 11
-61 -9 -18 -18 -44 -19 -60 -5 -37 -45 -111 -79 -145 -31 -30 -135 -239 -139
-280 -2 -15 -11 -29 -23 -33 -12 -4 -37 -35 -58 -68 -54 -89 -82 -107 -185
-115 -64 -5 -101 -14 -150 -37 -43 -20 -80 -31 -108 -30 -24 0 -64 -7 -89 -15
-25 -9 -52 -13 -61 -9 -40 15 -212 -42 -212 -71 0 -27 -67 -33 -85 -8 -9 13
-19 15 -46 8 -33 -7 -33 -8 -9 -14 29 -8 -60 -25 -198 -39 -52 -6 -89 -14
-101 -25 -24 -22 -34 -20 -26 5 6 17 4 20 -12 15 -119 -36 -278 -79 -318 -86
-27 -4 -85 -15 -128 -24 -108 -23 -136 -19 -164 24 -12 19 -29 42 -37 50 -18
18 -56 114 -56 139 0 10 -22 65 -50 122 -27 57 -50 112 -50 121 0 10 -16 47
-35 84 -19 36 -35 76 -35 89 0 13 -9 44 -20 69 -11 26 -19 48 -20 51 0 20 -15
63 -26 75 -18 22 -86 152 -88 170 -2 8 -12 35 -24 60 -24 49 -27 76 -12 85 16
10 12 25 -5 19 -18 -7 -20 12 -3 22 7 5 31 8 53 9 36 0 40 3 43 27 2 16 11 30
22 33 11 3 32 21 47 39 16 19 41 36 58 39 59 11 145 48 145 63 0 8 10 14 23
14 13 0 71 30 128 66 146 93 157 98 219 100 35 1 92 15 155 38 88 33 104 36
137 26 47 -13 511 -5 516 10 2 6 8 10 13 10 4 0 6 -6 3 -14z m-1785 -872 c14
-17 21 -41 21 -68 0 -23 9 -59 19 -80 11 -21 17 -44 15 -51 -3 -7 3 -22 13
-32 10 -10 36 -76 57 -145 22 -70 43 -125 48 -122 12 7 10 -3 -4 -27 -12 -18
-9 -24 20 -49 37 -35 39 -40 12 -40 -25 0 -25 -5 1 -42 20 -28 26 -45 51 -148
6 -25 13 -39 16 -32 3 10 8 8 18 -5 16 -21 18 -37 4 -28 -5 3 -56 -9 -112 -28
-69 -23 -139 -38 -212 -46 -61 -6 -112 -14 -115 -19 -8 -9 -65 -31 -118 -45
-36 -8 -46 -8 -60 6 -16 13 -18 32 -16 139 3 167 1 155 22 228 11 36 22 86 26
112 3 25 13 52 21 59 24 20 54 85 54 117 0 16 31 91 70 167 44 86 68 145 64
157 -4 13 -1 16 10 12 9 -3 20 3 28 15 17 27 22 26 47 -5z m3145 -204 c26 -66
48 -123 49 -126 3 -10 -37 -20 -152 -39 -53 -9 -104 -18 -113 -21 -16 -5 -16
-2 1 37 11 23 26 46 35 51 9 5 16 13 16 18 0 13 102 200 110 200 4 0 28 -54
54 -120z m79 -507 c-11 -38 -7 -162 6 -195 8 -21 7 -34 -4 -55 -18 -33 -19
-77 -4 -105 9 -17 8 -23 -5 -30 -9 -5 -16 -17 -16 -26 0 -29 -67 -302 -89
-366 -12 -33 -21 -67 -21 -76 0 -10 -7 -23 -15 -30 -8 -7 -15 -27 -16 -44 l-1
-31 -12 27 c-11 27 -12 26 -35 -37 -12 -35 -20 -68 -17 -74 3 -5 -3 -20 -14
-34 -11 -14 -20 -36 -20 -49 0 -13 -10 -29 -22 -37 -22 -13 -22 -13 -8 4 13
16 13 18 0 13 -8 -2 -26 -36 -40 -75 -19 -56 -36 -83 -76 -121 -28 -27 -56
-64 -64 -81 -7 -17 -18 -31 -25 -31 -7 0 -22 -15 -33 -34 -19 -33 -108 -99
-164 -124 -16 -6 -28 -16 -28 -22 0 -6 -5 -8 -11 -5 -13 9 -47 -26 -42 -42 6
-17 -42 -50 -105 -73 -31 -11 -65 -25 -75 -31 -10 -5 -27 -7 -37 -4 -13 4 -20
0 -25 -15 -7 -23 -39 -43 -75 -47 -14 -1 -34 -6 -45 -12 -71 -33 -97 -41 -107
-35 -7 5 -8 3 -3 -6 6 -10 4 -12 -9 -7 -11 4 -31 -1 -50 -12 -20 -13 -37 -17
-46 -11 -9 5 -21 3 -34 -6 -29 -20 -38 -17 -31 7 5 15 4 19 -4 15 -16 -11 -13
1 9 34 11 17 29 43 39 58 69 104 108 221 81 248 -12 12 12 49 31 49 8 0 24 18
36 40 13 23 29 39 37 37 21 -4 33 24 46 104 7 38 14 79 16 91 3 15 19 29 49
42 41 18 60 41 35 41 -5 0 -10 5 -10 10 0 6 6 10 13 10 7 0 23 7 35 16 17 12
20 19 13 28 -8 10 -5 18 10 32 12 11 18 26 15 37 -3 11 2 31 11 44 13 19 14
29 5 43 -9 14 -8 19 5 24 11 4 14 16 11 41 -3 29 0 35 20 40 23 6 23 6 7 32
-17 25 -17 26 1 18 11 -4 34 -10 53 -13 28 -4 33 -2 28 11 -3 9 1 21 9 28 8 7
12 19 9 27 -3 8 6 22 20 34 31 24 33 45 3 24 -35 -25 -44 -19 -16 12 51 54 61
99 29 131 -18 18 -17 19 15 45 23 18 37 41 45 71 8 30 17 45 28 45 23 1 85 56
72 64 -16 10 -13 26 3 20 10 -4 17 15 26 75 l13 80 71 35 c39 19 98 42 131 52
49 14 339 80 368 83 4 1 4 -11 0 -26z m-905 -180 c-9 -10 -26 -38 -38 -62 -12
-24 -43 -74 -69 -110 -67 -93 -121 -185 -121 -207 -1 -11 -21 -35 -46 -54 -55
-43 -63 -55 -104 -152 -17 -43 -46 -96 -64 -120 -48 -63 -68 -107 -62 -133 5
-18 -2 -29 -29 -50 -30 -22 -108 -149 -110 -178 0 -5 -9 -16 -20 -24 -14 -11
-16 -17 -7 -20 10 -4 10 -8 1 -19 -6 -8 -16 -14 -21 -14 -10 0 -47 -40 -48
-51 0 -4 -16 -33 -35 -65 -20 -33 -35 -68 -33 -79 3 -24 -29 -75 -47 -75 -7 0
-16 -12 -19 -26 -7 -25 -51 -74 -67 -74 -14 0 -128 242 -190 405 -39 103 -60
173 -60 197 2 44 -21 93 -49 108 -13 7 -20 21 -20 38 0 16 -18 65 -40 111 -22
45 -40 90 -40 99 -1 13 -4 11 -14 -6 -11 -20 -14 -21 -25 -8 -10 12 -9 17 8
26 24 12 27 33 8 49 -8 6 -19 30 -26 53 -7 24 -17 48 -22 54 -5 6 -6 21 -1 34
7 19 10 20 20 7 17 -20 78 -4 111 29 13 13 34 24 47 24 25 0 33 -15 12 -23 -7
-3 -8 -6 -2 -6 5 -1 19 7 30 17 12 12 63 27 139 41 66 13 156 34 200 46 44 12
130 35 190 50 61 14 124 32 140 40 17 7 46 16 65 20 19 3 55 13 80 21 25 8 64
16 88 18 23 2 59 13 80 24 20 10 52 19 71 20 48 1 131 22 131 33 0 5 5 9 12 9
7 0 5 -6 -4 -17z m1427 -462 c-3 -6 -11 -11 -17 -11 -6 0 -6 6 2 15 14 17 26
13 15 -4z m-3320 -69 c18 -12 41 -55 58 -104 14 -41 14 -46 0 -41 -13 5 -12 1
2 -28 10 -19 26 -43 36 -55 19 -20 79 -181 79 -209 0 -8 7 -18 16 -23 9 -5 14
-13 12 -18 -1 -5 19 -10 46 -12 l49 -3 -32 -33 -32 -33 35 -30 c19 -17 40 -33
47 -35 9 -3 6 -13 -11 -36 -30 -40 -21 -59 56 -120 30 -24 54 -48 54 -54 0 -9
-3 -9 -12 0 -17 17 -38 15 -38 -3 0 -8 -4 -15 -10 -15 -5 0 -10 -22 -10 -50 0
-27 5 -50 10 -50 6 0 10 -9 10 -20 0 -11 5 -20 11 -20 6 0 9 -6 6 -12 -5 -14
23 -68 35 -68 4 0 8 -8 8 -18 0 -10 5 -23 11 -29 31 -31 -149 15 -188 48 -10
8 -34 22 -53 31 -30 14 -127 89 -220 169 -14 12 -47 36 -75 54 -85 56 -325
318 -323 353 1 18 -69 146 -108 199 -13 17 -24 38 -24 45 0 7 -9 24 -20 38
-36 46 -27 56 48 63 37 3 135 26 217 51 258 77 289 84 310 68z"/>
<path d="M4860 1435 c-8 -9 -8 -15 -2 -15 12 0 26 19 19 26 -2 2 -10 -2 -17
-11z"/>
</g>
</svg>
