<?xml version="1.0" standalone="no"?>
<!DOCTYPE svg PUBLIC "-//W3C//DTD SVG 20010904//EN"
 "http://www.w3.org/TR/2001/REC-SVG-20010904/DTD/svg10.dtd">
<svg version="1.0" xmlns="http://www.w3.org/2000/svg"
 viewBox="0 0 500.000000 1174.000000"
 preserveAspectRatio="xMidYMid meet" fill="currentColor">

<g transform="translate(0.000000,1174.000000) scale(0.100000,-0.100000)"
stroke="none">
<path d="M2335 11734 c-173 -21 -335 -58 -469 -110 -596 -230 -1012 -772
-1111 -1449 -19 -129 -22 -398 -5 -530 96 -777 530 -1471 1132 -1812 l93 -53
-520 0 c-316 0 -555 4 -610 11 -118 14 -228 50 -301 97 -60 40 -159 139 -204
205 -14 20 -29 37 -35 37 -20 0 -133 -128 -172 -195 -156 -270 -173 -572 -42
-756 l21 -30 31 31 c105 103 411 200 732 231 133 13 483 7 625 -11 122 -15
244 -47 325 -85 188 -87 338 -263 394 -463 56 -202 30 -413 -76 -629 l-46 -93
17 -187 c33 -370 37 -464 43 -903 6 -481 -1 -691 -42 -1195 -75 -922 -72
-1467 11 -2070 67 -487 231 -1268 360 -1711 15 -54 18 -57 26 -34 17 44 146
560 187 745 259 1176 300 1837 191 3115 -36 426 -43 632 -37 1139 6 478 10
582 43 931 l16 176 -37 66 c-110 201 -144 460 -84 653 85 279 294 463 594 524
191 38 548 53 766 31 302 -31 599 -124 705 -222 l43 -39 30 53 c17 29 38 76
46 103 62 201 -6 505 -158 711 -49 67 -114 122 -125 108 -5 -5 -28 -35 -52
-67 -122 -162 -262 -241 -480 -267 -48 -6 -313 -10 -610 -10 l-525 0 75 41
c490 267 887 788 1064 1396 151 523 135 1006 -50 1444 -96 228 -207 391 -389
575 -283 284 -628 449 -1027 493 -90 10 -293 13 -363 5z m320 -714 c122 -18
227 -49 331 -100 349 -169 582 -504 676 -970 19 -98 23 -146 23 -325 0 -180
-3 -226 -23 -324 -91 -450 -370 -896 -699 -1119 -71 -48 -171 -102 -189 -102
-12 0 -14 49 -14 268 0 147 5 307 10 355 19 167 70 271 186 383 l63 60 -35 13
c-60 22 -179 108 -245 178 -76 80 -127 155 -190 277 l-46 89 -36 -74 c-104
-217 -264 -389 -432 -465 -22 -10 -41 -19 -43 -20 -1 -1 31 -34 72 -73 85 -83
127 -155 157 -268 18 -68 22 -117 26 -390 3 -171 3 -319 0 -328 -6 -13 -15
-11 -69 16 -205 102 -390 276 -549 513 -283 420 -380 908 -278 1385 30 139 63
232 128 366 156 320 398 532 709 620 150 43 319 56 467 35z"/>
</g>
</svg>
