<?xml version="1.0" standalone="no"?>
<!DOCTYPE svg PUBLIC "-//W3C//DTD SVG 20010904//EN"
 "http://www.w3.org/TR/2001/REC-SVG-20010904/DTD/svg10.dtd">
<svg version="1.0" xmlns="http://www.w3.org/2000/svg"
 width="1000.000000pt" height="149.000000pt" viewBox="0 0 1000.000000 149.000000"
 preserveAspectRatio="xMidYMid meet">

<g transform="translate(0.000000,149.000000) scale(0.100000,-0.100000)"
fill="#000000" stroke="none">
<path d="M532 1475 c-124 -27 -260 -109 -346 -207 -71 -81 -143 -233 -168
-353 -16 -81 -19 -122 -15 -215 7 -146 26 -219 89 -348 39 -80 64 -116 114
-165 76 -76 164 -130 259 -160 90 -28 266 -30 365 -4 72 20 189 76 234 112
l29 23 -28 71 c-15 39 -29 71 -31 71 -2 0 -25 -15 -51 -34 -147 -104 -317
-132 -463 -77 -121 46 -229 167 -285 321 -23 62 -28 96 -32 200 -6 151 10 237
63 348 41 85 141 195 205 225 56 26 148 47 205 47 77 0 202 -36 260 -75 l52
-34 26 72 c14 40 26 78 26 85 0 19 -139 81 -218 98 -83 17 -207 17 -290 -1z"/>
<path d="M1775 1423 c-10 -27 -80 -196 -155 -378 -75 -181 -148 -359 -162
-394 l-25 -63 -118 1 c-65 1 -122 4 -127 7 -4 3 -8 -13 -8 -36 l0 -42 110 7
c76 5 110 4 110 -3 0 -6 -38 -102 -85 -214 -59 -141 -95 -213 -117 -236 l-33
-33 119 3 119 3 41 105 c23 58 66 167 96 244 30 76 59 140 65 141 5 2 63 7
128 10 64 4 117 11 117 15 0 5 -49 10 -109 12 -60 1 -113 6 -117 10 -6 7 150
434 166 451 9 10 370 -898 370 -929 0 -8 -11 -26 -25 -39 l-24 -25 139 0 140
0 -9 23 c-16 40 -157 385 -341 832 -100 242 -194 470 -208 508 -15 37 -30 67
-33 67 -4 0 -14 -21 -24 -47z"/>
<path d="M4539 1424 c-11 -27 -54 -130 -94 -229 -41 -99 -114 -276 -163 -394
l-90 -213 -118 1 c-65 1 -121 4 -126 7 -4 3 -8 -13 -8 -36 l0 -41 115 7 116 7
-10 -24 c-5 -13 -43 -107 -86 -209 -57 -138 -86 -195 -113 -223 l-36 -37 119
0 120 0 95 246 c52 135 100 247 105 249 6 2 63 7 128 10 64 4 117 11 117 15 0
5 -49 10 -109 12 -60 1 -112 6 -116 9 -3 4 13 55 36 115 108 286 132 345 139
337 7 -7 95 -228 184 -458 19 -49 66 -170 105 -268 39 -99 71 -188 71 -198 0
-11 -11 -31 -25 -44 l-24 -25 139 0 c77 0 140 2 140 5 0 2 -31 80 -69 172 -38
93 -131 319 -207 503 -213 521 -306 745 -310 749 -2 2 -13 -18 -25 -45z"/>
<path d="M9376 1403 c-155 -381 -341 -821 -346 -818 -4 2 -60 5 -126 6 l-119
2 -3 -38 -3 -37 115 7 c64 4 116 4 116 -1 0 -4 -37 -98 -82 -208 -62 -150 -92
-210 -119 -238 l-36 -39 119 3 120 3 96 246 97 247 127 7 c142 8 165 25 34 25
-46 0 -97 3 -113 6 l-29 6 83 221 c46 122 87 225 91 229 8 8 61 -120 267 -649
103 -265 106 -273 91 -302 -9 -16 -21 -31 -28 -34 -7 -3 51 -6 129 -6 l143 -1
-9 23 c-5 12 -19 45 -31 72 -12 28 -55 131 -95 230 -68 170 -184 452 -367 895
-44 107 -83 198 -87 203 -4 4 -20 -23 -35 -60z"/>
<path d="M2568 773 l-3 -681 -24 -26 -24 -26 116 0 117 0 2 464 3 464 61 -71
c384 -451 356 -421 373 -399 52 64 394 463 402 468 6 3 9 -161 7 -434 l-3
-440 -24 -26 -24 -26 116 0 117 0 0 705 c0 388 -3 705 -7 704 -5 0 -126 -143
-271 -317 -145 -174 -277 -333 -293 -352 l-30 -35 -27 31 c-15 17 -99 115
-187 219 -141 166 -362 423 -386 449 -5 5 -10 -296 -11 -671z"/>
<path d="M5279 1424 c21 -26 21 -34 21 -679 0 -645 0 -653 -21 -679 l-20 -26
115 0 116 0 0 625 0 625 108 0 c181 0 278 -43 328 -146 24 -48 28 -71 28 -129
-2 -156 -88 -242 -261 -262 l-71 -8 187 -310 c103 -171 199 -329 214 -352 l27
-43 105 0 c58 0 105 3 105 7 0 3 -39 67 -86 142 -226 358 -274 436 -274 443 0
4 17 17 39 27 137 70 230 265 203 425 -30 182 -149 307 -334 351 -47 11 -127
15 -306 15 l-243 0 20 -26z"/>
<path d="M6438 1427 l22 -23 0 -656 c0 -648 0 -656 -21 -682 l-20 -26 115 0
116 0 0 705 0 705 -117 0 -116 0 21 -23z"/>
<path d="M6959 1424 c21 -26 21 -34 21 -679 0 -645 0 -653 -21 -679 l-20 -26
395 0 396 0 0 85 0 85 -285 0 -285 0 2 620 3 620 -113 0 -113 0 20 -26z"/>
<path d="M7920 1418 c19 -32 20 -53 20 -673 0 -585 -1 -643 -17 -665 -9 -14
-22 -28 -27 -32 -6 -4 170 -8 392 -8 l402 0 0 85 0 85 -285 0 -285 0 0 620 0
620 -110 0 -110 0 20 -32z"/>
</g>
</svg>
