<?xml version="1.0" standalone="no"?>
<!DOCTYPE svg PUBLIC "-//W3C//DTD SVG 20010904//EN"
 "http://www.w3.org/TR/2001/REC-SVG-20010904/DTD/svg10.dtd">
<svg version="1.0" xmlns="http://www.w3.org/2000/svg"
 width="1000.000000pt" height="503.000000pt" viewBox="0 0 1000.000000 503.000000"
 preserveAspectRatio="xMidYMid meet">

<g transform="translate(0.000000,503.000000) scale(0.100000,-0.100000)"
fill="#000000" stroke="none">
<path d="M4660 5023 c-285 -28 -477 -91 -905 -298 -729 -353 -1199 -572 -1247
-582 -44 -9 -27 -28 23 -26 53 2 102 22 554 235 1046 493 1193 555 1437 610
323 71 631 -25 777 -243 87 -130 120 -331 77 -473 -124 -415 -638 -757 -1241
-826 -132 -15 -420 -12 -575 5 -149 17 -421 63 -432 74 -15 15 282 455 413
611 66 78 129 174 129 197 0 83 -300 -303 -540 -695 -58 -96 -65 -103 -89 -97
-68 16 -391 104 -609 166 -567 162 -746 198 -1017 206 -278 8 -471 -28 -683
-129 -303 -144 -575 -434 -698 -743 -32 -83 -36 -98 -25 -121 11 -26 12 -26
87 -19 l75 7 42 -44 c23 -24 59 -65 80 -91 22 -27 46 -47 57 -47 11 0 20 2 20
4 0 2 -18 35 -40 72 -57 97 -84 190 -84 294 -1 249 157 458 413 545 247 84
601 54 1500 -125 263 -53 661 -143 660 -150 0 -3 -56 -41 -125 -85 -69 -44
-150 -102 -180 -130 l-56 -50 -120 -350 c-66 -192 -139 -407 -164 -477 -24
-69 -100 -310 -169 -535 -69 -224 -149 -478 -177 -563 -56 -170 -133 -334
-198 -422 -95 -127 -294 -207 -450 -180 -70 13 -153 48 -204 87 -46 35 -86
116 -86 173 0 36 -3 43 -17 40 -23 -4 -36 -69 -28 -133 8 -60 34 -124 73 -173
51 -65 65 -100 53 -135 -6 -17 -18 -38 -27 -48 -14 -16 -11 -17 43 -24 119
-13 255 27 387 116 222 151 456 355 553 483 82 108 111 187 287 761 109 355
112 363 273 770 137 345 271 633 364 783 45 71 56 82 81 82 28 0 37 -16 19
-35 -16 -19 -163 -311 -238 -475 -167 -367 -241 -573 -482 -1350 -277 -893
-440 -1454 -427 -1467 11 -11 70 59 94 110 11 23 45 141 76 262 161 621 232
865 426 1465 170 524 301 854 497 1245 57 115 108 215 113 220 6 7 47 6 132
-3 167 -20 867 -22 993 -4 520 74 862 227 1150 516 209 210 298 371 320 581
22 199 -107 406 -316 509 -173 85 -447 137 -629 119z"/>
<path d="M8010 3943 c-538 -80 -732 -118 -920 -179 -139 -45 -194 -78 -269
-163 l-63 -71 53 0 c72 -1 138 -16 172 -41 l27 -20 0 50 c0 85 35 142 111 181
46 24 242 82 384 114 159 36 356 65 352 52 -2 -5 -34 -29 -72 -52 -115 -70
-216 -162 -252 -230 -47 -89 -74 -180 -248 -858 -19 -77 -37 -141 -39 -143 -2
-2 -21 3 -41 11 -49 21 -118 20 -158 0 -18 -10 -57 -36 -87 -59 -30 -23 -101
-72 -157 -108 -56 -38 -118 -88 -141 -114 -120 -145 -215 -335 -251 -503 -36
-168 -54 -559 -31 -667 21 -95 84 -144 160 -123 76 20 252 181 353 322 22 32
42 56 44 55 1 -2 -16 -59 -38 -128 -44 -135 -69 -169 -120 -169 -37 0 -38 -15
-1 -28 19 -6 42 -5 77 4 142 39 217 54 285 60 69 5 79 4 125 -21 46 -25 50
-26 60 -9 31 53 102 114 133 114 5 0 17 -18 27 -41 25 -55 103 -123 160 -139
94 -26 194 6 333 109 42 31 107 71 144 89 121 59 211 158 295 327 107 213 164
459 166 715 1 119 -1 141 -20 182 -55 120 -170 118 -411 -7 -92 -47 -147 -83
-107 -70 42 14 124 17 158 6 46 -16 93 -69 108 -123 37 -139 -68 -577 -207
-857 -78 -158 -106 -191 -164 -191 -23 0 -57 7 -76 16 -50 24 -120 107 -145
172 -19 52 -21 70 -16 197 8 219 45 372 135 550 58 116 106 186 199 291 42 46
74 87 71 89 -9 9 -174 -81 -233 -127 -235 -182 -394 -452 -436 -739 -12 -82
-8 -348 5 -380 6 -14 -4 -17 -63 -23 -88 -9 -216 -43 -351 -95 -204 -77 -101
24 115 114 l80 33 6 109 c8 136 49 358 140 763 50 222 42 206 102 233 60 28
117 73 117 93 0 10 -6 11 -26 4 -26 -10 -114 -14 -114 -5 0 3 32 126 71 273
144 547 184 673 264 832 60 119 140 237 174 255 17 8 77 22 133 31 56 8 108
20 115 26 37 31 -38 35 -197 11z m-998 -1538 c40 -14 96 -28 125 -32 32 -3 53
-11 53 -18 0 -23 -111 -460 -137 -540 -62 -190 -197 -469 -260 -536 -61 -66
-105 -75 -144 -31 -46 51 -54 98 -54 297 1 181 7 231 46 370 47 165 159 417
214 483 33 40 60 41 157 7z"/>
<path d="M5070 2805 c-50 -51 -88 -65 -239 -85 -150 -20 -218 -42 -308 -98
-111 -69 -105 -61 -231 -297 -97 -183 -152 -307 -214 -479 -42 -119 -57 -151
-58 -126 0 8 45 184 100 390 56 206 103 405 107 442 6 65 5 68 -25 97 -18 18
-41 31 -55 31 -32 0 -227 -97 -295 -147 -51 -37 -69 -63 -34 -47 37 16 98 16
111 0 27 -32 9 -166 -54 -417 -51 -201 -177 -675 -205 -769 -39 -135 -56 -238
-42 -252 8 -8 12 -9 12 -1 0 18 89 68 190 108 52 20 102 44 111 53 9 9 31 76
49 147 77 301 172 583 250 737 116 232 190 284 460 328 143 23 198 41 227 73
11 12 45 65 75 117 30 52 71 122 91 154 33 54 39 76 18 76 -4 0 -22 -16 -41
-35z"/>
<path d="M9941 2791 c-55 -56 -85 -67 -232 -86 -68 -9 -135 -19 -149 -22 -46
-11 -147 -60 -208 -102 -65 -44 -80 -66 -230 -351 -56 -105 -156 -343 -196
-465 -19 -58 -36 -89 -36 -66 0 8 38 157 84 330 119 445 126 473 126 531 0 41
-5 56 -25 75 -38 39 -81 33 -196 -26 -96 -49 -209 -125 -209 -140 0 -3 19 0
42 8 91 31 115 0 98 -126 -15 -105 -112 -500 -215 -876 -89 -324 -106 -401
-99 -432 l6 -23 18 23 c16 20 110 69 242 125 39 17 48 26 58 59 6 21 29 103
51 183 123 443 242 727 352 848 77 83 147 112 355 148 149 25 212 49 235 87
129 210 188 320 179 329 -7 7 -23 -2 -51 -31z"/>
<path d="M3348 2671 c-63 -25 -137 -77 -315 -220 -278 -222 -395 -385 -446
-617 -17 -83 -21 -131 -21 -294 1 -167 4 -206 22 -275 45 -168 139 -300 229
-324 81 -22 153 19 334 187 35 32 89 75 119 94 157 100 192 149 273 385 94
272 143 669 106 868 -19 103 -69 180 -132 204 -42 16 -116 12 -169 -8z m-60
-207 c30 -21 57 -77 83 -171 19 -67 21 -94 16 -198 -7 -129 -40 -335 -88 -535
-34 -143 -87 -261 -150 -333 -39 -46 -44 -48 -77 -42 -44 8 -129 50 -160 79
-35 31 -72 109 -88 185 -18 87 -18 316 1 422 33 188 122 411 207 515 28 35 52
64 52 64 1 0 19 7 41 15 54 19 135 19 163 -1z"/>
<path d="M5315 2641 c-98 -44 -424 -248 -473 -295 -138 -133 -262 -517 -262
-811 0 -302 99 -477 270 -479 69 -1 83 7 267 163 66 55 122 101 125 101 3 0 8
-31 10 -69 11 -144 103 -227 212 -191 21 6 69 38 109 69 122 98 214 206 305
359 l49 82 6 -177 c4 -118 14 -220 29 -301 l23 -124 20 23 c25 28 181 143 259
191 l58 37 -37 3 c-80 7 -101 95 -91 388 8 261 39 502 92 710 28 112 44 136
112 173 29 16 52 32 52 36 0 5 -37 11 -82 14 -67 4 -106 14 -200 51 -65 25
-128 46 -140 46 -50 0 -152 -62 -431 -262 -67 -48 -150 -154 -200 -253 -85
-172 -146 -452 -147 -677 l0 -67 -53 -40 c-160 -121 -268 -85 -317 105 -27
103 -45 310 -36 397 l8 68 56 28 c149 75 378 247 461 344 111 132 126 284 35
356 -32 25 -38 26 -89 2z m-158 -218 c46 -111 -51 -294 -213 -403 -42 -28 -78
-49 -80 -47 -6 6 42 170 69 234 58 137 143 253 183 253 19 0 29 -8 41 -37z
m802 -7 c47 -19 97 -37 109 -41 29 -8 30 -2 -37 -195 -27 -80 -90 -271 -140
-425 -50 -154 -105 -309 -122 -344 -40 -81 -100 -142 -157 -159 -58 -18 -84
-1 -103 65 -28 97 -10 383 42 643 31 156 102 325 186 444 32 44 34 46 84 46
35 0 79 -11 138 -34z"/>
</g>
</svg>
