<?xml version="1.0" standalone="no"?>
<!DOCTYPE svg PUBLIC "-//W3C//DTD SVG 20010904//EN"
 "http://www.w3.org/TR/2001/REC-SVG-20010904/DTD/svg10.dtd">
<svg version="1.0" xmlns="http://www.w3.org/2000/svg"
 width="1000.000000pt" height="150.000000pt" viewBox="0 0 1000.000000 150.000000"
 preserveAspectRatio="xMidYMid meet">

<g transform="translate(0.000000,150.000000) scale(0.100000,-0.100000)"
fill="#000000" stroke="none">
<path d="M67 1475 c41 -18 60 -36 86 -77 31 -47 208 -431 524 -1136 60 -134
114 -243 119 -242 5 1 40 66 77 144 l69 143 -166 375 c-180 409 -281 647 -291
691 -10 38 12 85 49 108 31 19 29 19 -244 19 l-275 0 52 -25z"/>
<path d="M1218 1478 c75 -36 120 -136 109 -241 -6 -51 -4 -49 68 93 41 80 74
151 74 158 1 9 -35 12 -146 12 l-148 -1 43 -21z"/>
<path d="M1720 1478 c18 -13 43 -36 54 -51 21 -28 21 -38 24 -620 3 -665 4
-655 -66 -702 l-37 -25 188 0 187 0 0 710 0 710 -191 0 -192 0 33 -22z"/>
<path d="M2468 1470 c81 -37 152 -110 197 -203 l35 -72 0 153 0 152 -147 0
-148 -1 63 -29z"/>
<path d="M2993 1467 c52 -29 112 -98 623 -707 311 -371 572 -682 580 -690 12
-12 14 11 14 167 l0 181 -422 541 -421 541 -216 0 -216 0 58 -33z"/>
<path d="M3977 1470 c78 -38 151 -117 198 -213 l35 -72 0 158 0 157 -147 0
-148 -1 62 -29z"/>
<path d="M4547 1493 c-4 -3 -7 -74 -7 -157 l1 -151 37 75 c44 91 124 175 202
212 l55 27 -141 0 c-77 1 -144 -2 -147 -6z"/>
<path d="M5017 1493 c-4 -4 -7 -298 -7 -655 1 -714 3 -680 -62 -732 l-33 -26
235 0 235 0 -34 27 c-63 49 -61 28 -61 743 l0 650 -133 0 c-74 0 -137 -3 -140
-7z"/>
<path d="M5547 1470 c78 -38 155 -121 199 -215 l33 -70 1 158 0 157 -147 0
-148 -1 62 -29z"/>
<path d="M6173 1475 c75 -52 72 -22 75 -662 2 -404 -1 -585 -9 -615 -6 -25
-26 -58 -49 -80 l-38 -38 184 0 184 0 0 710 0 710 -192 0 -193 0 38 -25z"/>
<path d="M6798 1473 c160 -82 251 -291 193 -444 -39 -102 -125 -174 -233 -193
-21 -4 -38 -10 -38 -13 0 -3 83 -174 184 -379 l185 -374 125 0 c86 0 126 4
126 11 0 6 -76 167 -170 357 -93 190 -170 349 -170 353 0 5 8 9 18 9 34 0 141
59 181 100 56 58 81 130 81 234 0 244 -118 343 -430 361 l-105 6 53 -28z"/>
<path d="M7620 1477 c19 -12 43 -38 54 -57 20 -34 21 -54 26 -500 l5 -465 29
-75 c35 -93 85 -170 137 -211 84 -66 276 -120 426 -118 l88 1 -48 13 c-136 37
-241 123 -301 247 -66 134 -66 138 -66 690 l0 498 -191 0 -192 0 33 -23z"/>
<path d="M8526 1470 c79 -38 155 -119 199 -212 l35 -72 0 157 0 157 -147 0
-148 -1 61 -29z"/>
<path d="M9027 1471 c70 -51 68 -29 68 -686 0 -653 3 -621 -65 -679 l-32 -26
186 0 186 0 0 710 0 710 -192 0 -191 0 40 -29z"/>
<path d="M9766 1470 c80 -39 156 -120 199 -213 l34 -72 1 158 0 157 -147 0
-148 -1 61 -29z"/>
<path d="M9876 1005 c-40 -73 -138 -147 -233 -175 l-42 -13 63 -21 c100 -34
158 -82 223 -182 9 -15 12 27 12 204 1 122 0 222 -2 222 -1 0 -11 -16 -21 -35z"/>
<path d="M2557 975 c-45 -66 -108 -111 -195 -140 l-66 -22 39 -7 c87 -17 186
-86 237 -165 l28 -45 0 217 c0 119 -1 217 -2 217 -2 -1 -20 -25 -41 -55z"/>
<path d="M9977 343 c-39 -107 -140 -214 -232 -247 -38 -14 -33 -14 108 -15
l147 -1 0 155 c0 85 -1 155 -3 155 -2 0 -11 -21 -20 -47z"/>
<path d="M2666 314 c-47 -105 -130 -186 -225 -220 -32 -12 -21 -13 112 -14
l147 0 0 150 c0 83 -1 150 -2 150 -2 0 -16 -30 -32 -66z"/>
<path d="M3044 364 c3 -9 6 -76 6 -150 l0 -134 143 1 c136 0 140 1 103 15 -86
31 -169 116 -217 222 -16 34 -32 62 -35 62 -3 0 -3 -7 0 -16z"/>
</g>
</svg>
