<?xml version="1.0" standalone="no"?>
<!DOCTYPE svg PUBLIC "-//W3C//DTD SVG 20010904//EN"
 "http://www.w3.org/TR/2001/REC-SVG-20010904/DTD/svg10.dtd">
<svg version="1.0" xmlns="http://www.w3.org/2000/svg"
 width="1000.000000pt" height="248.000000pt" viewBox="0 0 1000.000000 248.000000"
 preserveAspectRatio="xMidYMid meet">

<g transform="translate(0.000000,248.000000) scale(0.100000,-0.100000)"
fill="#000000" stroke="none">
<path d="M5084 2446 c-14 -24 -19 -53 -20 -136 -1 -58 -6 -132 -13 -165 -6
-33 -27 -161 -47 -285 -36 -223 -36 -227 -39 -577 l-3 -351 28 -12 c26 -11 28
-16 35 -90 6 -66 10 -78 23 -73 16 7 16 6 -5 -82 -4 -18 0 -20 47 -19 57 2 84
20 95 62 3 15 16 35 28 44 20 15 22 29 29 190 5 95 12 231 16 301 6 113 5 129
-10 145 -15 15 -16 25 -7 87 6 39 16 108 23 155 l12 85 33 -60 c46 -83 249
-382 462 -681 l179 -251 42 -6 c49 -6 84 -41 121 -118 16 -33 28 -46 42 -46
11 1 35 -3 53 -7 30 -7 32 -6 32 21 0 16 -5 34 -11 40 -8 8 -8 13 0 17 13 8
-13 66 -29 66 -12 0 -13 80 -1 99 8 12 13 12 35 -3 15 -9 31 -14 36 -11 13 8
13 125 0 125 -5 0 -10 10 -10 23 0 18 2 19 10 7 8 -12 10 -13 10 -1 0 8 -6 22
-14 30 -13 14 -10 35 24 166 46 181 86 293 139 390 76 138 156 452 168 657 6
116 6 117 -21 148 -14 17 -26 40 -26 51 0 11 -4 17 -10 14 -5 -3 -10 1 -10 9
0 9 -4 16 -10 16 -5 0 -10 -4 -10 -9 0 -5 -8 -8 -17 -7 -14 1 -23 -15 -38 -62
-19 -58 -22 -62 -45 -56 -54 13 -68 11 -95 -18 -18 -19 -33 -27 -45 -23 -13 4
-21 -1 -26 -17 -7 -20 -12 -158 -13 -363 0 -67 -57 -283 -124 -474 l-54 -154
-125 154 c-68 85 -202 255 -297 379 -95 124 -207 269 -249 323 -105 133 -124
174 -130 270 -2 42 -8 77 -13 77 -5 0 -9 -6 -10 -12 0 -7 -4 -3 -9 10 -5 12
-18 22 -28 22 -10 0 -22 3 -26 7 -4 4 -20 8 -35 9 -22 1 -32 -6 -47 -30z
m1500 -161 c3 -8 1 -15 -4 -15 -6 0 -10 7 -10 15 0 8 2 15 4 15 2 0 6 -7 10
-15z m-1055 -925 c11 -24 11 -24 -3 -6 -9 11 -16 24 -16 30 0 12 5 7 19 -24z
m396 -178 c-3 -3 -6 -3 -7 -1 -2 2 -16 20 -33 39 l-30 35 37 -34 c21 -19 36
-37 33 -39z m-45 3 c0 -5 -5 -3 -10 5 -5 8 -10 20 -10 25 0 6 5 3 10 -5 5 -8
10 -19 10 -25z m114 -134 c-3 -3 -10 2 -15 12 -6 9 -14 15 -20 12 -5 -4 -9 2
-9 12 0 11 -3 24 -7 29 -5 6 7 -6 25 -25 17 -19 29 -37 26 -40z m133 -153 c30
-28 33 -87 4 -85 -11 0 -18 4 -15 8 2 5 -5 23 -16 41 -35 57 -19 79 27 36z"/>
<path d="M8402 2468 c-15 -8 -21 -17 -17 -29 6 -16 -1 -17 -83 -12 -110 7
-142 1 -142 -30 -1 -38 -25 -69 -71 -91 -39 -19 -44 -24 -43 -53 1 -18 -2 -33
-6 -33 -4 0 -10 -15 -13 -32 -4 -30 2 -39 74 -106 91 -85 129 -139 108 -153
-11 -7 22 -43 134 -150 81 -77 147 -145 147 -150 0 -4 -8 -6 -17 -3 -10 3 9
-20 42 -53 33 -32 88 -93 123 -136 35 -43 67 -75 72 -72 5 3 11 1 15 -5 15
-24 268 -250 281 -250 7 0 18 -9 24 -20 6 -10 16 -17 24 -14 7 3 21 -6 30 -20
46 -71 -75 19 -246 184 -71 67 -128 118 -128 112 0 -11 286 -292 323 -316 31
-21 35 -36 10 -36 -37 0 -633 -153 -633 -162 0 -7 -17 -9 -45 -6 -28 4 -54 0
-72 -9 -15 -8 -115 -39 -223 -70 -107 -30 -198 -61 -202 -68 -5 -7 -29 -16
-55 -20 -27 -4 -70 -15 -98 -24 -43 -14 -50 -20 -50 -43 -1 -23 -11 -32 -65
-60 -65 -33 -110 -83 -110 -119 0 -19 14 -23 128 -34 58 -6 63 -4 70 16 6 14
11 18 16 11 4 -7 25 -9 57 -5 l51 6 -6 -30 -7 -30 63 3 c36 1 66 -2 69 -8 4
-7 65 8 170 42 184 58 311 89 483 115 71 12 111 22 104 27 -8 5 -2 6 14 2 72
-16 927 157 1110 226 71 26 82 39 74 87 -4 21 -7 47 -8 58 -3 27 -28 45 -49
34 -9 -4 -18 -6 -21 -4 -2 3 -36 -4 -74 -15 -108 -31 -163 -24 -103 12 29 18
31 22 26 64 -4 37 -2 42 9 33 8 -6 25 -8 39 -5 14 4 25 2 25 -4 0 -5 7 -10 16
-10 14 0 16 8 11 41 -3 22 -12 48 -21 58 -18 20 -21 41 -6 41 6 0 10 -7 10
-16 0 -8 5 -12 10 -9 6 3 10 10 10 14 0 11 -304 293 -485 450 -77 67 -214 179
-304 249 -91 70 -182 144 -203 165 -22 22 -47 37 -61 37 -23 0 -55 25 -45 35
3 3 52 0 109 -6 115 -13 404 -6 554 12 50 6 125 12 167 13 95 2 106 10 91 68
-6 23 -9 46 -7 50 11 17 57 7 75 -16 17 -21 28 -24 128 -28 61 -3 131 -3 157
0 45 5 46 6 40 34 -4 20 -1 30 9 34 18 7 20 53 3 91 -7 15 -12 29 -13 30 -5
13 -305 39 -635 53 -135 6 -393 24 -573 41 -371 33 -335 31 -365 17z m-323
-309 c29 -10 43 -29 21 -29 -13 0 -70 29 -70 35 0 8 15 6 49 -6z m363 -423
c10 -19 10 -20 -6 -7 -9 8 -22 24 -28 35 -10 19 -10 20 6 7 9 -8 22 -24 28
-35z m658 -409 c25 -22 46 -47 46 -58 1 -16 -5 -14 -44 14 -50 36 -82 73 -82
95 0 17 3 14 80 -51z m480 -397 c-20 -13 -33 -13 -25 0 3 6 14 10 23 10 15 0
15 -2 2 -10z m130 -180 c0 -5 -5 -10 -11 -10 -5 0 -7 5 -4 10 3 6 8 10 11 10
2 0 4 -4 4 -10z m-40 -4 c0 -3 -4 -8 -10 -11 -5 -3 -10 -1 -10 4 0 6 5 11 10
11 6 0 10 -2 10 -4z m-133 -42 c-3 -3 -12 -4 -19 -1 -8 3 -5 6 6 6 11 1 17 -2
13 -5z m-270 -60 c-3 -3 -12 -4 -19 -1 -8 3 -5 6 6 6 11 1 17 -2 13 -5z m-337
-58 c0 -2 -7 -7 -16 -10 -8 -3 -12 -2 -9 4 6 10 25 14 25 6z m-285 -56 c-3 -5
-12 -10 -18 -10 -7 0 -6 4 3 10 19 12 23 12 15 0z m-545 -120 c0 -5 -5 -10
-11 -10 -5 0 -7 5 -4 10 3 6 8 10 11 10 2 0 4 -4 4 -10z"/>
<path d="M2775 2263 c-60 -87 -212 -304 -340 -483 -128 -179 -244 -346 -259
-372 -15 -26 -44 -66 -64 -89 -34 -37 -44 -43 -97 -50 -67 -9 -105 -40 -105
-85 0 -20 5 -24 30 -24 58 0 29 -17 -39 -24 -153 -14 -165 -50 -18 -54 69 -2
97 -6 97 -15 0 -7 -23 -44 -51 -82 -88 -120 -137 -238 -93 -221 9 4 23 1 30
-5 8 -6 25 -8 40 -5 16 4 30 3 34 -4 10 -17 99 60 219 189 57 62 115 118 130
125 21 11 98 13 375 10 193 -3 351 -6 352 -7 1 -1 18 -54 37 -117 31 -101 61
-228 122 -512 15 -70 19 -79 43 -84 15 -4 32 -11 39 -16 15 -12 27 11 44 87 7
33 13 61 15 63 1 2 12 -1 23 -8 17 -9 22 -8 27 4 5 12 11 13 24 6 10 -6 21
-10 24 -10 10 0 7 52 -5 94 -7 24 -7 42 -1 48 6 6 3 27 -8 56 -10 26 -25 82
-35 124 -9 43 -22 78 -29 78 -7 0 -6 4 3 9 11 7 8 24 -18 89 -43 111 -42 118
16 125 29 3 52 12 60 23 14 18 15 18 24 1 8 -14 14 -16 25 -6 18 15 18 33 -2
70 -11 22 -12 34 -5 43 19 22 -31 36 -113 30 l-75 -4 -7 27 c-18 81 -67 258
-89 323 -15 41 -37 149 -50 240 -25 164 -60 326 -89 408 -12 33 -13 49 -5 64
10 18 9 20 -5 15 -11 -4 -16 -1 -16 9 0 11 -5 14 -17 10 -11 -5 -29 5 -53 29
l-38 37 -107 -159z m50 -579 c3 -20 26 -98 50 -173 24 -75 41 -139 36 -144
-17 -17 -372 -65 -415 -55 -12 2 27 58 144 206 89 111 165 202 170 202 4 0 11
-16 15 -36z m324 -134 c0 -10 -3 -8 -9 5 -12 27 -12 43 0 25 5 -8 9 -22 9 -30z
m31 -65 c0 -5 -5 -3 -10 5 -5 8 -10 20 -10 25 0 6 5 3 10 -5 5 -8 10 -19 10
-25z"/>
<path d="M4838 2293 c-14 -32 -34 -80 -43 -108 -20 -54 -35 -78 -35 -54 0 8
-10 15 -24 15 -20 2 -27 -6 -41 -41 -9 -24 -29 -60 -45 -80 -16 -20 -76 -127
-134 -238 -57 -111 -139 -265 -183 -342 -187 -332 -207 -364 -220 -353 -7 5
-16 7 -20 5 -5 -3 -9 7 -8 21 0 17 -5 26 -13 24 -8 -1 -11 2 -8 7 4 5 -3 26
-15 46 -17 28 -24 33 -31 23 -7 -10 -8 -8 -4 5 4 12 -25 69 -81 165 -48 81
-160 291 -248 466 -96 193 -168 324 -180 330 -11 6 -23 15 -26 19 -3 5 -18 5
-32 2 -27 -7 -47 -50 -47 -101 0 -12 -11 -29 -26 -38 -33 -22 -84 -103 -84
-134 0 -58 122 -281 277 -504 58 -84 112 -166 120 -183 92 -201 210 -402 337
-575 46 -63 47 -67 41 -118 l-6 -52 32 0 c45 0 112 -34 149 -76 16 -19 30 -31
30 -26 0 4 -6 14 -12 22 -7 7 4 1 24 -14 20 -15 42 -25 47 -21 6 3 20 1 31 -5
17 -9 20 -8 20 10 0 12 -7 35 -16 53 -11 20 -13 32 -6 35 6 2 8 11 5 20 -5 13
0 12 19 -5 39 -37 45 -26 7 14 -30 34 -31 35 -4 12 53 -44 64 -51 101 -59 35
-8 36 -8 31 18 -15 74 -25 92 -78 152 -32 36 -72 83 -88 105 l-30 41 36 69
c19 39 79 135 132 215 53 79 129 210 168 289 64 126 72 149 67 182 -6 34 -1
45 49 114 52 71 56 79 56 132 0 39 4 61 14 68 8 6 47 94 87 195 l72 185 -18
53 c-10 29 -20 55 -24 57 -3 2 -25 -42 -49 -98 -24 -56 -47 -106 -51 -110 -4
-5 0 25 10 67 17 71 17 156 0 156 -4 0 -19 -26 -32 -57z m-1268 -236 c29 -54
50 -100 47 -103 -4 -5 -117 200 -117 214 0 15 21 -19 70 -111z m76 -149 c4
-13 38 -88 75 -167 38 -79 68 -146 66 -147 -2 -2 -32 55 -67 126 -35 72 -68
130 -73 130 -10 0 -37 62 -31 72 9 15 23 8 30 -14z m232 -453 c-3 -3 -9 2 -12
12 -6 14 -5 15 5 6 7 -7 10 -15 7 -18z m31 -55 c11 -24 11 -24 -3 -6 -9 11
-16 24 -16 30 0 12 5 7 19 -24z m39 -70 c-2 -7 -10 1 -17 16 -12 27 -11 28 4
12 10 -9 16 -21 13 -28z"/>
<path d="M81 2303 c-6 -21 -11 -45 -11 -54 0 -9 -9 -24 -20 -34 -28 -25 -50
-93 -47 -140 3 -37 5 -40 33 -38 21 2 25 0 14 -7 -11 -7 -5 -13 30 -29 43 -18
207 -51 257 -51 22 0 23 -3 23 -87 0 -49 3 -131 6 -183 l7 -95 -59 0 c-58 0
-59 0 -62 -30 -4 -36 -25 -61 -57 -69 -20 -5 -28 -19 -46 -76 -24 -81 -29
-134 -12 -135 16 0 29 -15 14 -15 -16 0 7 -39 47 -82 l25 -28 -26 -87 c-38
-124 -37 -129 33 -125 8 0 18 -4 21 -9 6 -10 57 -1 105 18 12 4 14 -29 13
-228 -1 -129 -4 -339 -8 -467 -3 -131 -2 -236 3 -239 5 -3 30 -7 56 -8 l48 -2
7 113 c6 87 11 114 21 114 9 0 14 12 14 35 0 28 4 36 23 40 13 4 30 5 38 3 20
-4 31 164 25 385 l-5 178 32 -19 c191 -117 695 -382 847 -447 36 -15 184 -85
330 -156 146 -71 276 -130 290 -131 23 -3 25 0 28 45 2 35 -2 57 -18 82 -19
31 -20 36 -6 41 9 3 16 11 16 18 -1 6 -65 45 -143 87 -78 43 -141 82 -139 88
1 6 -7 29 -18 51 -17 34 -18 40 -5 40 10 0 15 10 15 30 0 26 -9 36 -71 76
-142 91 -345 205 -384 216 -22 6 -51 21 -65 34 -14 12 -108 66 -210 119 -260
136 -240 122 -240 170 0 48 -35 27 335 200 132 62 295 141 363 175 116 59 122
63 122 92 l0 31 48 -6 c26 -3 56 -9 66 -13 16 -6 18 -4 14 14 -4 12 -2 24 2
27 15 9 3 54 -24 95 l-26 40 25 0 c16 0 25 6 25 15 0 8 -2 15 -5 15 -3 0 -168
50 -367 111 -199 60 -441 132 -538 159 -210 58 -233 67 -227 92 3 10 1 18 -4
18 -5 0 -9 -6 -10 -12 0 -7 -4 -3 -9 8 -5 12 -20 24 -34 26 -22 4 -27 1 -32
-19 -6 -21 -11 -23 -33 -18 -86 22 -373 75 -408 75 -40 0 -43 -2 -52 -37z
m423 -455 c-11 -114 -23 -125 -23 -20 -1 76 2 92 14 92 13 0 14 -12 9 -72z
m209 12 c76 -29 307 -98 389 -116 37 -9 68 -19 68 -22 0 -9 -550 -246 -556
-240 -6 6 16 380 22 390 7 12 18 10 77 -12z m-40 -990 c16 0 33 -18 24 -26 -7
-7 -107 49 -107 59 0 5 15 -1 34 -12 18 -12 40 -21 49 -21z m167 -103 c25 -20
17 -19 -32 5 -16 7 -28 16 -28 20 0 11 31 -3 60 -25z m106 -62 c10 -8 15 -14
9 -14 -5 0 -19 6 -29 14 -11 8 -15 15 -10 15 6 0 19 -7 30 -15z m108 -60 c25
-19 9 -19 -24 0 -14 8 -19 14 -10 14 8 0 24 -6 34 -14z m112 -61 c18 -14 18
-15 -6 -8 -31 8 -50 24 -29 24 8 0 24 -7 35 -16z m99 -54 c3 -5 1 -10 -4 -10
-6 0 -11 5 -11 10 0 6 2 10 4 10 3 0 8 -4 11 -10z"/>
<path d="M7058 2282 c-8 -2 -20 -14 -26 -26 -6 -14 -26 -29 -49 -36 -21 -7
-62 -22 -92 -32 l-53 -20 6 -38 c6 -36 2 -43 -48 -100 -133 -153 -199 -342
-208 -595 -3 -67 0 -80 13 -83 11 -2 20 7 26 25 9 26 11 23 17 -32 13 -104 44
-227 64 -254 10 -14 28 -28 38 -30 10 -2 75 -58 144 -125 141 -138 190 -168
351 -211 116 -31 159 -33 159 -6 0 24 25 34 49 19 26 -16 135 10 139 35 2 10
-5 21 -20 27 l-23 9 23 7 c95 28 206 72 210 83 3 8 0 11 -7 7 -6 -4 -11 -1
-11 7 0 8 19 27 42 43 62 43 193 194 227 263 40 79 71 193 71 262 0 52 -22
119 -39 119 -4 0 -11 53 -14 118 -7 139 -30 224 -86 308 -78 119 -185 196
-324 234 -74 21 -106 23 -323 24 -132 1 -247 0 -256 -2z m666 -300 c50 -34
121 -136 141 -204 19 -65 19 -251 0 -331 -11 -47 -24 -70 -67 -117 -29 -32
-60 -58 -69 -59 -9 0 -19 -7 -22 -15 -9 -23 -146 -108 -214 -133 -87 -31 -180
-31 -299 2 -51 14 -108 32 -128 40 -47 20 -53 19 -31 -5 10 -11 14 -20 10 -20
-16 0 -55 43 -55 61 0 9 -21 56 -46 103 l-46 87 4 97 c3 82 9 108 35 167 18
39 35 80 38 93 16 56 173 188 269 225 53 21 164 28 224 15 24 -6 32 -4 32 7 0
10 16 15 63 17 89 5 117 -1 161 -30z m-615 -1043 c13 -11 22 -21 20 -24 -3 -2
-18 7 -34 20 -17 13 -25 24 -20 24 6 0 21 -9 34 -20z"/>
</g>
</svg>
