<?xml version="1.0" standalone="no"?>
<!DOCTYPE svg PUBLIC "-//W3C//DTD SVG 20010904//EN"
 "http://www.w3.org/TR/2001/REC-SVG-20010904/DTD/svg10.dtd">
<svg version="1.0" xmlns="http://www.w3.org/2000/svg"
 width="1000.000000pt" height="292.000000pt" viewBox="0 0 1000.000000 292.000000"
 preserveAspectRatio="xMidYMid meet">

<g transform="translate(0.000000,292.000000) scale(0.100000,-0.100000)"
fill="#000000" stroke="none">
<path d="M991 2877 c-16 -24 -33 -57 -37 -73 -4 -16 -18 -37 -31 -47 -13 -10
-23 -23 -23 -30 0 -6 -16 -25 -35 -43 -20 -18 -35 -41 -35 -54 0 -30 -18 -60
-35 -60 -8 0 -26 -21 -39 -47 -14 -27 -34 -61 -45 -78 -12 -16 -21 -37 -21
-46 0 -9 -9 -19 -20 -22 -24 -6 -80 -93 -80 -125 0 -16 -17 -40 -49 -70 -60
-58 -117 -139 -126 -180 -3 -17 -13 -36 -21 -43 -12 -10 -12 -14 -2 -20 8 -6
2 -9 -19 -9 -22 0 -36 -6 -43 -21 -7 -11 -27 -37 -45 -57 -18 -21 -38 -56 -44
-79 -7 -24 -27 -60 -47 -80 -19 -21 -38 -51 -42 -68 -8 -28 -11 -30 -65 -33
-52 -3 -58 -6 -72 -32 -15 -28 -14 -31 19 -75 19 -24 38 -55 42 -67 3 -13 22
-40 40 -61 19 -20 34 -47 34 -60 0 -26 29 -72 146 -233 29 -39 59 -85 68 -103
9 -17 23 -31 31 -31 8 0 15 -9 15 -19 0 -11 3 -27 7 -37 5 -13 3 -16 -10 -11
-9 3 -19 2 -22 -4 -4 -5 -31 -28 -62 -50 -30 -23 -63 -56 -74 -73 -10 -18 -43
-49 -72 -70 -30 -20 -59 -47 -65 -61 -6 -13 -31 -38 -54 -55 -24 -17 -47 -38
-51 -46 -5 -8 1 -38 14 -73 18 -51 26 -61 51 -66 26 -6 35 -2 67 30 20 21 53
49 74 62 21 13 43 34 49 47 6 14 28 31 52 40 22 9 74 48 115 86 40 39 77 70
81 70 3 0 37 -48 75 -106 38 -59 76 -114 85 -123 9 -9 34 -45 55 -80 21 -35
46 -66 55 -68 11 -3 20 -18 23 -39 3 -19 29 -67 58 -106 28 -39 55 -86 60
-104 5 -17 15 -34 23 -37 19 -8 135 8 147 20 5 5 17 48 25 94 9 46 22 100 30
119 19 47 72 247 90 340 7 41 18 84 24 95 24 49 38 110 33 141 -3 19 -1 39 5
46 5 7 22 63 37 123 15 61 32 119 38 129 5 11 13 51 18 90 4 39 18 91 30 116
13 25 23 67 24 95 2 57 11 101 31 164 14 41 14 46 -4 64 -18 18 -24 18 -77 6
-64 -14 -140 -66 -164 -112 -8 -15 -18 -27 -22 -27 -5 0 -23 -13 -41 -28 -18
-15 -46 -33 -61 -40 -16 -7 -34 -26 -43 -47 -10 -24 -23 -37 -42 -41 -15 -4
-60 -41 -103 -86 -42 -43 -83 -78 -90 -78 -20 0 -84 -62 -104 -99 -10 -20 -31
-39 -53 -48 -20 -8 -53 -28 -73 -44 -38 -30 -47 -28 -62 14 -5 14 -11 16 -27
7 -13 -7 -20 -7 -20 0 0 5 6 10 13 10 6 1 2 9 -10 19 -13 11 -23 24 -23 30 0
6 -7 8 -16 4 -15 -5 -15 -3 -1 22 13 27 13 31 -14 74 -16 25 -29 50 -29 57 0
7 -18 28 -41 48 -23 19 -51 57 -64 84 -13 27 -28 53 -34 56 -7 5 -3 18 13 39
13 18 26 44 30 59 4 16 18 34 35 43 28 14 127 159 179 261 12 23 33 55 48 73
14 17 24 37 21 44 -2 6 12 23 32 36 25 16 72 77 151 198 63 97 122 190 131
207 8 17 32 54 52 82 20 28 37 58 37 67 0 21 78 97 94 91 7 -3 22 -20 32 -39
42 -75 136 -186 172 -203 28 -13 37 -23 37 -43 0 -15 17 -45 46 -78 37 -42 51
-52 67 -47 21 7 102 118 102 140 0 7 -31 51 -70 99 -38 48 -74 96 -80 106 -5
11 -18 22 -29 26 -10 3 -37 34 -59 68 -22 34 -70 94 -106 132 -36 39 -66 73
-66 77 0 9 -59 28 -91 28 -22 0 -35 -10 -58 -43z m255 -1538 c3 -6 -4 -32 -16
-57 -12 -26 -28 -60 -35 -77 -22 -51 -78 -268 -80 -310 -1 -22 -10 -71 -18
-110 -9 -38 -17 -80 -17 -92 0 -12 -7 -39 -16 -60 -28 -65 -32 -75 -59 -173
-37 -134 -35 -130 -50 -85 -8 22 -29 52 -47 67 -20 16 -34 37 -35 53 -1 14
-17 44 -35 65 -73 87 -88 109 -88 127 0 24 -51 97 -80 115 -25 16 -26 57 -2
64 51 17 86 43 242 179 93 81 170 151 170 155 0 3 29 30 65 59 39 32 65 61 65
72 0 20 24 26 36 8z"/>
<path d="M3003 2812 c-31 -5 -34 -30 -28 -302 2 -129 4 -251 3 -270 -4 -64 -1
-1432 2 -1590 2 -85 8 -160 12 -166 4 -6 4 -24 -1 -40 -5 -16 -8 -116 -8 -221
l1 -191 25 -12 c22 -10 27 -8 43 12 9 13 20 35 23 49 3 15 19 48 36 73 16 26
29 50 29 55 0 5 7 15 17 22 18 15 54 92 84 178 10 29 31 65 45 80 15 14 43 60
62 101 19 41 51 98 72 125 21 28 49 77 61 110 12 33 37 83 54 110 18 28 45 72
60 99 l28 50 18 -23 c10 -13 28 -54 39 -92 11 -37 29 -74 40 -82 10 -7 22 -25
25 -40 4 -15 11 -30 16 -33 5 -3 9 -18 9 -34 0 -19 9 -36 28 -50 45 -35 78
-95 92 -162 7 -35 40 -121 75 -196 35 -73 67 -143 71 -155 15 -50 96 -177 112
-177 45 1 46 1 37 312 -4 161 -8 438 -9 615 -1 221 -4 325 -12 333 -8 8 -8 26
-2 58 5 26 8 94 8 152 -1 58 0 107 0 110 3 10 14 896 12 987 -3 121 -18 158
-69 167 -57 10 -82 9 -151 -7 -84 -20 -205 -57 -217 -67 -5 -4 -23 -10 -40
-14 -16 -4 -37 -13 -45 -20 -8 -8 -28 -18 -45 -23 -28 -9 -30 -13 -37 -79 -4
-38 -3 -73 2 -78 10 -10 165 30 195 50 11 8 32 14 48 14 16 0 41 7 55 15 15 8
48 18 75 23 50 10 53 8 47 -42 -1 -10 4 -31 11 -48 9 -22 9 -32 0 -41 -14 -14
-15 -184 -1 -244 7 -31 6 -50 -5 -76 -16 -38 -12 -104 11 -194 8 -35 10 -63 4
-84 -8 -27 -10 -74 -9 -229 0 -14 -1 -100 -1 -192 -1 -104 3 -175 10 -187 8
-15 8 -27 0 -41 -8 -14 -8 -31 0 -58 11 -42 12 -224 1 -357 -6 -71 -5 -95 6
-113 8 -13 12 -26 9 -30 -7 -6 -7 -7 -34 41 -12 21 -22 46 -22 56 0 10 -19 47
-41 82 -23 35 -50 88 -60 116 -10 29 -31 70 -47 90 -45 57 -89 147 -113 227
-30 107 -46 143 -100 238 -27 49 -49 94 -49 101 0 7 -27 56 -60 109 -50 78
-66 116 -90 206 -31 114 -94 259 -130 297 -13 14 -27 53 -37 101 -9 43 -24 95
-34 114 -11 19 -19 40 -19 47 0 40 -43 130 -98 203 -10 14 -26 46 -36 72 -20
53 -32 65 -63 60z m208 -833 c18 -51 43 -107 56 -126 13 -19 23 -41 23 -49 0
-9 11 -34 24 -57 13 -23 27 -61 31 -84 7 -46 35 -88 64 -98 11 -3 21 -18 24
-39 3 -19 17 -51 30 -73 14 -21 35 -76 46 -122 l21 -85 -35 -50 c-19 -28 -35
-61 -35 -74 0 -29 -45 -119 -75 -152 -39 -41 -96 -144 -91 -162 2 -11 -1 -18
-9 -18 -7 0 -21 -21 -31 -47 -10 -27 -25 -59 -34 -73 -9 -14 -28 -47 -41 -74
l-24 -49 -7 165 c-4 91 -11 175 -16 188 -5 13 -5 43 0 69 5 25 8 105 7 176 -1
85 2 140 10 160 8 19 10 46 5 75 -11 73 -5 620 9 658 6 17 12 32 13 32 1 0 17
-41 35 -91z"/>
<path d="M5296 2809 c-35 -21 -64 -63 -75 -106 -6 -24 -20 -47 -31 -53 -11 -6
-20 -16 -20 -24 0 -7 -16 -26 -35 -43 -21 -19 -35 -40 -35 -55 0 -28 -26 -68
-44 -68 -12 0 -34 -36 -90 -148 -11 -23 -29 -45 -38 -48 -22 -7 -64 -80 -73
-125 -5 -25 -16 -41 -36 -53 -16 -9 -41 -34 -56 -54 -14 -20 -40 -54 -56 -75
-25 -33 -27 -40 -15 -54 7 -10 8 -14 1 -10 -7 4 -15 -4 -21 -22 -6 -16 -23
-34 -39 -41 -37 -18 -120 -128 -128 -173 -9 -46 -30 -65 -79 -69 -33 -2 -41
-8 -49 -32 -8 -23 -5 -33 12 -55 12 -14 31 -46 42 -70 12 -24 34 -57 50 -74
16 -16 29 -39 29 -49 0 -24 24 -71 62 -123 121 -166 158 -219 163 -235 3 -10
13 -20 22 -22 10 -2 17 -16 19 -36 2 -19 0 -31 -5 -27 -6 3 -25 -7 -43 -23
-18 -16 -48 -38 -66 -51 -18 -12 -40 -38 -50 -56 -9 -18 -39 -48 -67 -67 -27
-18 -56 -46 -63 -62 -8 -15 -37 -42 -64 -59 -47 -30 -50 -33 -45 -67 8 -61 33
-109 62 -116 27 -7 68 23 173 127 26 26 59 49 74 53 14 3 64 42 110 85 l83 80
73 -112 c40 -62 78 -116 85 -122 7 -5 32 -43 55 -82 24 -40 49 -73 56 -73 8 0
17 -15 20 -33 3 -17 33 -70 66 -117 33 -47 60 -93 60 -102 0 -9 6 -20 13 -25
20 -12 130 -3 148 13 17 15 39 104 39 156 0 16 6 39 14 51 8 12 26 69 40 127
15 58 33 122 41 143 8 20 15 56 15 80 0 25 11 65 27 97 17 36 27 74 28 112 1
31 7 69 12 85 6 15 15 46 21 68 6 22 22 78 36 125 14 47 30 116 36 155 6 38
15 74 20 80 15 18 34 99 31 132 -1 17 7 66 19 109 22 77 22 77 2 97 -19 18
-24 19 -74 7 -62 -15 -131 -61 -159 -107 -11 -18 -25 -33 -30 -33 -6 0 -21
-11 -34 -25 -14 -13 -40 -31 -57 -40 -18 -8 -42 -32 -53 -52 -13 -24 -30 -40
-50 -45 -19 -6 -55 -37 -95 -83 -39 -44 -73 -74 -85 -74 -23 -1 -94 -71 -115
-113 -7 -16 -27 -32 -46 -38 -18 -6 -50 -25 -70 -41 -36 -28 -39 -29 -51 -13
-7 10 -13 22 -13 27 0 5 -9 7 -20 4 -13 -3 -19 -1 -18 7 4 15 -37 67 -46 59
-9 -10 -7 6 4 27 13 24 -46 135 -93 177 -18 16 -43 52 -56 81 -14 29 -40 64
-58 78 l-34 26 25 19 c13 11 63 84 110 163 47 79 92 149 101 156 8 7 15 22 15
35 0 13 13 31 34 46 36 26 276 376 276 403 0 8 5 18 10 21 19 12 91 125 85
135 -3 5 15 29 40 54 l47 44 20 -34 c11 -19 24 -34 28 -34 5 0 23 -22 41 -49
17 -28 38 -52 45 -55 7 -3 21 -20 30 -38 26 -49 125 -158 145 -158 17 0 99
108 99 130 0 15 -47 86 -107 161 -29 36 -53 70 -53 74 0 10 -67 93 -121 150
-21 22 -46 50 -56 62 -21 27 -70 38 -97 22z m314 -1476 c0 -16 -16 -55 -57
-135 -8 -16 -12 -28 -9 -28 2 0 0 -15 -5 -32 -37 -125 -60 -224 -55 -242 3
-11 1 -26 -5 -32 -9 -11 -22 -75 -35 -174 -4 -29 -25 -88 -39 -110 -5 -8 -22
-64 -38 -125 -16 -60 -30 -112 -33 -114 -2 -2 -6 5 -10 15 -18 56 -27 71 -54
86 -23 13 -30 24 -30 46 0 16 -7 36 -16 43 -9 7 -34 39 -55 71 -22 32 -44 58
-49 58 -6 0 -10 12 -10 26 0 25 -44 92 -81 124 -20 17 -10 60 15 60 23 0 59
23 106 67 25 23 61 54 80 70 44 34 104 88 190 170 36 33 86 80 113 103 26 24
47 49 47 56 0 8 7 14 15 14 8 0 15 -8 15 -17z"/>
<path d="M7479 2803 c-6 -7 -29 -13 -50 -13 -29 0 -39 -5 -44 -20 -9 -27 -15
-246 -15 -467 1 -10 0 -62 -1 -115 0 -53 2 -102 6 -108 9 -14 7 -157 -3 -360
-7 -128 -6 -167 4 -175 8 -7 9 -16 3 -28 -5 -9 -9 -45 -9 -79 0 -35 -2 -124
-6 -198 -8 -187 -8 -196 1 -277 6 -51 12 -73 21 -73 18 0 18 -4 -3 -43 -14
-26 -17 -56 -16 -150 1 -76 6 -124 14 -133 9 -11 9 -18 1 -26 -16 -16 -4 -220
15 -234 12 -10 10 -16 -11 -38 -23 -25 -24 -32 -19 -109 9 -137 -2 -129 170
-127 82 1 150 1 153 0 22 -7 161 -6 186 1 19 6 68 6 126 1 54 -5 117 -5 149 0
30 5 122 10 206 11 99 1 156 6 164 14 7 7 9 28 4 61 l-7 49 -61 0 c-34 -1
-118 2 -187 6 -165 9 -190 9 -223 -4 -20 -9 -31 -8 -42 1 -17 14 -239 18 -347
6 -32 -3 -59 -2 -63 3 -3 5 -19 9 -35 9 -17 -1 -33 1 -36 5 -6 6 -7 410 -1
547 3 52 1 103 -4 112 -5 9 -6 56 -3 103 l7 87 36 -7 c20 -4 45 -12 56 -19 11
-7 36 -16 55 -18 19 -3 58 -15 85 -26 103 -42 183 -63 237 -60 47 3 53 1 56
-18 2 -16 16 -24 73 -37 39 -10 75 -15 80 -11 11 6 12 43 3 108 -6 41 -11 50
-38 61 -48 21 -226 72 -276 79 -24 4 -49 10 -55 15 -14 10 -91 37 -145 49 -25
6 -58 14 -75 18 -16 5 -34 9 -40 9 -35 6 -43 19 -49 79 -5 51 -3 70 11 95 17
29 17 31 -2 46 -19 15 -17 16 29 11 27 -4 60 -13 72 -21 13 -8 35 -15 49 -15
14 0 40 -7 57 -16 38 -20 166 -57 192 -56 10 1 33 -6 50 -15 40 -21 188 -63
198 -57 10 6 10 64 0 118 -6 32 -12 41 -37 49 -17 5 -43 14 -60 21 -54 23 -89
34 -145 47 -30 6 -82 22 -115 34 -33 13 -85 28 -115 35 -30 7 -81 19 -112 28
l-58 16 -1 125 c-1 258 -6 377 -18 420 -7 25 -10 56 -8 70 3 14 10 48 16 75 8
35 8 53 0 62 -10 13 -12 37 -8 129 0 22 -2 70 -6 107 -10 85 -5 99 32 89 17
-5 35 -3 46 3 14 9 21 6 40 -17 23 -28 92 -52 188 -66 25 -4 61 -17 81 -29 19
-12 42 -22 50 -22 8 0 19 -5 25 -11 6 -6 75 -33 154 -60 120 -41 148 -48 168
-39 13 6 27 7 30 3 12 -15 48 -31 110 -47 94 -24 91 -25 91 49 0 63 -1 65 -32
81 -36 19 -56 23 -133 29 -34 2 -51 8 -53 18 -2 9 -29 22 -65 32 -66 18 -199
64 -257 88 -19 8 -55 18 -80 22 -25 3 -63 15 -85 25 -97 44 -116 50 -133 41
-11 -6 -45 1 -109 23 -77 27 -95 31 -104 19z"/>
<path d="M8763 2773 c-18 -7 -16 -95 2 -139 14 -35 14 -37 -9 -55 -20 -16 -23
-25 -20 -76 1 -32 7 -70 12 -84 6 -15 8 -30 5 -33 -4 -3 -7 -27 -9 -53 -1 -27
-6 -61 -9 -76 -5 -19 -2 -39 11 -62 15 -29 16 -38 5 -58 -10 -18 -10 -49 -3
-138 6 -67 6 -118 1 -124 -14 -14 -11 -86 6 -142 14 -46 14 -57 0 -109 -8 -32
-15 -91 -14 -130 1 -63 4 -73 21 -77 11 -3 17 -10 13 -16 -3 -6 -11 -9 -16 -6
-5 4 -6 -3 0 -17 4 -13 6 -29 4 -35 -3 -7 0 -13 6 -13 18 0 12 -16 -10 -26
-18 -8 -21 -20 -26 -99 -3 -64 0 -100 10 -123 11 -26 12 -46 4 -90 -7 -41 -6
-65 3 -91 7 -19 12 -55 10 -80 -6 -137 -5 -173 6 -193 10 -18 9 -27 -5 -47
-13 -20 -16 -47 -14 -134 2 -59 7 -117 13 -127 7 -12 7 -27 0 -45 -10 -25 -3
-171 8 -190 7 -10 8 -16 10 -48 2 -16 24 -17 332 -16 181 0 335 -3 342 -7 6
-4 130 -8 274 -8 255 -1 263 0 268 19 11 40 5 52 -36 75 -24 13 -60 39 -81 57
-21 19 -45 32 -52 29 -8 -3 -23 7 -35 24 -12 17 -30 30 -41 30 -49 0 -150 55
-226 122 -25 22 -53 38 -67 38 -14 0 -28 5 -32 11 -3 6 -33 24 -66 39 -33 16
-70 37 -82 48 -11 11 -32 23 -46 27 -14 4 -33 14 -43 23 -10 9 -26 17 -35 18
-9 2 -18 8 -20 13 -2 6 -9 11 -15 11 -6 0 -22 11 -36 23 -15 13 -47 31 -73 41
-69 25 -73 34 -74 155 0 58 -3 115 -7 127 -4 12 -1 36 8 58 14 34 15 62 5 238
-7 110 -9 202 -6 205 3 4 -1 17 -9 29 -8 13 -11 25 -6 28 5 3 12 20 16 38 8
40 6 498 -3 512 -3 6 -5 50 -3 99 2 56 -2 93 -9 102 -8 10 -8 19 -1 34 15 27
14 117 -3 293 -8 80 -12 156 -9 167 4 16 -1 23 -22 31 -27 10 -100 12 -122 3z
m235 -2287 c26 -13 58 -36 71 -50 14 -14 29 -26 33 -26 5 0 29 -13 52 -30 24
-16 50 -30 57 -32 8 -2 20 -11 27 -20 7 -10 21 -18 31 -18 10 0 29 -8 42 -19
13 -10 35 -22 49 -26 14 -4 35 -16 47 -28 l22 -20 -24 -19 c-21 -17 -30 -18
-67 -7 -24 6 -47 14 -53 17 -19 12 -110 10 -125 -3 -19 -16 -61 -17 -122 -4
-31 7 -53 7 -65 1 -31 -18 -51 3 -58 61 -8 60 13 247 27 247 5 0 30 -11 56
-24z"/>
<path d="M2146 2723 c-9 -68 -43 -211 -77 -327 -16 -54 -29 -112 -29 -127 0
-16 -7 -46 -15 -66 -19 -50 -45 -154 -47 -190 -1 -15 -6 -33 -11 -40 -4 -7
-15 -35 -22 -64 -12 -45 -12 -54 1 -74 14 -21 13 -24 -4 -37 -25 -18 -44 -75
-36 -113 6 -35 -11 -115 -25 -115 -10 0 -35 -135 -28 -147 8 -12 -25 -101 -56
-154 -15 -25 -27 -53 -27 -62 0 -26 -19 -20 -54 17 -17 19 -41 36 -53 38 -27
4 -83 -47 -83 -77 0 -14 28 -50 76 -97 l76 -75 -11 -55 c-5 -31 -7 -65 -4 -76
3 -13 -4 -36 -16 -56 -15 -24 -21 -49 -20 -78 1 -24 -4 -56 -10 -72 -6 -16 -9
-37 -6 -47 4 -11 -2 -31 -15 -49 -25 -35 -39 -142 -22 -163 8 -9 6 -23 -7 -52
-10 -22 -23 -76 -30 -119 -6 -44 -16 -85 -21 -91 -6 -8 -1 -22 18 -44 55 -67
152 -29 152 59 0 19 9 58 19 85 11 28 22 71 25 95 9 79 34 219 40 229 4 5 2
12 -3 15 -10 7 -3 38 23 98 9 21 15 58 14 83 0 25 2 48 6 52 4 4 28 -14 54
-39 68 -67 125 -118 133 -118 4 0 17 -16 29 -35 12 -19 28 -35 36 -35 8 0 14
-4 14 -9 0 -13 200 -206 214 -206 7 0 35 -25 62 -54 27 -30 65 -71 85 -91 20
-20 40 -46 43 -58 4 -11 19 -25 34 -30 15 -5 45 -21 66 -36 45 -30 86 -33 109
-8 21 23 22 101 3 166 -8 26 -17 78 -21 114 -3 37 -13 90 -20 117 -8 28 -16
84 -17 125 -3 71 -38 184 -62 201 -5 4 -6 22 -3 41 3 19 1 52 -3 73 -4 22 -13
64 -19 94 -6 30 -17 62 -24 70 -14 17 -34 124 -46 252 -4 41 -15 89 -23 106
-9 17 -13 43 -10 58 2 14 0 36 -6 48 -6 12 -13 45 -15 72 -3 28 -11 68 -20 89
-10 28 -12 48 -6 70 5 18 6 40 1 51 -25 59 -45 124 -46 157 -3 41 -46 179 -60
189 -4 4 -5 15 -2 26 7 23 -26 139 -48 168 -18 23 -21 39 -6 30 5 -3 8 0 6 7
-3 7 -12 54 -21 103 -38 203 -52 235 -101 235 -18 0 -22 -7 -28 -47z m60 -597
c7 -11 11 -30 8 -42 -3 -12 2 -43 10 -69 9 -26 18 -72 21 -101 5 -69 24 -162
34 -168 4 -3 6 -30 3 -59 -4 -55 12 -127 29 -127 5 0 9 -23 9 -51 0 -29 9 -71
21 -100 13 -30 19 -60 16 -76 -5 -25 19 -121 34 -133 3 -3 11 -43 18 -90 12
-90 30 -153 49 -172 7 -7 12 -29 12 -49 0 -20 7 -53 15 -72 8 -20 15 -54 15
-75 0 -21 9 -55 20 -77 11 -22 20 -53 20 -70 0 -17 6 -39 14 -50 7 -11 15 -46
18 -77 l5 -57 -81 77 c-45 42 -116 106 -158 141 -43 35 -80 72 -83 82 -4 10
-21 31 -39 46 -18 16 -39 38 -45 51 -7 13 -36 39 -66 57 -30 19 -62 48 -72 65
-9 16 -26 33 -38 36 -50 15 -85 80 -54 100 7 4 9 22 6 45 -3 22 -1 42 4 45 5
3 9 21 9 40 0 19 9 52 20 74 11 22 20 54 20 71 0 18 7 41 17 51 13 15 14 23 5
44 -7 14 -8 23 -3 19 5 -3 17 30 26 72 9 43 26 91 37 107 17 23 19 33 10 47
-8 13 -8 26 -1 49 6 16 8 42 5 56 -4 14 2 54 13 92 18 62 32 137 36 187 2 35
40 117 44 98 2 -10 9 -27 17 -37z"/>
<path d="M6121 2759 c-22 -9 -23 -12 -16 -76 4 -37 9 -126 11 -198 3 -71 5
-137 5 -145 3 -63 -12 -433 -18 -443 -8 -13 -11 -73 -11 -217 -1 -52 -1 -99
-2 -105 -1 -5 -3 -38 -6 -73 -5 -47 -10 -65 -25 -72 -27 -15 -51 -67 -43 -93
4 -12 17 -32 29 -45 19 -19 24 -38 30 -115 4 -55 13 -98 21 -108 11 -12 12
-27 4 -69 -13 -71 -13 -243 1 -257 8 -8 8 -17 1 -30 -7 -13 -8 -52 -1 -119 6
-68 6 -109 -2 -131 -6 -20 -8 -66 -4 -115 3 -46 6 -133 6 -194 l0 -111 35 -16
c68 -33 176 -14 160 28 -2 7 -7 90 -11 186 -4 96 -10 178 -13 183 -3 5 -4 44
-3 88 1 45 -2 85 -8 92 -8 9 -8 22 0 45 7 20 9 58 5 94 -9 90 -12 327 -5 327
9 0 91 -80 171 -167 37 -40 71 -73 77 -73 6 0 11 -6 11 -14 0 -8 15 -23 33
-35 43 -27 108 -96 142 -150 32 -52 83 -101 105 -101 24 -1 50 -25 50 -49 0
-12 22 -43 55 -76 30 -30 55 -58 55 -63 0 -19 46 -18 99 3 43 16 56 26 62 48
7 24 0 35 -64 100 -40 41 -121 127 -182 192 -151 162 -174 185 -185 185 -6 0
-10 5 -10 11 0 6 -29 45 -65 87 -36 42 -70 82 -74 87 -5 6 -23 21 -40 35 -17
14 -31 34 -31 46 0 11 -19 37 -43 60 -24 21 -52 53 -62 69 -11 17 -35 45 -54
63 l-36 34 27 23 c14 12 31 32 37 44 7 11 27 28 46 36 31 12 40 23 37 46 -1 4
9 10 21 13 12 3 29 19 39 35 9 16 31 37 50 46 43 22 68 45 68 61 0 15 96 113
184 187 62 53 56 53 116 -1 37 -33 67 -38 98 -15 46 34 40 62 -26 128 -33 33
-65 65 -73 71 -30 24 -89 99 -89 114 0 19 -73 90 -114 110 -16 8 -36 26 -44
40 -30 48 -187 200 -228 221 -25 13 -52 39 -70 66 -15 24 -36 49 -46 54 -11 6
-23 21 -28 34 -9 23 -105 96 -125 94 -5 0 -21 -5 -34 -10z m215 -341 c28 -44
152 -168 166 -168 4 0 8 -7 8 -15 0 -8 22 -32 48 -52 27 -21 53 -47 58 -58 5
-11 18 -24 29 -29 11 -5 27 -24 37 -43 15 -33 15 -35 -4 -46 -11 -7 -26 -27
-33 -44 -8 -18 -20 -33 -28 -33 -8 0 -37 -25 -63 -56 -27 -30 -78 -79 -114
-108 -36 -29 -86 -75 -113 -101 -26 -27 -49 -46 -52 -44 -8 8 -5 84 10 327 4
51 2 113 -3 138 -6 25 -6 47 -1 50 12 7 11 136 -2 228 -5 42 -7 81 -4 86 12
20 33 9 61 -32z"/>
</g>
</svg>
