<?xml version="1.0" standalone="no"?>
<!DOCTYPE svg PUBLIC "-//W3C//DTD SVG 20010904//EN"
 "http://www.w3.org/TR/2001/REC-SVG-20010904/DTD/svg10.dtd">
<svg version="1.0" xmlns="http://www.w3.org/2000/svg"
 width="1000.000000pt" height="196.000000pt" viewBox="0 0 1000.000000 196.000000"
 preserveAspectRatio="xMidYMid meet">

<g transform="translate(0.000000,196.000000) scale(0.100000,-0.100000)"
fill="#000000" stroke="none">
<path d="M0 1105 l0 -855 215 0 215 0 0 140 0 140 -70 0 -70 0 0 715 0 715
-145 0 -145 0 0 -855z"/>
<path d="M432 1818 l3 -143 73 -3 72 -3 0 -209 0 -209 -72 -3 -73 -3 -3 -142
-3 -143 76 0 75 0 2 -474 3 -474 143 263 142 264 0 208 0 209 -70 69 c-38 38
-70 73 -70 77 0 5 31 38 70 74 l70 66 0 214 0 214 -72 145 -73 145 -148 0
-148 0 3 -142z"/>
<path d="M4850 1105 l0 -855 145 0 145 0 0 425 0 424 73 3 72 3 3 143 3 142
-76 0 -75 0 0 285 0 285 -145 0 -145 0 0 -855z"/>
<path d="M5430 1105 l0 -855 145 0 145 0 0 855 0 855 -145 0 -145 0 0 -855z"/>
<path d="M1182 1531 l-72 -138 0 -572 0 -571 145 0 145 0 0 285 0 285 70 0 70
0 0 140 0 140 -70 0 -70 0 0 285 0 285 -73 0 -73 0 -72 -139z"/>
<path d="M1540 1530 l0 -140 75 0 75 0 0 -570 0 -570 145 0 145 0 0 710 0 710
-220 0 -220 0 0 -140z"/>
<path d="M2220 960 l0 -710 145 0 145 0 2 422 3 423 70 -135 70 -135 3 138 3
138 -146 284 -147 285 -74 0 -74 0 0 -710z"/>
<path d="M2800 1105 l0 -565 72 -145 73 -145 72 0 73 0 0 710 0 710 -145 0
-145 0 0 -565z"/>
<path d="M3330 1105 l0 -565 72 -145 73 -145 147 0 148 0 0 140 0 140 -75 0
-75 0 0 570 0 570 -145 0 -145 0 0 -565z"/>
<path d="M3910 960 l0 -710 75 0 75 0 70 140 70 140 0 570 0 570 -145 0 -145
0 0 -710z"/>
<path d="M6032 1525 l-72 -145 0 -565 0 -565 145 0 145 0 2 283 3 282 73 3 72
3 0 139 0 139 -72 3 -73 3 -3 283 -2 282 -73 0 -72 0 -73 -145z"/>
<path d="M6400 1530 l0 -140 70 0 70 0 0 -692 c0 -397 4 -688 9 -682 5 5 70
123 145 262 l136 254 0 569 0 569 -215 0 -215 0 0 -140z"/>
<path d="M7150 1530 l-70 -140 0 -430 0 -430 70 -140 70 -140 145 0 145 0 0
140 0 140 -70 0 -70 0 0 570 0 570 -75 0 -75 0 -70 -140z"/>
<path d="M7510 1530 l0 -140 75 0 75 0 0 -570 0 -570 70 0 c67 0 77 -3 210
-70 77 -38 142 -70 145 -70 3 0 5 79 5 175 l0 175 -70 35 -70 35 0 425 0 425
-72 145 -73 145 -147 0 -148 0 0 -140z"/>
<path d="M8310 1530 l0 -140 145 0 145 0 0 140 0 140 -145 0 -145 0 0 -140z"/>
<path d="M8840 960 l0 -710 145 0 145 0 0 570 0 570 -70 140 -70 140 -75 0
-75 0 0 -710z"/>
<path d="M9782 1531 l-72 -138 0 -572 0 -571 145 0 145 0 0 710 0 710 -73 0
-73 0 -72 -139z"/>
<path d="M8315 1238 c-3 -7 -4 -287 -3 -623 l3 -610 143 276 142 276 0 347 0
346 -140 0 c-103 0 -142 -3 -145 -12z"/>
<path d="M9281 883 l-1 -213 67 -135 c37 -74 70 -135 73 -135 3 0 38 63 78
140 l72 139 -2 208 -3 208 -68 -132 c-38 -73 -72 -133 -75 -133 -4 0 -37 60
-74 133 l-67 132 0 -212z"/>
</g>
</svg>
