<?xml version="1.0" standalone="no"?>
<!DOCTYPE svg PUBLIC "-//W3C//DTD SVG 20010904//EN"
 "http://www.w3.org/TR/2001/REC-SVG-20010904/DTD/svg10.dtd">
<svg version="1.0" xmlns="http://www.w3.org/2000/svg"
 width="1000.000000pt" height="230.000000pt" viewBox="0 0 1000.000000 230.000000"
 preserveAspectRatio="xMidYMid meet">

<g transform="translate(0.000000,230.000000) scale(0.100000,-0.100000)"
fill="#000000" stroke="none">
<path d="M8749 2274 c-13 -15 -44 -40 -68 -55 -64 -41 -132 -39 -280 6 -92 29
-130 35 -200 35 -281 0 -526 -185 -663 -501 -75 -175 -109 -354 -109 -572 0
-250 48 -452 162 -679 27 -54 49 -102 49 -108 0 -6 -41 -94 -90 -197 -50 -102
-89 -187 -88 -188 2 -2 44 17 94 40 91 43 91 43 158 139 l68 96 41 -36 c51
-43 144 -88 213 -103 105 -21 254 -25 324 -7 149 38 256 162 331 383 26 79 64
242 57 247 -2 1 -42 16 -90 33 l-86 31 -7 -52 c-11 -96 -27 -151 -70 -241
-117 -250 -289 -300 -454 -135 -52 52 -101 139 -101 178 0 20 693 1369 847
1650 l34 62 -24 0 c-13 0 -34 -12 -48 -26z m-469 -184 c22 -11 52 -39 67 -62
26 -38 28 -49 27 -137 0 -165 -52 -287 -284 -676 -76 -126 -153 -261 -172
-299 l-35 -70 -6 35 c-34 188 -34 528 -2 709 50 279 132 442 249 496 63 29
105 30 156 4z"/>
<path d="M4140 2105 l-205 -173 -3 144 -3 143 -234 3 c-129 2 -235 2 -235 2 0
-1 11 -22 26 -47 50 -91 48 -51 54 -1139 l5 -1027 193 94 192 94 0 773 0 774
30 40 c41 57 100 95 155 102 43 4 48 2 83 -35 21 -22 43 -58 50 -80 9 -30 12
-256 12 -902 0 -473 1 -861 3 -861 2 0 95 42 208 94 l204 94 3 765 2 764 40
27 c51 34 87 33 137 -3 99 -72 192 -295 249 -601 35 -186 41 -354 20 -500 -14
-90 -70 -335 -101 -440 -4 -13 29 -15 255 -16 l260 -1 0 114 0 115 -32 -7
c-18 -3 -89 -9 -157 -12 -101 -4 -122 -3 -118 8 3 8 37 109 75 224 113 340
149 535 138 755 -12 256 -88 468 -240 670 -61 82 -185 210 -203 210 -4 0 -77
-77 -162 -170 l-153 -170 -51 73 c-63 90 -222 250 -262 264 -30 10 -36 6 -235
-162z"/>
<path d="M6822 2250 c-88 -51 -372 -269 -448 -345 -64 -63 -73 -77 -84 -128
-24 -106 11 -215 113 -353 28 -38 162 -179 297 -314 317 -314 360 -378 330
-487 -12 -42 -68 -113 -89 -113 -5 0 -104 79 -221 175 -117 96 -216 175 -220
175 -9 0 -167 -201 -218 -277 -28 -43 -32 -55 -22 -67 6 -8 78 -66 158 -127
81 -62 183 -142 227 -178 44 -35 86 -68 92 -74 9 -6 62 35 180 141 261 232
367 352 426 480 30 65 29 184 -2 263 -52 135 -155 258 -399 477 -236 212 -282
263 -302 333 -14 47 4 102 46 145 l36 35 185 -178 185 -177 25 29 c108 130
183 228 183 240 0 31 -384 356 -420 355 -3 0 -29 -14 -58 -30z"/>
<path d="M625 2264 c-121 -13 -260 -62 -352 -125 -99 -69 -199 -197 -249 -320
-31 -76 -30 -86 4 -63 172 115 322 173 465 182 l89 5 -74 -74 c-194 -194 -362
-552 -423 -898 -20 -113 -19 -301 1 -399 32 -157 118 -311 226 -406 73 -65
213 -132 317 -152 108 -21 233 -15 313 16 186 70 338 293 355 519 8 96 -5 92
-74 -20 -103 -167 -182 -222 -318 -223 -101 -1 -165 26 -229 94 -111 118 -159
308 -159 630 0 329 68 644 177 814 33 51 37 54 63 47 48 -14 108 -48 178 -101
41 -31 75 -50 88 -48 14 2 49 48 114 153 51 83 93 156 93 163 0 19 -116 101
-197 138 -39 19 -100 41 -136 49 -68 16 -207 25 -272 19z"/>
<path d="M1587 2225 c-218 -60 -337 -229 -293 -418 18 -78 73 -192 108 -225
l25 -23 49 21 c27 12 92 50 144 85 146 99 135 84 103 146 -56 107 -31 218 61
270 33 19 49 21 110 16 39 -3 93 -11 120 -18 l48 -12 -5 -47 c-14 -114 -99
-302 -257 -565 -247 -410 -503 -1003 -518 -1197 l-5 -68 595 0 595 0 56 -41
c68 -48 86 -46 122 15 33 56 32 71 -10 133 -19 29 -35 57 -35 63 0 6 17 40 39
75 56 94 85 191 78 265 -10 119 -133 320 -195 320 -25 0 -302 -199 -302 -217
0 -2 18 -25 39 -51 81 -96 103 -196 58 -263 -31 -46 -113 -93 -200 -115 -78
-20 -256 -24 -312 -7 -28 9 -30 13 -29 59 4 112 101 335 359 819 227 425 405
838 405 937 0 34 -3 39 -19 33 -56 -17 -164 -35 -221 -35 -36 0 -157 14 -270
30 -221 32 -364 37 -443 15z"/>
<path d="M2674 2186 c-50 -50 -53 -64 -21 -102 29 -33 70 -35 126 -4 31 18 42
20 60 11 l21 -12 2 -1033 3 -1034 185 87 185 87 5 954 5 954 30 7 c17 4 42 10
58 13 25 6 27 10 27 61 l0 55 -321 0 -322 0 -43 -44z"/>
<path d="M5404 2186 c-50 -50 -53 -64 -21 -102 29 -33 72 -35 123 -5 28 17 52
21 123 21 54 0 91 -4 99 -12 9 -9 12 -255 12 -1045 0 -568 2 -1033 4 -1033 3
0 89 40 193 89 l188 88 5 954 5 953 30 7 c17 4 42 10 58 13 25 6 27 10 27 61
l0 55 -401 0 -402 0 -43 -44z"/>
<path d="M9291 2204 c-309 -83 -514 -491 -513 -1024 0 -315 51 -536 161 -699
93 -137 243 -234 421 -272 83 -18 128 -20 364 -20 149 1 271 3 273 5 2 2 2 82
1 179 l-3 176 -83 -65 c-46 -35 -114 -78 -150 -96 -62 -31 -74 -33 -167 -33
-119 0 -157 16 -227 94 -88 98 -118 233 -118 533 l0 199 205 -3 205 -3 26 -27
c15 -15 37 -57 49 -94 l22 -67 69 184 c38 100 71 186 72 191 2 4 -144 8 -324
8 l-327 0 6 163 c7 238 45 384 121 474 104 123 340 108 539 -33 26 -19 49 -34
52 -34 3 0 5 63 5 140 l0 140 -312 -1 c-240 0 -326 -4 -367 -15z"/>
</g>
</svg>
