<?xml version="1.0" standalone="no"?>
<!DOCTYPE svg PUBLIC "-//W3C//DTD SVG 20010904//EN"
 "http://www.w3.org/TR/2001/REC-SVG-20010904/DTD/svg10.dtd">
<svg version="1.0" xmlns="http://www.w3.org/2000/svg"
 width="1000.000000pt" height="267.000000pt" viewBox="0 0 1000.000000 267.000000"
 preserveAspectRatio="xMidYMid meet">

<g transform="translate(0.000000,267.000000) scale(0.100000,-0.100000)"
fill="#000000" stroke="none">
<path d="M3668 2643 c-4 -35 -8 -11 113 -648 110 -582 110 -577 64 -716 -12
-37 -34 -83 -49 -101 -91 -111 -135 -188 -108 -188 5 0 42 18 83 39 82 43 172
73 194 64 8 -3 15 -16 15 -28 0 -13 11 -70 24 -127 14 -57 28 -149 31 -205 8
-110 22 -147 48 -124 14 11 16 6 22 -36 4 -26 10 -61 15 -76 11 -34 22 -30
-150 -50 -78 -10 -187 -31 -260 -52 -183 -51 -220 -48 -220 21 0 27 12 31 30
9 7 -8 23 -15 35 -15 47 0 40 77 -16 165 l-31 49 26 301 c44 513 58 741 58
990 1 192 -2 249 -14 285 l-16 45 -1 -64 c-1 -73 -11 -71 -31 4 -7 28 -20 64
-28 80 l-15 30 -9 -30 c-32 -119 -53 -457 -76 -1235 l-7 -255 -42 80 c-60 116
-83 201 -92 340 -8 130 -19 160 -96 275 -73 109 -136 178 -176 194 -29 12 -44
26 -56 53 -33 72 -73 98 -73 48 0 -30 -1 -30 -42 -5 -66 40 -153 17 -281 -73
-91 -65 -140 -87 -193 -87 -60 0 -106 -23 -150 -74 -42 -48 -131 -228 -170
-341 -15 -44 -30 -84 -34 -88 -6 -7 -117 383 -160 563 -27 115 -25 160 10 275
33 108 38 155 16 155 -8 0 -25 -13 -38 -29 -13 -16 -33 -34 -45 -40 -20 -10
-23 -8 -38 44 -25 87 -38 74 -51 -50 l-7 -70 -24 73 c-18 53 -29 72 -43 72
-43 0 -51 -119 -14 -220 27 -76 21 -162 -20 -270 -35 -95 -128 -310 -266 -615
-40 -88 -86 -202 -102 -253 -17 -50 -34 -92 -38 -92 -29 0 -217 655 -255 889
-25 146 -17 229 40 431 54 190 68 256 59 282 -15 48 -88 -7 -172 -132 -67 -98
-91 -110 -118 -58 -43 87 -100 168 -116 168 -27 0 -22 -21 27 -133 47 -108 64
-180 47 -191 -10 -6 -36 52 -62 139 -15 51 -35 79 -51 70 -17 -11 -6 -81 30
-199 37 -116 38 -145 10 -279 -44 -217 -161 -529 -355 -943 -219 -469 -285
-656 -237 -671 19 -7 58 64 178 322 146 311 205 435 210 435 2 0 -30 -100 -71
-222 -40 -123 -74 -237 -74 -254 0 -40 33 -73 54 -55 29 24 163 419 262 769
30 107 73 244 96 306 40 109 93 226 103 226 10 0 26 -53 76 -245 28 -104 77
-280 111 -390 113 -370 109 -355 102 -415 -3 -30 -15 -95 -25 -145 -26 -122
-25 -204 2 -239 38 -49 58 -34 119 91 30 62 59 112 63 113 5 0 23 -16 40 -35
17 -19 37 -35 44 -35 16 0 17 -12 -12 126 l-26 117 21 80 c24 90 125 351 253
653 47 110 91 221 97 245 15 57 50 139 60 139 7 0 10 -10 94 -305 30 -104 93
-320 141 -480 47 -159 104 -356 125 -437 22 -81 47 -164 55 -185 20 -47 53
-83 77 -83 27 0 23 39 -20 236 l-38 172 40 -16 c31 -13 75 -16 186 -16 158 1
290 21 374 57 57 24 165 102 283 205 46 40 87 72 93 72 14 0 43 -62 84 -177
72 -209 105 -229 106 -63 l1 85 40 -45 c64 -71 67 -79 79 -180 7 -52 13 -99
13 -103 1 -5 -50 -23 -114 -42 -258 -75 -519 -189 -519 -227 0 -26 208 14 415
81 125 41 201 51 223 29 7 -7 12 -38 12 -70 0 -43 4 -58 14 -58 20 0 33 20 41
65 13 68 16 71 112 84 48 8 184 37 302 66 l213 53 -4 -64 c-2 -35 -2 -64 1
-64 3 0 15 9 27 21 27 26 44 18 44 -21 0 -16 4 -31 9 -34 12 -8 21 44 21 120
0 61 1 64 28 70 76 17 167 51 254 98 54 28 98 55 98 59 0 5 -4 5 -10 2 -8 -5
-362 -35 -366 -31 -6 5 11 446 17 446 8 0 64 -35 161 -101 33 -22 69 -39 85
-39 33 0 70 -23 106 -65 22 -26 26 -28 32 -13 9 23 30 23 63 -1 39 -26 260
-153 303 -172 20 -9 42 -13 49 -9 24 15 -1 46 -90 110 -192 137 -225 169 -203
191 9 9 44 -9 149 -80 142 -95 234 -135 257 -111 12 12 -10 35 -101 106 -22
17 -64 59 -93 95 -79 96 -246 257 -327 317 -67 48 -99 61 -115 46 -11 -11 19
-57 67 -104 25 -24 46 -50 46 -57 0 -21 -32 -15 -72 12 -20 14 -40 25 -44 25
-8 0 -193 153 -193 160 -1 8 961 505 990 511 47 10 94 44 97 68 4 22 1 23 -30
18 -71 -14 -73 -13 -70 10 4 29 -4 26 -128 -46 -107 -62 -194 -100 -227 -101
-30 0 -29 13 2 44 14 14 25 30 25 36 0 18 -30 11 -53 -13 -12 -13 -49 -43 -82
-68 -131 -99 -175 -105 -82 -11 31 32 57 61 57 64 0 11 -114 -64 -193 -127
-88 -70 -305 -221 -333 -232 -10 -4 -47 -24 -81 -46 -46 -29 -70 -38 -95 -35
l-33 3 50 35 c28 19 80 59 117 90 36 31 90 69 120 84 101 55 205 136 173 136
-3 0 -49 -23 -103 -50 -144 -75 -353 -154 -366 -139 -5 6 -225 770 -232 806
-7 37 -27 58 -48 50 -19 -7 -31 26 -51 143 -14 80 -63 210 -79 210 -3 0 -6
-12 -8 -27z m-119 -650 c1 -13 -3 -23 -9 -23 -5 0 -10 19 -9 43 0 32 2 37 9
22 5 -11 9 -30 9 -42z m-771 -257 c26 -14 92 -76 80 -76 -3 0 -22 7 -43 16
-31 13 -88 22 -152 24 -18 0 -16 15 3 34 19 20 76 21 112 2z m6 -115 c81 -28
145 -76 167 -125 38 -83 23 -85 -86 -11 -94 64 -150 79 -270 70 l-80 -7 55 33
c51 30 118 57 148 58 7 1 37 -8 66 -18z m261 -40 c17 -34 5 -50 -19 -25 -18
17 -22 54 -6 54 5 0 16 -13 25 -29z m-725 -44 c0 -18 -43 -83 -133 -201 -72
-95 -98 -137 -112 -180 -10 -34 -28 -2 -21 38 13 69 127 260 193 324 35 32 73
43 73 19z m455 -41 c45 -19 153 -122 211 -200 67 -90 60 -148 -28 -232 -50
-49 -249 -197 -255 -191 -2 3 11 40 28 83 28 68 33 91 33 169 0 81 -3 96 -31
155 -18 37 -65 102 -108 149 -41 46 -75 86 -75 89 0 11 191 -8 225 -22z m-235
-51 c72 -53 156 -148 164 -185 9 -49 7 -209 -5 -259 -25 -112 -122 -241 -211
-281 -110 -50 -234 -2 -268 104 -15 47 -15 189 0 265 23 123 198 391 255 391
9 0 39 -16 65 -35z m624 -40 c25 -38 46 -132 46 -205 -1 -58 -2 -63 -15 -47
-13 18 -65 225 -65 260 0 24 15 21 34 -8z m316 -128 c0 -115 -12 -167 -24
-107 -13 65 -1 234 15 224 5 -3 9 -56 9 -117z m-1327 -114 c-37 -87 -38 -90
-38 -218 0 -123 14 -205 51 -311 5 -12 -7 -6 -33 19 -36 34 -43 50 -67 140
-14 56 -26 112 -26 124 0 31 66 217 108 303 51 105 55 60 5 -57z m2091 -82
c20 -8 148 -133 142 -138 -2 -2 -43 19 -92 47 -83 47 -114 72 -114 92 0 10 38
9 64 -1z m-780 -156 c0 -60 -5 -120 -10 -132 -6 -14 -9 28 -9 127 0 103 3 143
10 132 6 -9 10 -66 9 -127z m-462 58 c-68 -79 -182 -187 -212 -202 -14 -7 38
50 115 128 142 143 188 178 97 74z m53 -35 c-41 -136 -228 -317 -390 -377 -58
-22 -115 -28 -115 -12 0 5 21 21 48 36 111 64 385 284 422 339 28 41 45 47 35
14z m1638 -56 c19 -17 20 -21 8 -41 -12 -18 -59 10 -121 74 l-45 46 70 -32
c39 -17 78 -38 88 -47z m-1978 -97 c-29 -38 -132 -123 -210 -175 l-50 -33 60
62 c66 68 200 181 216 181 6 0 -2 -16 -16 -35z m695 -157 c0 -10 -2 -18 -5
-18 -9 0 -55 75 -55 90 1 21 60 -50 60 -72z m-970 22 c0 -17 -48 -42 -77 -38
-39 4 -44 35 -6 41 54 8 83 7 83 -3z m-223 -92 c51 -18 93 -36 93 -40 0 -28
-129 12 -185 56 -29 23 -12 20 92 -16z m943 -377 c0 -13 -95 -51 -127 -51
l-28 1 30 16 c27 15 99 41 118 42 4 1 7 -3 7 -8z"/>
<path d="M5350 2442 c0 -18 37 -93 216 -438 75 -145 94 -190 94 -224 0 -29
-28 -110 -96 -278 -53 -130 -98 -240 -101 -245 -2 -4 -12 -3 -21 2 -9 4 -29
11 -44 15 -24 5 -28 3 -28 -14 0 -12 -7 -20 -17 -20 -17 0 -153 21 -235 36
-31 5 -38 4 -38 -9 0 -13 -15 -17 -82 -19 -65 -2 -83 -6 -83 -18 0 -9 15 -17
43 -22 67 -11 113 -39 147 -88 34 -48 52 -54 47 -16 -2 13 3 26 10 28 25 9
238 -15 238 -27 0 -7 -58 -156 -128 -331 -206 -512 -209 -521 -212 -649 -2
-73 -2 -75 20 -75 18 0 20 7 20 84 0 74 4 91 30 142 17 31 42 96 55 143 33
114 69 202 90 213 43 24 58 -22 30 -89 -10 -24 -12 -40 -5 -47 15 -15 50 23
50 55 0 15 14 53 31 85 17 33 57 124 89 204 32 80 67 166 78 191 l20 47 119
-28 c65 -16 141 -31 168 -35 28 -4 58 -9 68 -11 10 -2 21 3 24 11 3 10 19 15
45 15 l39 0 49 -104 c27 -57 89 -184 138 -282 49 -99 95 -197 102 -219 7 -22
31 -66 53 -98 31 -45 42 -55 53 -47 7 7 23 10 36 8 17 -2 24 -11 28 -38 7 -41
17 -60 32 -60 19 0 1 82 -43 197 -22 59 -97 218 -166 352 -110 213 -122 243
-102 237 28 -8 188 -36 207 -36 6 0 12 4 12 8 0 4 -42 16 -92 26 -51 10 -104
23 -118 28 l-25 10 25 10 c24 10 24 11 -18 22 -50 13 -65 33 -139 186 -43 89
-104 195 -197 343 -22 34 -39 73 -39 87 0 14 41 115 91 225 105 233 132 298
132 325 0 28 -29 25 -34 -2 -3 -13 -8 -36 -11 -53 -8 -39 -79 -133 -112 -148
-21 -9 -26 -8 -34 6 -11 19 -49 24 -49 6 0 -6 -10 -33 -21 -60 -16 -36 -29
-51 -48 -56 -31 -8 -61 -5 -78 9 -14 11 -239 428 -271 501 -21 48 -42 62 -42
29z m459 -989 c25 -31 184 -343 179 -349 -4 -3 -358 94 -365 100 -5 4 96 248
108 262 18 22 56 16 78 -13z m-504 -255 c37 -17 31 -28 -17 -28 -48 0 -74 12
-64 29 9 14 48 14 81 -1z"/>
<path d="M7274 2373 c-4 -15 -2 -46 4 -70 13 -46 14 -123 4 -160 -4 -13 -40
-56 -81 -97 -50 -51 -72 -80 -67 -91 5 -14 9 -14 43 1 43 19 71 20 87 4 7 -7
12 -91 14 -239 l3 -229 -117 -163 c-100 -140 -215 -311 -311 -462 -46 -73 -63
-63 -118 78 -19 50 -92 196 -161 325 -167 313 -278 540 -304 622 -26 82 -69
133 -102 122 -33 -10 -39 -23 -32 -74 15 -104 83 -285 258 -688 189 -433 316
-765 316 -826 0 -13 3 -32 6 -41 5 -13 11 -10 34 17 23 27 31 31 41 20 19 -18
26 -15 38 18 13 37 20 37 56 0 16 -17 35 -30 42 -30 19 0 16 45 -8 101 -29 67
-22 100 47 223 59 103 294 459 300 453 2 -2 4 -97 5 -213 1 -115 4 -221 6
-237 5 -30 23 -37 23 -9 0 9 5 24 11 32 8 11 9 -97 5 -373 -3 -216 -2 -387 3
-387 16 0 21 30 21 119 0 142 11 241 26 241 8 0 14 -10 14 -22 0 -13 4 -18 9
-12 5 5 14 108 20 229 6 121 14 252 17 292 l6 71 32 -3 c17 -3 82 -10 144 -16
61 -6 112 -13 112 -15 0 -2 -53 -92 -119 -201 -129 -216 -164 -280 -159 -293
5 -15 95 101 228 292 68 98 125 176 127 174 8 -8 -29 -90 -56 -124 -33 -41
-71 -121 -95 -201 -13 -46 -14 -53 0 -58 8 -3 26 5 40 18 22 21 20 14 -16 -64
-42 -90 -61 -157 -43 -157 6 0 22 9 36 20 14 11 32 18 39 15 19 -7 116 157
255 431 l107 211 126 13 c187 18 391 24 421 12 19 -7 37 -33 66 -95 79 -164
217 -392 276 -454 24 -25 32 -46 39 -95 10 -74 26 -95 57 -79 11 6 25 20 31
31 15 27 28 309 40 855 6 259 14 485 18 503 7 31 15 19 178 -255 94 -159 185
-315 202 -349 17 -33 78 -119 137 -190 123 -149 169 -235 190 -349 42 -229 51
-269 62 -272 25 -9 37 41 35 145 -2 100 2 114 26 90 6 -6 15 -8 19 -4 22 22
-2 1454 -26 1566 l-7 35 -20 -35 c-18 -33 -19 -60 -19 -550 0 -387 -3 -538
-14 -607 -7 -51 -17 -93 -20 -93 -4 0 -27 28 -51 62 -24 35 -111 155 -194 268
-246 335 -287 407 -472 820 -78 175 -115 230 -153 230 -40 0 -51 -37 -62 -216
-12 -171 1 -997 20 -1319 5 -77 8 -141 6 -143 -8 -9 -68 139 -89 220 -14 53
-37 125 -52 160 -14 34 -33 88 -41 118 -13 51 -13 56 4 68 11 8 18 26 18 44 0
27 5 33 43 47 23 8 42 18 42 21 0 3 -31 11 -69 18 -91 15 -119 27 -130 54 -19
46 -131 296 -191 427 -123 266 -150 392 -115 530 11 39 15 74 11 78 -14 14
-41 -14 -54 -55 -8 -23 -18 -42 -22 -42 -5 0 -25 42 -44 93 -63 160 -75 154
-30 -15 15 -54 24 -101 21 -104 -3 -3 -30 2 -61 12 -43 14 -59 15 -68 6 -12
-12 -8 -23 47 -121 32 -56 33 -118 3 -208 -21 -64 -331 -697 -360 -735 -9 -12
-53 -26 -138 -43 -134 -27 -176 -39 -228 -62 -18 -9 -34 -14 -36 -12 -2 2 3
126 12 274 l15 270 44 89 c106 212 163 363 163 430 l-1 41 -32 -36 c-18 -20
-61 -86 -96 -145 -36 -60 -74 -123 -86 -141 l-21 -31 1 191 c0 212 -7 244 -50
233 -22 -6 -23 -3 -22 37 1 30 -5 51 -21 74 -12 17 -25 46 -28 65 -11 66 -15
78 -24 78 -5 0 -13 -12 -16 -27z m1832 -495 c22 -44 64 -152 64 -165 0 -2 -5
-1 -11 3 -13 8 -99 182 -99 201 0 28 21 11 46 -39z m-1758 -13 c6 -26 -8 -105
-18 -105 -8 0 -17 85 -12 114 5 21 26 15 30 -9z m962 -137 c11 -18 33 -69 49
-114 16 -44 59 -145 96 -223 77 -165 98 -222 88 -232 -12 -11 -123 -27 -238
-34 -55 -3 -126 -8 -159 -11 l-58 -5 7 37 c3 21 33 108 65 193 79 211 110 318
110 374 0 55 13 60 40 15z m-2046 -16 c20 -41 28 -82 16 -82 -13 0 -49 77 -50
103 0 24 16 13 34 -21z m2763 -794 c-1 -95 -3 -18 -3 172 0 190 2 267 3 173 2
-95 2 -251 0 -345z m-1837 343 c0 -13 -87 -107 -93 -101 -8 7 71 110 83 110 6
0 10 -4 10 -9z m-144 -210 c-61 -119 -183 -308 -193 -298 -9 9 126 247 184
325 35 47 39 33 9 -27z m2566 -50 c18 -22 46 -64 61 -93 l28 -53 -59 64 c-73
79 -100 121 -78 121 8 0 29 -18 48 -39z m337 -256 c0 -16 -4 -39 -9 -50 -6
-14 -9 2 -9 50 0 48 3 64 9 50 5 -11 9 -33 9 -50z"/>
</g>
</svg>
