<?xml version="1.0" standalone="no"?>
<!DOCTYPE svg PUBLIC "-//W3C//DTD SVG 20010904//EN"
 "http://www.w3.org/TR/2001/REC-SVG-20010904/DTD/svg10.dtd">
<svg version="1.0" xmlns="http://www.w3.org/2000/svg"
 width="691.000000pt" height="600.000000pt" viewBox="0 0 691.000000 600.000000"
 preserveAspectRatio="xMidYMid meet">

<g transform="translate(0.000000,600.000000) scale(0.100000,-0.100000)"
fill="#000000" stroke="none">
<path d="M3273 5982 c-3 -7 -1 -78 6 -157 6 -79 11 -168 11 -199 0 -66 25 -61
-220 -41 -214 17 -207 21 -190 -89 9 -60 9 -94 0 -148 -11 -65 -11 -73 5 -84
10 -7 29 -11 44 -9 34 6 285 25 330 25 l34 0 -7 -137 c-5 -97 -11 -142 -21
-153 -8 -9 -37 -24 -65 -34 -166 -60 -298 -214 -346 -405 -17 -67 -16 -245 1
-285 7 -15 5 -18 -6 -13 -8 3 -79 36 -159 72 -308 142 -568 241 -720 273 -425
91 -871 50 -1207 -109 -228 -108 -443 -310 -582 -545 -144 -244 -207 -561
-170 -854 43 -346 157 -647 435 -1145 136 -245 171 -318 225 -474 53 -152 54
-194 5 -265 -50 -73 -49 -114 4 -185 22 -29 40 -59 40 -66 0 -20 -23 -34 -70
-41 -25 -4 -55 -16 -67 -27 -20 -18 -23 -30 -23 -97 0 -67 3 -79 23 -98 13
-12 34 -22 48 -22 42 0 49 -17 49 -117 0 -86 -2 -93 -22 -104 -35 -18 -38 -27
-38 -125 0 -103 4 -111 65 -116 33 -2 41 -8 49 -30 8 -23 6 -34 -12 -58 -12
-16 -22 -42 -22 -58 0 -55 10 -56 228 -38 430 35 905 64 1462 88 369 16 1550
16 1975 0 564 -22 1078 -52 1565 -93 l245 -20 17 21 c23 29 23 51 -2 83 -36
45 -24 97 22 97 62 0 68 11 68 119 0 95 -1 99 -30 130 -29 30 -30 33 -24 103
7 80 19 98 65 98 45 0 59 31 59 131 0 100 -8 113 -82 123 -71 11 -75 23 -34
102 47 87 47 124 1 188 -30 43 -35 57 -35 107 0 115 93 340 269 654 329 586
456 984 438 1365 -16 347 -144 640 -389 896 -250 260 -549 389 -980 426 -250
20 -549 -15 -778 -93 -135 -45 -378 -148 -563 -236 -86 -42 -160 -74 -163 -71
-3 4 -1 23 5 45 26 93 4 259 -50 366 -70 142 -199 261 -333 308 -21 8 -45 23
-52 34 -7 12 -15 74 -19 153 l-8 132 49 -1 c27 0 114 -6 194 -13 85 -7 152 -9
163 -4 19 10 20 25 7 108 -5 33 -4 85 2 128 15 107 24 104 -210 85 -106 -8
-196 -12 -199 -9 -3 3 0 96 7 206 7 110 10 204 6 208 -4 3 -77 7 -163 7 -124
1 -156 -2 -160 -13z m-1476 -1912 c98 -17 179 -30 180 -30 2 0 3 -4 3 -9 0 -4
-21 -16 -47 -26 -158 -59 -299 -152 -415 -274 -288 -301 -344 -718 -158 -1183
22 -57 92 -200 154 -318 165 -312 223 -451 276 -662 18 -67 19 -89 11 -130
-12 -51 -37 -108 -79 -170 -35 -54 -32 -100 12 -172 38 -63 44 -87 24 -103
-13 -10 -464 -38 -508 -32 -36 6 -36 33 -1 119 27 68 28 77 16 107 -8 18 -43
65 -78 106 -73 84 -65 63 -252 612 -68 198 -157 458 -199 577 -95 272 -115
368 -123 568 -22 606 252 993 747 1054 77 9 268 -6 437 -34z m3770 19 c104
-14 243 -61 326 -110 300 -178 467 -569 428 -1001 -16 -171 -44 -279 -145
-542 -84 -220 -164 -444 -278 -776 -97 -285 -114 -322 -178 -406 -69 -88 -73
-110 -40 -218 12 -37 18 -71 15 -76 -8 -14 -54 -13 -315 6 -248 18 -263 22
-236 70 9 16 26 41 38 57 16 20 22 41 22 81 1 44 -7 68 -48 149 -60 117 -63
162 -18 312 48 164 97 278 214 505 190 367 206 400 249 508 68 175 117 442
105 573 -27 295 -248 564 -597 728 -57 27 -121 54 -141 60 -21 7 -38 16 -38
21 0 8 179 45 292 59 94 12 256 12 345 0z m-2694 -420 c128 -25 176 -54 177
-105 0 -11 20 -49 45 -85 76 -107 98 -227 99 -549 l1 -205 -86 -3 c-79 -2
-273 16 -666 65 -111 13 -146 14 -155 5 -9 -9 -8 -44 5 -154 21 -175 21 -199
0 -366 -14 -114 -14 -135 -2 -146 12 -12 50 -9 234 14 480 61 668 74 679 45 7
-18 -5 -153 -38 -435 -34 -282 -31 -271 -72 -330 -54 -78 -53 -98 1 -232 45
-111 47 -118 32 -141 -15 -24 -18 -24 -243 -30 -315 -10 -452 -9 -474 3 -33
18 -33 56 0 101 23 32 30 53 30 86 0 65 -22 97 -105 153 -41 28 -82 62 -91 75
-9 14 -38 110 -64 213 -67 259 -137 470 -234 701 -46 108 -97 234 -114 281
-173 475 -88 747 293 938 231 115 502 151 748 101z m1573 6 c300 -48 570 -208
662 -391 44 -88 55 -153 49 -290 -7 -173 -40 -283 -193 -641 -41 -95 -90 -218
-109 -274 -41 -118 -127 -421 -150 -531 -19 -88 -40 -121 -114 -176 -119 -90
-147 -189 -77 -273 27 -32 34 -73 15 -85 -6 -3 -177 -3 -381 1 l-370 7 -11 25
c-10 22 -5 37 38 121 64 124 66 165 14 237 -20 28 -39 59 -43 70 -14 39 -67
512 -69 615 l-2 105 76 3 c67 2 418 -32 717 -71 135 -18 137 -16 116 108 -19
114 -19 311 0 440 20 138 26 134 -156 112 -234 -29 -568 -65 -651 -70 -112 -8
-112 -8 -103 169 7 171 21 318 42 439 12 74 21 99 52 143 48 69 50 72 57 104
9 45 42 66 139 87 50 12 105 22 121 24 77 10 249 5 331 -8z m-930 -2904 c124
-75 5 -274 -124 -207 -77 40 -84 172 -11 212 35 19 99 17 135 -5z m390 3 c74
-35 89 -131 30 -190 -30 -30 -40 -34 -84 -34 -61 0 -108 33 -117 84 -9 45 20
114 59 137 38 23 68 24 112 3z m-1199 -19 c55 -37 67 -133 22 -182 -74 -78
-209 -26 -209 81 0 99 104 155 187 101z m396 14 c38 -19 57 -52 57 -97 0 -57
-21 -96 -64 -116 -45 -21 -74 -20 -114 4 -103 63 -64 220 55 220 24 0 54 -5
66 -11z m1212 -3 c63 -27 84 -114 42 -177 -29 -44 -86 -64 -133 -49 -107 36
-113 181 -10 226 40 17 59 17 101 0z m-2029 -12 c42 -20 64 -59 64 -111 0 -67
-52 -113 -127 -113 -45 0 -77 20 -98 60 -30 59 -13 118 44 157 40 27 71 29
117 7z m2441 -10 c35 -22 56 -61 56 -103 0 -134 -191 -162 -233 -35 -37 110
79 199 177 138z m-2825 -26 c39 -27 55 -86 37 -134 -19 -51 -60 -79 -114 -79
-106 0 -160 147 -78 212 46 37 104 38 155 1z m3260 -17 c47 -53 31 -154 -31
-185 -83 -43 -180 11 -181 102 0 78 53 125 134 118 41 -3 55 -9 78 -35z
m-3693 13 c55 -22 74 -55 69 -116 -9 -88 -84 -136 -162 -104 -41 17 -76 68
-76 111 0 42 34 93 73 110 41 18 49 18 96 -1z m4069 -14 c105 -64 57 -220 -67
-220 -60 0 -97 26 -111 79 -30 111 83 199 178 141z m-4443 -30 c81 -76 30
-210 -80 -210 -75 0 -136 76 -118 149 19 83 137 119 198 61z m4845 5 c58 -30
75 -89 46 -160 -47 -111 -226 -68 -226 55 0 92 96 148 180 105z m-1800 -365
c606 -15 1035 -35 1725 -81 208 -13 205 -13 205 -48 0 -47 -19 -55 -123 -47
-51 3 -213 15 -362 25 -1280 92 -2584 102 -3905 31 -159 -9 -675 -43 -795 -53
-23 -1 -32 4 -42 22 -19 39 -1 59 59 65 248 28 1351 81 1863 89 413 7 1008 6
1375 -3z"/>
</g>
</svg>
