<?xml version="1.0" standalone="no"?>
<!DOCTYPE svg PUBLIC "-//W3C//DTD SVG 20010904//EN"
 "http://www.w3.org/TR/2001/REC-SVG-20010904/DTD/svg10.dtd">
<svg version="1.0" xmlns="http://www.w3.org/2000/svg"
 width="704.000000pt" height="600.000000pt" viewBox="0 0 704.000000 600.000000"
 preserveAspectRatio="xMidYMid meet">

<g transform="translate(0.000000,600.000000) scale(0.100000,-0.100000)"
fill="#000000" stroke="none">
<path d="M6465 5977 c-33 -16 -69 -46 -105 -88 -30 -35 -95 -105 -143 -156
l-89 -91 -181 -51 c-100 -27 -273 -73 -384 -101 -286 -71 -300 -77 -402 -175
-80 -77 -90 -84 -146 -95 -108 -21 -150 -39 -225 -99 l-74 -59 -48 63 c-38 50
-61 70 -112 95 -69 34 -109 36 -219 11 -78 -17 -199 -30 -442 -45 -440 -28
-495 -30 -560 -13 -184 48 -451 45 -630 -8 -49 -14 -117 -29 -150 -33 l-60 -7
100 -33 c98 -32 241 -97 250 -113 3 -4 -7 -14 -22 -22 -16 -8 -55 -31 -87 -51
-53 -32 -75 -41 -98 -37 -3 0 -48 10 -99 21 -181 39 -425 59 -739 61 -242 1
-276 -4 -564 -78 l-179 -46 -73 21 c-109 33 -141 29 -253 -25 -53 -25 -159
-76 -236 -112 -162 -76 -245 -121 -245 -131 0 -14 112 -22 208 -14 91 6 96 6
82 -11 -19 -23 -109 -82 -193 -128 -95 -52 -195 -119 -243 -164 -39 -37 -110
-123 -101 -123 2 0 26 10 53 21 109 49 229 61 339 34 33 -8 116 -35 185 -60
176 -64 252 -82 459 -105 168 -20 220 -30 371 -74 30 -9 118 -20 195 -26 77
-6 149 -12 161 -15 11 -2 39 -31 62 -62 50 -72 107 -131 166 -174 25 -18 44
-34 43 -36 -8 -8 -100 32 -223 97 -73 39 -139 70 -147 70 -8 0 -36 -25 -63
-57 -104 -122 -199 -173 -519 -278 -143 -48 -283 -102 -400 -157 -99 -46 -196
-90 -215 -98 -58 -22 -54 -27 22 -33 107 -10 241 -41 428 -98 141 -44 181 -52
278 -58 l112 -6 -62 -47 c-35 -25 -152 -130 -262 -232 -265 -248 -362 -320
-535 -393 l-76 -32 59 -1 c158 -1 531 87 720 169 27 12 51 20 53 17 14 -14
-217 -229 -321 -300 l-39 -26 84 0 c154 0 259 28 331 88 l33 27 -25 -35 c-109
-159 -290 -303 -585 -464 -127 -69 -136 -76 -95 -70 161 22 343 93 528 206 17
11 32 17 32 14 0 -14 -142 -181 -224 -262 -118 -117 -217 -203 -342 -297 -101
-76 -288 -197 -303 -197 -5 0 -14 -7 -21 -15 -10 -12 -7 -13 22 -4 18 5 117
18 219 29 263 27 267 28 464 127 239 120 294 166 524 436 77 91 226 238 281
277 30 21 -63 -125 -323 -510 -94 -139 -198 -268 -269 -336 l-71 -67 89 7
c126 10 200 23 235 40 16 8 29 11 29 6 0 -19 -124 -161 -236 -270 -150 -146
-363 -323 -538 -447 -33 -24 -55 -43 -49 -43 21 0 229 98 345 163 208 117 543
347 654 449 24 23 46 39 49 36 13 -13 -137 -309 -213 -416 -50 -72 -50 -73 68
12 233 167 388 315 492 470 157 233 745 1023 754 1013 4 -3 -70 -145 -141
-274 -205 -368 -297 -540 -380 -708 -77 -158 -125 -275 -125 -306 0 -30 -29
-106 -82 -219 -63 -132 -72 -158 -92 -261 -30 -152 -59 -263 -83 -318 -13 -30
-22 -56 -20 -57 4 -5 90 77 147 141 118 130 294 362 619 820 177 248 201 279
201 255 0 -8 -18 -96 -40 -195 -22 -99 -49 -243 -61 -320 -24 -165 -44 -252
-74 -320 -13 -27 -28 -67 -35 -89 -12 -38 -40 -228 -35 -234 4 -5 183 166 278
264 76 79 166 187 192 229 7 11 39 61 71 110 71 111 149 262 166 323 l13 46
32 -50 c45 -69 49 -114 24 -226 -21 -97 -51 -398 -39 -398 9 0 55 67 95 140
92 163 194 498 258 845 7 36 10 27 26 -80 10 -66 25 -140 34 -165 22 -58 28
-197 18 -377 -4 -79 -7 -143 -5 -143 7 0 175 351 202 422 30 79 60 221 60 289
0 22 4 39 9 39 20 0 48 -198 67 -475 7 -113 17 -137 71 -186 63 -57 224 -159
251 -159 5 0 -1 29 -14 65 -58 161 -93 425 -101 770 -6 283 6 388 60 495 36
72 51 83 158 111 36 9 108 38 160 63 157 75 303 100 449 76 107 -17 163 -44
215 -102 82 -91 93 -211 28 -289 -14 -16 -22 -29 -19 -29 4 0 41 18 84 39 93
47 239 143 305 201 26 23 50 40 53 37 26 -26 32 -222 9 -287 -20 -57 -20 -57
21 -21 20 18 88 57 152 88 93 45 129 69 174 115 32 32 65 58 73 58 32 0 62
-23 157 -122 l96 -102 79 46 c168 98 159 87 202 238 45 153 59 178 175 294 58
59 109 118 112 131 13 54 -48 85 -166 85 l-81 0 29 43 c58 85 76 149 75 282 0
103 -4 132 -28 205 -27 86 -83 200 -97 200 -5 0 -8 -19 -8 -43 0 -143 -161
-497 -226 -497 -15 0 -37 -17 -64 -49 l-42 -49 -71 24 c-39 13 -90 24 -114 24
l-44 0 6 38 c4 20 9 49 11 63 8 43 -15 195 -42 277 -26 80 -77 182 -121 239
-25 33 -47 45 -37 20 9 -24 -15 -294 -31 -359 -22 -85 -38 -112 -79 -136 -19
-12 -44 -39 -56 -62 -12 -24 -26 -39 -33 -36 -7 3 -52 22 -102 42 -103 42
-119 54 -148 109 -23 46 -36 57 -97 86 -51 24 -206 59 -261 59 -20 0 -68 -12
-105 -26 -59 -23 -92 -28 -222 -34 l-152 -8 -98 -47 c-58 -27 -109 -45 -123
-43 -22 3 -24 8 -27 71 -3 72 13 160 73 412 19 78 41 204 50 279 8 75 19 146
24 159 16 40 152 118 276 156 39 12 144 42 234 67 160 43 167 46 260 113 116
82 155 105 202 120 20 6 53 31 74 54 101 112 175 190 177 186 2 -2 14 -25 26
-51 17 -33 36 -53 68 -70 35 -18 44 -28 44 -50 0 -15 14 -107 31 -205 17 -98
29 -190 26 -205 -5 -39 8 -35 40 15 80 119 137 337 164 629 l12 128 33 5 c19
3 50 8 70 11 61 9 137 49 178 92 l40 41 23 -34 c16 -24 31 -35 48 -35 28 0 68
-38 97 -95 31 -58 35 -169 10 -265 -11 -41 -19 -76 -17 -78 1 -2 30 34 64 79
115 151 155 258 154 409 0 106 -22 183 -78 279 -28 47 -31 59 -24 90 30 128
-25 341 -92 358 -14 4 -18 11 -14 22 38 91 25 148 -54 256 -21 28 -47 77 -60
110 -12 33 -32 80 -45 105 -28 55 -58 61 -131 27z m-2520 -1400 c69 -23 97
-27 200 -27 66 0 151 5 189 10 38 6 71 8 73 6 9 -9 -58 -61 -167 -128 -63 -39
-140 -97 -171 -128 l-57 -57 -40 28 c-182 124 -453 249 -540 249 -59 0 32 33
178 65 98 22 237 14 335 -18z"/>
</g>
</svg>
