<?xml version="1.0" standalone="no"?>
<!DOCTYPE svg PUBLIC "-//W3C//DTD SVG 20010904//EN"
 "http://www.w3.org/TR/2001/REC-SVG-20010904/DTD/svg10.dtd">
<svg version="1.0" xmlns="http://www.w3.org/2000/svg"
 width="600.000000pt" height="916.000000pt" viewBox="0 0 600.000000 916.000000"
 preserveAspectRatio="xMidYMid meet">

<g transform="translate(0.000000,916.000000) scale(0.100000,-0.100000)"
fill="#000000" stroke="none">
<path d="M116 9146 c-77 -29 -126 -106 -110 -173 3 -15 47 -174 96 -353 195
-705 238 -940 238 -1285 0 -168 -10 -277 -55 -625 -76 -582 -95 -828 -102
-1306 -6 -389 0 -529 32 -874 8 -85 19 -225 25 -310 13 -186 31 -314 71 -515
34 -169 74 -292 164 -510 130 -311 231 -508 585 -1135 119 -212 248 -443 285
-513 137 -260 495 -693 814 -985 214 -195 446 -369 685 -512 l89 -53 136 27
c227 45 439 125 646 243 166 95 811 566 1125 821 135 111 340 315 417 417 217
288 343 628 423 1145 11 69 38 289 60 490 22 201 49 433 60 515 29 222 48 410
70 679 11 133 29 315 40 406 32 272 45 607 32 810 -20 312 -74 700 -127 919
-18 75 -45 215 -60 311 -14 96 -38 236 -52 310 -23 118 -26 162 -27 350 -1
183 3 234 22 340 40 218 80 385 179 745 120 438 126 466 113 515 -13 48 -66
95 -122 111 -74 20 -141 6 -316 -65 -435 -176 -849 -248 -1987 -343 -506 -43
-1016 -37 -1598 18 -654 61 -1157 173 -1592 355 -104 43 -195 54 -259 30z
m364 -280 c80 -30 182 -65 228 -78 l83 -23 51 -79 c110 -171 140 -276 140
-491 1 -291 -64 -462 -285 -755 -40 -52 -100 -142 -135 -199 -34 -58 -64 -106
-65 -107 -1 -2 -1 92 1 207 8 408 -34 668 -210 1323 l-62 229 24 19 c31 25 47
22 230 -46z m5271 45 l24 -19 -29 -109 c-139 -520 -187 -732 -208 -908 -14
-120 -18 -619 -5 -699 l7 -50 -88 130 c-49 72 -130 185 -180 251 -117 155
-144 200 -186 309 -52 136 -69 243 -63 404 6 162 28 255 92 385 73 147 72 147
285 220 102 35 210 72 240 84 69 25 82 26 111 2z m-721 -243 c-74 -120 -110
-267 -110 -453 1 -259 64 -476 183 -624 173 -215 339 -501 442 -765 49 -124
127 -400 181 -641 33 -148 84 -560 99 -795 7 -119 -8 -299 -32 -375 -44 -138
-184 -368 -371 -608 -226 -291 -331 -535 -389 -902 -32 -201 -23 -635 24
-1130 17 -183 10 -329 -22 -486 -90 -439 -361 -796 -739 -975 -51 -24 -97 -44
-101 -44 -4 0 9 18 30 41 66 74 92 156 179 586 68 331 75 411 83 1043 6 468
-3 736 -33 970 -8 63 -19 157 -24 208 -5 51 -17 125 -25 165 -22 107 -166 550
-209 642 -53 114 -171 285 -270 391 -80 86 -94 96 -203 149 -211 104 -306 227
-373 485 -40 157 -59 279 -67 445 l-6 140 72 -67 c84 -77 185 -133 471 -256
445 -191 1175 -451 1428 -508 l73 -16 30 28 c39 37 93 150 121 250 31 115 31
356 -1 504 -57 270 -187 566 -376 856 -140 214 -449 527 -620 626 -89 51 -242
119 -400 177 -77 29 -207 77 -290 108 -190 70 -351 146 -460 217 -85 56 -105
64 -105 47 0 -5 -6 -16 -12 -23 -17 -17 -6 -2169 11 -2348 28 -299 56 -459
102 -583 28 -77 92 -190 144 -252 l24 -29 24 22 c25 24 103 52 141 52 45 0 98
-23 131 -56 32 -32 75 -102 75 -122 0 -4 -27 -13 -59 -20 -91 -19 -190 -74
-360 -202 -241 -181 -322 -218 -454 -207 -96 8 -177 49 -367 186 -221 158
-379 231 -499 231 -23 0 -41 4 -41 8 0 5 16 27 35 49 68 79 183 95 293 39 l52
-26 21 32 c44 71 129 258 157 348 34 106 53 220 78 450 15 134 18 310 21 1292
4 1137 4 1137 -16 1157 -12 12 -25 21 -29 21 -5 0 -51 -32 -103 -72 -122 -92
-256 -157 -454 -219 -546 -171 -664 -235 -947 -507 -319 -308 -519 -652 -574
-987 -23 -145 -15 -346 20 -479 30 -111 75 -215 129 -297 67 -100 57 -98 122
-30 34 36 83 73 125 95 67 36 191 86 210 86 15 0 12 -119 -5 -197 -18 -85 -45
-165 -127 -368 -83 -207 -101 -271 -102 -371 -1 -76 1 -85 30 -125 47 -65 128
-104 215 -103 62 0 73 4 123 38 95 65 144 170 133 284 -3 31 -21 93 -40 138
-68 157 -134 387 -176 609 l-18 95 71 0 c39 0 98 5 131 10 91 14 258 37 365
50 52 7 163 29 245 50 240 62 386 127 513 229 l62 51 0 -113 c0 -288 -112
-684 -257 -907 l-35 -55 -82 0 c-71 0 -87 -4 -129 -28 -122 -72 -249 -229
-308 -382 -76 -197 -103 -381 -119 -819 -23 -641 -11 -933 75 -1766 41 -394
66 -541 140 -830 13 -52 23 -95 22 -97 -4 -3 -155 171 -249 287 -157 193 -235
336 -312 572 -58 177 -86 303 -151 698 -66 394 -94 530 -145 693 -149 478
-301 800 -525 1112 -155 215 -217 403 -231 704 -12 258 19 813 72 1261 47 399
46 395 123 549 83 166 153 280 264 429 150 202 224 347 263 517 15 63 19 120
19 270 0 220 -14 285 -90 438 -24 48 -42 87 -38 87 3 0 78 -16 167 -35 748
-160 1769 -225 2436 -156 316 33 739 87 1135 145 198 30 365 54 372 55 7 0 -5
-27 -27 -61z m-2390 -958 l0 -250 -45 -43 c-94 -91 -246 -153 -604 -247 -187
-49 -245 -69 -336 -115 -210 -106 -420 -280 -559 -465 -131 -174 -206 -331
-263 -550 -32 -125 -35 -143 -30 -247 2 -62 1 -113 -4 -113 -20 0 -79 212
-100 360 -41 292 91 666 350 990 110 137 344 359 472 448 119 81 256 136 670
266 151 48 308 120 394 180 28 19 51 35 53 35 1 1 2 -112 2 -249z m734 205
c109 -73 242 -133 381 -171 348 -95 545 -177 705 -294 133 -97 381 -353 486
-500 262 -369 411 -668 460 -927 20 -109 15 -309 -11 -393 -23 -74 -66 -170
-76 -170 -5 0 -9 15 -9 33 0 50 -45 251 -80 362 -115 358 -309 668 -582 930
-216 209 -365 298 -603 360 -465 121 -616 182 -708 285 l-37 40 0 245 c0 135
2 245 4 245 2 0 33 -20 70 -45z m-744 -1623 c-43 -160 -259 -297 -600 -381
-174 -43 -269 -58 -546 -86 -326 -34 -449 -67 -551 -151 -24 -19 -43 -32 -43
-29 0 4 26 39 59 78 191 234 374 335 720 398 511 93 827 229 938 404 l28 45 3
-120 c1 -66 -2 -138 -8 -158z m737 195 c84 -100 173 -152 509 -295 499 -214
892 -439 1212 -696 72 -59 132 -109 132 -111 0 -2 -33 10 -74 25 -41 16 -236
86 -433 156 -197 69 -443 160 -548 201 -216 84 -527 234 -660 318 -174 109
-197 150 -202 355 -3 131 -3 134 14 111 10 -14 33 -42 50 -64z m-1171 -1904
c148 -62 258 -159 446 -390 136 -167 167 -196 246 -235 53 -26 77 -32 132 -32
126 0 162 28 500 381 98 102 137 136 182 157 96 44 227 32 320 -29 33 -22 49
-46 99 -148 129 -268 205 -601 228 -997 6 -96 16 -258 22 -360 16 -253 -6
-839 -47 -1220 -27 -258 -87 -496 -161 -644 -62 -124 -183 -287 -288 -390 -48
-48 -195 -150 -203 -141 -2 2 -10 214 -18 472 -18 632 -31 730 -115 901 -101
206 -322 334 -579 336 -284 1 -458 -134 -532 -415 -21 -80 -22 -106 -25 -616
-3 -293 -7 -533 -10 -533 -9 0 -193 163 -245 217 -39 40 -51 63 -77 144 -92
292 -169 690 -205 1069 -82 840 -84 1866 -6 2249 25 123 72 219 120 244 48 25
127 17 216 -20z m3509 -143 c-37 -143 -67 -391 -85 -720 -6 -101 -17 -225 -25
-275 -20 -128 -33 -270 -50 -583 -22 -392 -46 -563 -101 -737 -54 -171 -158
-337 -298 -474 l-65 -65 38 80 c63 128 76 194 75 379 0 125 -7 205 -32 370
-78 526 -68 878 34 1194 46 140 168 377 302 586 66 102 214 307 219 302 1 -2
-4 -27 -12 -57z m-5306 -64 c10 -24 58 -98 105 -164 265 -369 456 -799 585
-1317 59 -237 76 -325 137 -715 4 -27 -11 -6 -61 83 -36 65 -118 202 -182 305
-317 511 -397 683 -492 1059 -49 197 -77 361 -96 573 -8 91 -18 177 -21 193
-8 40 2 33 25 -17z m2693 -2502 c222 -66 370 -235 439 -499 22 -82 24 -110 23
-310 0 -245 -15 -343 -75 -510 -26 -71 -39 -92 -77 -126 -62 -54 -98 -72 -264
-128 l-138 -47 -118 71 c-64 39 -173 111 -242 161 l-125 89 0 545 0 545 30 55
c78 143 337 216 547 154z"/>
<path d="M2720 3751 c-190 -42 -307 -109 -420 -244 -129 -152 -183 -315 -221
-662 -16 -155 -6 -376 26 -560 47 -266 42 -243 51 -215 4 14 25 59 45 100 133
263 411 411 772 410 212 -1 390 -65 634 -227 154 -103 224 -175 279 -288 24
-49 46 -105 50 -122 4 -18 10 -33 14 -33 12 0 75 166 94 245 90 386 4 827
-231 1183 -131 198 -329 351 -528 407 -95 27 -452 31 -565 6z"/>
</g>
</svg>
