<?xml version="1.0" standalone="no"?>
<!DOCTYPE svg PUBLIC "-//W3C//DTD SVG 20010904//EN"
 "http://www.w3.org/TR/2001/REC-SVG-20010904/DTD/svg10.dtd">
<svg version="1.0" xmlns="http://www.w3.org/2000/svg"
 width="1000.000000pt" height="1000.000000pt" viewBox="0 0 1000.000000 1000.000000"
 preserveAspectRatio="xMidYMid meet">

<g transform="translate(0.000000,1000.000000) scale(0.100000,-0.100000)"
fill="#000000" stroke="none">
<path d="M4285 9160 l-710 -710 -1010 -2 -1010 -3 -3 -1010 -2 -1010 -713
-712 -712 -713 713 -713 712 -712 0 -1008 0 -1007 1008 0 1007 0 715 -715 715
-715 715 715 715 715 1013 0 1012 0 0 1013 0 1012 710 710 710 710 -710 710
-710 710 -2 1010 -3 1010 -1010 3 -1010 2 -710 710 c-390 391 -712 710 -715
710 -3 0 -325 -319 -715 -710z m960 10 l240 -240 -485 0 -485 0 240 240 c132
132 242 240 245 240 3 0 113 -108 245 -240z m605 -605 l115 -115 -965 0 -965
0 115 115 115 115 735 0 735 0 115 -115z m-3330 -448 c0 -1 -146 -148 -325
-327 l-325 -325 0 328 0 327 325 0 c179 0 325 -1 325 -3z m720 0 c0 -1 -308
-310 -685 -687 l-685 -685 0 185 0 185 502 502 503 503 182 0 c101 0 183 -1
183 -3z m1452 -240 l-242 -242 0 -383 0 -382 -155 0 -154 0 -181 109 c-99 60
-180 107 -180 104 0 -3 27 -50 60 -105 33 -54 60 -101 60 -103 0 -3 -48 -5
-108 -5 l-107 0 -275 -275 -275 -275 -275 275 -275 275 -65 0 -65 0 200 200
200 200 140 -140 140 -140 175 175 175 175 247 0 248 0 0 247 0 248 142 142
143 143 335 0 335 0 -243 -243z m1185 101 l143 -143 0 -247 0 -248 248 0 247
0 175 -175 175 -175 140 140 140 140 200 -200 200 -200 -65 0 -65 0 -275 -275
-275 -275 -275 275 -275 275 -387 0 -388 0 0 387 0 388 -237 237 -238 238 335
0 335 0 142 -142z m1741 -361 l502 -503 -2 -177 -3 -177 -680 680 -680 680
180 0 180 0 503 -503z m502 178 c0 -179 -1 -325 -3 -325 -1 0 -148 146 -327
325 l-325 325 328 0 327 0 0 -325z m-2845 -1205 l270 -270 387 0 388 0 0 -387
0 -388 272 -272 273 -273 -273 -273 -272 -272 0 -388 0 -387 -387 0 -388 0
-272 -272 -273 -273 -273 273 -272 272 -388 0 -387 0 0 388 0 387 -270 270
-270 270 -275 -275 -275 -275 0 -382 0 -383 -343 0 c-322 0 -345 1 -361 19
-14 16 -16 44 -14 237 l3 219 123 3 122 3 0 242 0 242 177 177 178 178 -178
178 -177 177 0 248 0 247 -125 0 -125 0 0 217 c0 187 2 219 17 235 15 17 40
18 360 18 l343 0 0 -383 0 -382 275 -275 275 -275 270 270 270 270 0 387 0
388 388 0 387 0 108 -65 c59 -35 107 -62 107 -58 0 3 -27 50 -60 105 -33 54
-60 102 -60 106 0 8 442 452 450 452 3 0 127 -121 275 -270z m2833 -282 c9 -9
12 -75 12 -235 l0 -222 -117 -3 -118 -3 -3 -250 -2 -250 -173 -172 -172 -173
173 -173 172 -172 0 -248 0 -247 120 0 120 0 0 -228 c0 -164 -3 -231 -12 -240
-9 -9 -102 -12 -355 -12 l-343 0 0 387 0 388 -272 272 -273 273 273 273 272
272 0 388 0 387 343 0 c253 0 346 -3 355 -12z m-6558 -1310 l0 -963 -115 115
-115 115 0 735 0 735 112 112 c62 62 114 113 115 113 2 0 3 -433 3 -962z
m7120 2 l0 -745 -110 -110 -110 -110 0 965 0 965 110 -110 110 -110 0 -745z
m505 -240 c-132 -132 -243 -240 -247 -240 -5 0 -8 219 -8 487 l0 488 247 -247
248 -248 -240 -240z m-8105 238 l0 -483 -242 242 -243 243 240 240 c132 132
241 240 242 240 2 0 3 -217 3 -482z m2345 -1588 l270 -270 387 0 388 0 0 -387
0 -388 242 -242 243 -243 -335 0 -335 0 -142 142 -143 143 0 247 0 248 -247 0
-248 0 -177 177 -178 178 -143 -143 -142 -142 -205 205 -205 205 75 0 75 0
270 270 c148 149 272 270 275 270 3 0 127 -121 275 -270z m4065 -280 l65 0
-200 -200 -200 -200 -140 140 -140 140 -175 -175 -175 -175 -247 0 -248 0 0
-247 0 -248 -142 -142 -143 -143 -335 0 -335 0 238 238 237 237 0 388 0 387
388 0 387 0 275 275 275 275 275 -275 275 -275 65 0z m133 -742 l-508 -508
-172 0 c-95 0 -173 3 -173 7 0 5 305 313 678 686 l677 677 3 -177 2 -177 -507
-508z m-5048 172 l680 -680 -185 0 -185 0 -502 502 -503 503 0 177 c0 98 3
178 8 178 4 0 313 -306 687 -680z m5555 -350 l0 -330 -332 0 -333 0 330 330
c181 182 331 330 332 330 2 0 3 -148 3 -330z m-5915 -10 l320 -320 -328 0
-327 0 0 320 c0 176 3 320 8 320 4 0 151 -144 327 -320z m3755 -647 c0 -4 -55
-63 -122 -130 l-123 -123 -715 0 -715 0 -130 130 -130 130 968 0 c532 0 967
-3 967 -7z m-510 -511 c0 -4 -101 -108 -225 -232 l-225 -225 -233 233 -232
232 458 0 c251 0 457 -3 457 -8z"/>
<path d="M4825 6020 l-169 -170 -251 -2 -250 -3 -3 -250 -2 -250 -173 -172
-172 -173 173 -173 172 -172 0 -248 0 -247 247 0 248 0 177 -177 178 -178 178
178 177 177 243 0 242 0 0 242 0 243 177 177 178 178 -178 178 -177 177 0 248
0 247 -248 0 -247 0 -170 170 c-93 94 -172 170 -175 170 -3 0 -82 -76 -175
-170z"/>
</g>
</svg>
