<?xml version="1.0" standalone="no"?>
<!DOCTYPE svg PUBLIC "-//W3C//DTD SVG 20010904//EN"
 "http://www.w3.org/TR/2001/REC-SVG-20010904/DTD/svg10.dtd">
<svg version="1.0" xmlns="http://www.w3.org/2000/svg"
 width="1000.000000pt" height="858.000000pt" viewBox="0 0 1000.000000 858.000000"
 preserveAspectRatio="xMidYMid meet">

<g transform="translate(0.000000,858.000000) scale(0.100000,-0.100000)"
fill="#000000" stroke="none">
<path d="M2472 8555 c3 -5 220 -508 482 -1117 287 -666 481 -1130 488 -1165 6
-32 18 -62 26 -67 43 -25 130 -122 491 -546 491 -576 453 -529 444 -545 -5 -7
-35 -34 -69 -59 -225 -168 -379 -444 -409 -728 -6 -66 -8 -68 -34 -68 -62 0
-1221 240 -1281 265 l-61 26 -67 -21 c-99 -32 -410 -71 -426 -54 -11 10 -10
32 1 116 70 518 267 1001 574 1408 88 117 280 336 370 422 27 26 49 55 49 63
0 9 -14 50 -32 91 -30 71 -33 75 -58 70 -30 -6 -70 2 -70 14 0 4 16 11 35 14
19 4 37 11 39 15 7 10 -71 200 -89 219 -10 11 -23 5 -72 -35 -88 -71 -157
-133 -152 -137 2 -2 28 -16 57 -30 30 -15 52 -29 50 -31 -2 -3 -28 -1 -57 4
-93 15 -115 4 -224 -110 -523 -544 -849 -1260 -918 -2016 -6 -72 -15 -137 -20
-144 -5 -9 -243 -43 -766 -109 -500 -64 -746 -98 -723 -103 19 -3 483 -61
1030 -128 855 -104 1000 -119 1028 -109 30 10 36 9 55 -8 16 -14 49 -22 127
-31 58 -7 137 -23 177 -37 l72 -24 73 29 c53 22 235 61 673 145 565 109 635
122 635 112 0 -2 7 -43 15 -92 20 -113 61 -240 82 -248 8 -4 28 0 44 8 34 17
35 16 10 -50 l-20 -52 44 -66 c24 -37 71 -98 106 -137 l62 -70 -30 -32 c-16
-18 -195 -214 -398 -437 -444 -489 -497 -543 -546 -565 -37 -17 -38 -19 -45
-84 -8 -85 -103 -365 -124 -369 -22 -4 -213 170 -322 292 -338 380 -582 837
-688 1289 -22 96 -37 134 -56 141 -31 12 -457 47 -465 39 -21 -21 77 -435 152
-647 39 -109 44 -119 75 -132 39 -16 40 -21 18 -52 -15 -22 -12 -30 70 -195
214 -433 530 -821 929 -1140 55 -45 87 -78 87 -90 0 -10 -133 -335 -295 -722
-162 -387 -295 -706 -295 -710 0 -4 313 420 695 942 444 605 715 967 751 1000
52 48 56 55 64 115 6 41 89 275 239 677 126 337 233 617 238 622 5 5 31 -6 63
-27 115 -74 272 -141 376 -158 l42 -7 6 223 c12 490 17 1796 5 1804 -11 6 -79
14 -132 15 -15 0 -64 -17 -108 -37 -45 -20 -85 -32 -89 -28 -17 18 -450 1285
-450 1317 0 55 -10 74 -55 106 -23 17 -86 89 -141 162 -114 153 -119 134 50
205 219 93 423 154 614 184 56 9 72 15 72 28 0 10 -15 79 -34 155 -23 96 -40
145 -55 161 -18 20 -21 28 -12 44 6 11 8 35 4 52 l-6 33 -67 -7 c-231 -21
-544 -117 -834 -255 -71 -33 -131 -61 -132 -61 -2 0 -214 280 -470 623 -413
550 -511 679 -492 642z"/>
<path d="M6814 7568 c-390 -524 -734 -980 -765 -1013 -45 -49 -57 -70 -62
-105 -5 -37 -406 -1186 -452 -1298 l-14 -33 -72 36 c-74 38 -237 95 -270 95
-18 0 -19 -10 -19 -230 0 -219 1 -230 20 -242 25 -16 25 -34 1 -89 -13 -31
-21 -80 -25 -164 -8 -153 -10 -1324 -3 -1332 8 -8 173 41 243 72 32 14 92 47
132 71 40 25 78 44 85 41 7 -2 93 -220 191 -483 98 -264 187 -488 197 -500 10
-11 19 -33 19 -48 0 -16 11 -59 25 -97 13 -38 27 -97 31 -133 6 -62 8 -65 54
-99 48 -36 256 -309 262 -344 5 -29 -217 -139 -442 -220 -107 -39 -435 -134
-522 -153 -32 -6 -58 -14 -58 -18 0 -3 19 -76 42 -161 27 -102 48 -161 60
-171 14 -12 16 -18 7 -27 -24 -24 0 -50 59 -62 52 -12 69 -10 201 19 279 61
515 148 798 295 l164 84 72 -98 c40 -53 241 -330 447 -613 206 -284 376 -515
378 -513 1 1 -209 501 -468 1111 -350 826 -474 1126 -482 1176 -7 38 -15 68
-19 68 -4 0 -29 17 -57 38 -55 41 -892 987 -892 1008 0 7 31 48 68 89 150 166
226 340 267 608 4 26 11 37 23 37 49 0 1317 -262 1361 -281 l51 -22 63 21 c63
20 362 61 372 50 9 -8 -12 -165 -40 -303 -89 -441 -292 -886 -562 -1232 -35
-45 -113 -134 -173 -197 -67 -70 -110 -123 -110 -136 0 -18 132 -346 166 -412
8 -16 21 -28 29 -28 22 0 178 145 292 272 396 440 667 944 808 1505 41 163 60
270 81 453 9 74 19 139 24 143 4 5 360 53 790 107 430 55 784 101 786 102 1 2
-538 70 -1199 151 -661 81 -1228 155 -1260 164 -58 16 -60 16 -145 -11 -109
-34 -1333 -269 -1344 -258 -4 4 -12 43 -18 87 -35 256 -135 456 -322 637 -72
71 -97 101 -91 111 13 23 810 944 879 1017 48 50 68 81 88 135 55 147 131 315
145 320 8 3 30 -6 50 -19 75 -53 272 -229 347 -311 84 -92 78 -90 182 -69 31
6 28 -16 -8 -51 -16 -16 -30 -32 -30 -35 0 -4 21 -33 46 -66 82 -103 210 -305
278 -434 116 -222 199 -450 256 -699 32 -138 47 -161 104 -161 18 0 41 7 52
15 26 20 44 19 44 -3 0 -17 16 -20 145 -32 79 -7 151 -10 160 -7 22 9 19 58
-15 217 -114 539 -350 1039 -696 1475 -121 152 -393 420 -543 535 -150 114
-161 125 -161 149 0 11 133 331 296 713 319 746 315 738 310 738 -1 0 -322
-429 -712 -952z"/>
<path d="M5004 7637 c-2 -7 -3 -111 -2 -232 l3 -220 80 -8 c348 -33 487 -61
762 -153 106 -35 194 -64 196 -64 2 0 64 90 137 200 115 173 132 203 119 214
-45 44 -481 178 -719 221 -256 47 -565 69 -576 42z"/>
<path d="M3662 1338 c-152 -205 -144 -192 -136 -211 13 -36 361 -167 609 -230
313 -80 821 -142 853 -105 9 12 12 71 10 239 l-3 224 -60 3 c-332 14 -710 94
-1006 212 -55 22 -108 40 -119 40 -14 0 -57 -50 -148 -172z"/>
</g>
</svg>
