<?xml version="1.0" standalone="no"?>
<!DOCTYPE svg PUBLIC "-//W3C//DTD SVG 20010904//EN"
 "http://www.w3.org/TR/2001/REC-SVG-20010904/DTD/svg10.dtd">
<svg version="1.0" xmlns="http://www.w3.org/2000/svg"
 width="1123.000000pt" height="381.000000pt" viewBox="0 0 1123.000000 381.000000"
 preserveAspectRatio="xMidYMid meet">

<g transform="translate(0.000000,381.000000) scale(0.100000,-0.100000)"
fill="#000000" stroke="none">
<path d="M0 3780 l0 -30 5373 0 5374 0 11 25 c7 14 12 28 12 30 0 3 -2193 5
-4874 5 -4713 0 -4875 -1 -4896 -18 -21 -17 -41 -18 -254 -14 -177 3 -235 8
-247 18 -12 11 -66 14 -257 14 l-242 0 0 -30z"/>
<path d="M10896 3788 c-3 -13 -6 -26 -6 -30 0 -5 77 -8 172 -8 l171 0 -41 30
c-41 29 -44 30 -166 30 -120 0 -124 -1 -130 -22z"/>
<path d="M8527 3432 l-287 -2 35 -35 c66 -67 66 -61 63 -826 -3 -645 -4 -686
-22 -719 -10 -19 -30 -47 -44 -62 l-26 -28 224 0 224 0 -33 34 c-61 63 -61 61
-61 797 l0 667 66 7 c208 23 335 -27 393 -155 36 -80 26 -214 -21 -282 -10
-14 -18 -40 -18 -57 0 -27 -3 -31 -28 -31 -15 0 -57 -16 -93 -35 -36 -19 -105
-45 -152 -58 l-87 -23 86 -134 c231 -362 475 -655 598 -715 64 -31 156 -40
291 -28 l90 8 -85 59 c-99 69 -279 247 -401 396 -95 117 -279 356 -279 363 0
2 19 9 43 16 133 40 273 154 330 271 29 59 32 73 31 155 -1 123 -26 186 -108
269 -68 69 -138 108 -238 130 -84 19 -150 21 -491 18z"/>
<path d="M10675 3433 c-91 -4 -102 -6 -127 -30 l-27 -26 -7 27 -6 26 -319 0
-320 0 35 -30 c73 -64 71 -44 71 -810 0 -684 0 -685 -22 -732 -12 -27 -34 -59
-49 -73 l-27 -25 525 0 c492 0 526 1 531 18 3 9 28 81 55 159 l51 142 -72 -39
c-153 -82 -332 -111 -558 -91 -74 6 -144 14 -157 17 l-22 6 2 302 3 301 140
-1 c164 0 200 -6 249 -39 l36 -24 0 127 0 127 -215 -3 -215 -3 0 236 c0 215 2
236 18 242 24 10 359 10 403 0 20 -4 62 -23 94 -42 31 -19 59 -35 61 -35 2 0
4 63 4 140 0 127 -2 140 -17 138 -10 -1 -63 -4 -118 -5z"/>
<path d="M270 3384 c23 -25 53 -71 67 -102 14 -31 126 -329 249 -662 124 -333
243 -642 265 -687 34 -71 50 -91 107 -136 37 -30 88 -68 115 -86 l47 -32 11
28 c12 32 621 1603 650 1676 l19 47 -186 0 -186 0 30 -28 c65 -61 60 -159 -20
-376 -34 -93 -38 -112 -28 -134 11 -26 2 -41 -27 -42 -6 0 -22 -28 -35 -62
-13 -35 -80 -210 -149 -390 -68 -181 -127 -328 -130 -328 -10 0 -450 1212
-467 1288 l-17 72 -179 0 -179 0 43 -46z"/>
<path d="M2237 3395 c32 -32 35 -39 31 -80 -6 -49 -475 -1229 -543 -1365 -30
-60 -59 -101 -98 -137 l-56 -53 218 0 219 0 -39 39 c-30 29 -39 47 -39 72 0
35 50 187 127 389 l48 125 322 3 c251 2 322 0 326 -10 111 -283 179 -470 184
-504 5 -41 3 -46 -33 -79 l-38 -35 248 0 247 0 -60 55 c-44 41 -71 79 -104
143 -24 48 -169 399 -322 780 l-278 692 -197 0 -198 0 35 -35z m323 -522 c66
-171 120 -313 120 -317 0 -3 -115 -6 -255 -6 -140 0 -255 3 -255 7 0 3 57 152
127 330 82 210 129 319 135 310 4 -8 62 -154 128 -324z"/>
<path d="M3723 3405 c45 -43 59 -71 59 -123 -1 -54 -156 -1200 -173 -1277 -19
-83 -49 -153 -85 -200 l-34 -45 202 0 201 0 -36 35 c-36 35 -57 85 -57 137 0
30 159 1230 164 1235 1 2 114 -261 251 -585 136 -323 264 -618 283 -657 37
-74 156 -205 172 -189 4 5 131 322 280 704 150 382 276 702 280 710 12 22 13
16 85 -575 36 -297 68 -559 71 -583 9 -69 -13 -148 -53 -193 l-35 -39 232 0
232 0 -40 45 c-25 29 -45 65 -56 102 -13 47 -168 1112 -192 1323 -8 67 8 129
42 170 l26 30 -214 0 -213 0 -12 -57 c-17 -87 -445 -1179 -456 -1162 -5 8 -93
212 -196 454 l-186 440 -33 3 c-24 2 -31 7 -24 15 25 32 21 66 -17 153 -21 49
-42 104 -45 122 l-8 32 -221 0 -222 0 28 -25z"/>
<path d="M6052 3392 c65 -72 63 -47 63 -807 l0 -690 -23 -47 c-13 -27 -35 -57
-49 -68 l-26 -20 239 0 238 0 -36 33 c-48 44 -67 85 -78 170 -12 94 -13 1264
-1 1271 5 4 47 10 93 15 288 29 461 -101 446 -334 -12 -183 -153 -314 -388
-360 -65 -12 -65 -12 -35 -25 50 -21 220 -24 299 -6 100 24 200 80 277 156
245 242 144 602 -200 719 -76 25 -78 25 -465 29 l-389 3 35 -39z"/>
<path d="M7467 3398 c72 -77 68 -25 68 -798 0 -764 2 -743 -61 -806 l-35 -34
227 0 226 0 -35 39 c-39 43 -57 93 -57 158 0 76 -19 140 -43 147 -21 5 -21 5
5 33 l26 28 4 555 3 555 24 53 c13 29 38 64 55 77 l31 25 -234 0 -235 0 31
-32z"/>
<path d="M33 1423 c-19 -10 -33 -24 -33 -35 0 -17 38 -18 929 -18 l928 0 28
21 c24 20 34 21 118 15 75 -5 104 -2 157 13 l65 19 -1080 1 c-975 0 -1083 -2
-1112 -16z"/>
<path d="M2430 1437 c0 -2 20 -18 44 -35 l44 -32 3269 1 3268 1 -65 31 -65 32
-3247 3 c-1787 1 -3248 1 -3248 -1z"/>
<path d="M9198 1410 c-27 -17 -48 -32 -48 -35 0 -3 468 -5 1040 -5 l1040 0 0
35 0 35 -562 0 c-546 0 -567 -1 -708 -24 l-145 -24 -59 24 c-57 23 -69 24
-285 24 l-226 0 -47 -30z"/>
<path d="M5752 910 c-88 -54 -95 -178 -15 -262 l27 -28 -43 0 c-23 0 -51 5
-61 10 -15 8 -21 6 -30 -11 -18 -32 -6 -51 25 -39 50 19 133 4 136 -24 1 -6 0
-101 -1 -211 -2 -190 11 -325 30 -325 19 0 31 145 29 337 -2 137 0 206 8 214
16 16 88 23 123 11 36 -13 49 3 30 37 -9 17 -15 19 -30 11 -10 -5 -39 -10 -63
-10 l-44 0 33 35 c38 41 59 103 50 153 -16 99 -122 152 -204 102z m113 -46
c25 -10 45 -58 45 -109 0 -38 -6 -51 -35 -83 l-34 -37 -1 37 c0 20 4 39 10 43
5 3 1 14 -10 25 -20 20 -20 20 -40 0 -11 -11 -15 -22 -10 -25 6 -4 10 -22 10
-40 0 -42 -20 -39 -49 8 -51 83 -16 187 63 187 19 0 42 -3 51 -6z"/>
<path d="M1447 913 c-17 -16 -3 -23 48 -23 l55 0 0 -136 0 -135 33 3 32 3 3
133 3 132 49 0 c38 0 50 4 50 15 0 13 -21 15 -133 15 -74 0 -137 -3 -140 -7z"/>
<path d="M2104 907 c-2 -7 -3 -74 -2 -148 l3 -134 33 -3 32 -3 0 70 0 71 60 0
59 0 3 -67 3 -68 33 -3 32 -3 0 151 0 151 -32 -3 c-33 -3 -33 -3 -36 -65 l-3
-63 -59 0 -60 0 0 65 0 65 -30 0 c-17 0 -33 -6 -36 -13z"/>
<path d="M2770 770 l0 -150 110 0 c91 0 110 3 110 15 0 12 -15 15 -75 15 l-75
0 0 60 0 60 60 0 c77 0 79 18 3 22 l-58 3 -3 48 -3 47 75 0 c61 0 76 3 76 15
0 12 -19 15 -110 15 l-110 0 0 -150z"/>
<path d="M3670 771 c0 -144 1 -151 20 -151 19 0 20 7 21 98 l0 97 50 -97 c27
-54 55 -98 62 -98 7 0 33 41 57 91 l45 91 5 -88 5 -89 33 -3 32 -3 0 150 0
151 -30 0 c-28 0 -33 -7 -81 -102 l-51 -102 -52 99 c-47 93 -53 100 -83 103
l-33 3 0 -150z"/>
<path d="M4447 778 c-37 -79 -67 -146 -67 -150 0 -5 9 -8 21 -8 16 0 30 21 69
103 l49 102 47 -102 c47 -100 49 -103 81 -103 18 0 33 4 33 8 0 5 -29 72 -64
148 -45 98 -70 140 -83 142 -14 2 -32 -26 -86 -140z"/>
<path d="M5094 908 c-12 -5 -28 -21 -35 -34 -22 -41 -2 -74 70 -114 70 -40 92
-69 71 -95 -24 -29 -100 -10 -100 26 0 5 -11 9 -25 9 -31 0 -33 -22 -5 -50 60
-60 200 -24 200 51 0 33 -16 50 -78 86 -84 48 -97 66 -66 97 24 24 53 19 84
-14 28 -30 60 -40 60 -19 0 6 -13 24 -29 40 -25 24 -37 29 -78 28 -26 0 -58
-5 -69 -11z"/>
<path d="M6380 805 c0 -112 1 -115 29 -147 24 -27 36 -32 88 -36 65 -5 114 13
133 47 5 11 10 72 10 135 0 109 -1 116 -20 116 -19 0 -20 -7 -20 -109 0 -94
-3 -112 -21 -135 -27 -34 -79 -36 -109 -4 -18 19 -20 35 -20 135 l0 113 -35 0
-35 0 0 -115z"/>
<path d="M7050 770 l0 -150 110 0 c91 0 110 3 110 15 0 12 -15 15 -75 15 l-75
0 0 60 0 60 60 0 c77 0 79 18 3 22 l-58 3 -3 48 -3 47 75 0 c61 0 76 3 76 15
0 12 -19 15 -110 15 l-110 0 0 -150z"/>
<path d="M7664 907 c-2 -7 -3 -74 -2 -148 l3 -134 32 -3 32 -3 3 133 c3 127 4
133 24 136 55 8 73 -67 24 -96 l-30 -18 43 -70 c39 -63 45 -69 80 -72 20 -2
37 -1 37 3 0 3 -18 33 -39 67 l-39 62 30 28 c25 23 29 33 23 55 -9 39 -22 51
-64 63 -53 15 -151 13 -157 -3z"/>
<path d="M8327 780 c-37 -77 -67 -144 -67 -150 0 -5 9 -10 19 -10 15 0 32 25
69 103 l49 102 38 -80 c20 -44 41 -90 46 -102 7 -18 16 -23 45 -23 26 0 35 4
31 14 -3 7 -33 75 -67 150 -45 98 -67 136 -80 136 -12 0 -36 -40 -83 -140z"/>
<path d="M8940 770 l0 -153 89 5 c102 6 142 24 179 79 19 27 23 43 19 82 -8
87 -65 126 -198 134 l-89 6 0 -153z m144 110 c33 -12 66 -66 66 -108 0 -67
-52 -122 -115 -122 l-25 0 0 120 0 120 24 0 c14 0 36 -4 50 -10z"/>
<path d="M9624 907 c-2 -7 -3 -74 -2 -148 l3 -134 108 -3 c91 -2 107 0 107 13
0 12 -14 15 -70 15 l-70 0 0 60 0 60 60 0 c33 0 60 4 60 10 0 6 -27 10 -60 10
l-60 0 0 50 0 50 70 0 c56 0 70 3 70 15 0 12 -18 15 -105 15 -78 0 -107 -3
-111 -13z"/>
</g>
</svg>
